SplineFontDB: 3.0
FontName: Caslon44Bold
FullName: Caslon 44
FamilyName: Caslon 44
Weight: Bold
Copyright: The programs to draw the splines of this font are copyright (c) 1992-1998 by George Williams
Version: 001.000
ItalicAngle: 0
UnderlinePosition: -105
UnderlineWidth: 16
Ascent: 787
Descent: 213
InvalidEm: 0
LayerCount: 2
Layer: 0 0 "Back" 1
Layer: 1 0 "Fore" 0
FSType: 12
OS2Version: 0
OS2_WeightWidthSlopeOnly: 0
OS2_UseTypoMetrics: 0
CreationTime: 1400309090
ModificationTime: 1457486468
PfmFamily: 17
TTFWeight: 700
TTFWidth: 5
LineGap: 90
VLineGap: 0
Panose: 2 0 8 2 0 0 0 0 0 0
OS2TypoAscent: 0
OS2TypoAOffset: 1
OS2TypoDescent: 0
OS2TypoDOffset: 1
OS2TypoLinegap: 0
OS2WinAscent: 0
OS2WinAOffset: 1
OS2WinDescent: 0
OS2WinDOffset: 1
HheadAscent: 0
HheadAOffset: 1
HheadDescent: 0
HheadDOffset: 1
OS2CapHeight: 0
OS2XHeight: 0
OS2Vendor: 'PfEd'
Lookup: 4 0 1 "'liga' Standard Ligatures in Latin lookup 0" { "'liga' Standard Ligatures in Latin lookup 0 subtable"  } ['liga' ('latn' <'dflt' > ) ]
Lookup: 4 0 0 "'hlig' Historic Ligatures in Latin lookup 1" { "'hlig' Historic Ligatures in Latin lookup 1 subtable"  } ['hlig' ('latn' <'dflt' > ) ]
Lookup: 4 0 0 "'dlig' Discretionary Ligatures in Latin lookup 2" { "'dlig' Discretionary Ligatures in Latin lookup 2 subtable"  } ['dlig' ('latn' <'dflt' > ) ]
MarkAttachClasses: 1
DEI: 91125
LangName: 1036 "" "" "Gras"
LangName: 1031 "" "" "Fett"
LangName: 1034 "" "" "Nigrita"
LangName: 1049 "" "" "+BB4EMQRLBEcEPQRLBDkA"
Encoding: UnicodeBmp
UnicodeInterp: none
NameList: AGL For New Fonts
DisplaySize: -96
AntiAlias: 1
FitToEm: 1
WinInfo: 40 8 6
BeginPrivate: 10
BlueValues 47 [-21.000 0.000 463.000 474.000 661.000 671.000]
OtherBlues 19 [-165.000 -147.000]
BlueScale 11 0.363636364
UniqueID 7 4190087
StdHW 8 [32.102]
StdVW 8 [82.600]
StemSnapH 15 [32.102 42.982]
StemSnapV 15 [57.156 82.600]
ForceBoldThreshold 2 .5
ForceBold 4 true
EndPrivate
BeginChars: 65600 1763

StartChar: exclam
Encoding: 33 33 2
Width: 282
Flags: W
HStem: -5 159<99 122>
VStem: 102 75<213 244.223 213 555>
LayerCount: 2
Back
Fore
SplineSet
99 704 m 0
 105 716 118 717 124 704 c 0
 158 639 177 616 177 555 c 0
 177 420 122 348 122 213 c 0
 122 181 102 182 102 213 c 0
 102 348 47 420 47 555 c 0
 47 616 70 642 99 704 c 0
37 74 m 0
 37 118 68 154 109 154 c 0
 151 154 187 118 187 74 c 0
 187 31 153 -5 112 -5 c 0
 70 -5 37 31 37 74 c 0
EndSplineSet
EndChar

StartChar: quotedbl
Encoding: 34 34 3
Width: 257
Flags: W
HStem: 641 20G<45 104 141 200>
LayerCount: 2
Back
Fore
SplineSet
200 661 m 1
 186 539 l 1
 155 539 l 1
 141 661 l 1
 200 661 l 1
104 661 m 1
 90 539 l 1
 59 539 l 1
 45 661 l 1
 104 661 l 1
EndSplineSet
EndChar

StartChar: numbersign
Encoding: 35 35 4
Width: 469
Flags: W
HStem: 213 44<0 108 157 291 340 444> 422 44<43 139 188 323 371 487> 422 203<170 323 353 487>
DStem2: 83 43 127 43 0.145494 0.989359<6.40174 171.828 222.937 383.124 434.475 588.486> 266 43 310 43 0.145494 0.989359<6.40174 171.828 223.193 383.282 434.475 588.486>
LayerCount: 2
Back
Fore
SplineSet
487 422 m 1xc0
 367 422 l 1xa0
 340 257 l 1
 444 257 l 1
 444 213 l 1
 335 213 l 1
 310 43 l 1
 266 43 l 1
 291 213 l 1
 152 213 l 1
 127 43 l 1
 83 43 l 1
 108 213 l 1
 0 213 l 1
 0 257 l 1
 113 257 l 1
 139 422 l 1
 43 422 l 1
 43 466 l 1
 144 466 l 1xc0
 170 625 l 1
 214 625 l 1xa0
 188 466 l 1
 327 466 l 1xc0
 353 625 l 1
 397 625 l 1xa0
 371 466 l 1
 487 466 l 1
 487 422 l 1xc0
323 422 m 1xc0
 183 422 l 1xa0
 157 257 l 1
 296 257 l 1
 323 422 l 1xc0
EndSplineSet
EndChar

StartChar: dollar
Encoding: 36 36 5
Width: 618
Flags: W
HStem: -26 20G<229.5 244.5>
VStem: 51 47<474 506> 448 66<149 174>
DStem2: 125 -93 151 -94 0.166325 0.986071<3.33838 83.5665 510.618 689.819> 238 -93 265 -94 0.166475 0.986046<3.50879 75.1316 138.054 348.814 481.19 649.605>
LayerCount: 2
Back
Fore
SplineSet
207 411 m 2
 235 588 l 1
 238 603 229 603 221 603 c 0
 153 603 98 557 98 506 c 0
 98 451 139 422 190 403 c 0
 196 400 206 404 207 411 c 2
315 382 m 1
 344 560 l 1
 346 571 342 579 336 582 c 0
 315 592 299 597 279 600 c 0
 268 601 263 595 261 586 c 1
 232 406 l 1
 231 396 238 387 243 386 c 0
 253 383 263 380 272 378 c 0
 280 376 288 373 296 371 c 0
 301 369 314 370 315 382 c 1
260 42 m 0
 272 116 284 185 295 254 c 0
 296 262 292 271 287 272 c 0
 268 277 248 281 229 287 c 0
 223 289 212 283 209 265 c 2
 178 70 l 1
 176 56 173 60 184 55 c 0
 207 45 227 38 248 33 c 0
 255 31 259 34 260 42 c 0
320 247 m 1
 286 39 l 2
 285 33 286 27 296 26 c 0
 304 26 312 25 321 25 c 0
 390 25 448 80 448 149 c 0
 448 209 397 240 340 258 c 0
 329 262 321 252 320 247 c 1
360 659 m 1
 363 681 390 678 387 660 c 1
 382 633 l 1
 382 628 384 624 389 623 c 0
 414 616 438 605 464 589 c 0
 479 580 488 568 488 551 c 0
 488 538 474 522 460 522 c 0
 437 522 411 539 384 555 c 0
 378 559 370 558 368 544 c 1
 340 375 l 1
 339 364 347 356 354 353 c 0
 440 324 514 279 514 174 c 0
 514 70 409 5 290 -4 c 0
 281 -5 279 -10 278 -17 c 1
 265 -94 l 2
 262 -112 234 -114 238 -93 c 1
 251 -19 l 2
 252 -13 249 -6 240 -6 c 0
 219 -6 199 -6 179 -4 c 0
 169 -3 166 -8 165 -15 c 1
 151 -94 l 2
 148 -112 121 -114 125 -93 c 1
 139 -10 l 1
 140 -3 137 4 131 5 c 0
 95 13 66 25 34 52 c 0
 25 60 19 74 19 88 c 0
 19 102 32 121 50 121 c 0
 65 121 80 109 100 97 c 0
 114 89 129 83 141 76 c 0
 147 73 152 75 154 83 c 0
 165 152 176 217 186 284 c 0
 188 293 184 301 178 304 c 0
 106 332 51 377 51 474 c 0
 51 564 148 623 233 634 c 0
 239 635 243 637 244 644 c 1
 247 659 l 1
 250 681 276 678 273 660 c 1
 271 644 l 1
 270 640 273 636 277 636 c 0
 302 636 324 635 345 632 c 0
 351 631 356 633 357 639 c 2
 360 659 l 1
EndSplineSet
EndChar

StartChar: percent
Encoding: 37 37 6
Width: 954
Flags: W
HStem: -5 14<695.464 718> 282 13<199 201> 400 17<695.464 718> 687 17<199 201>
VStem: -9 85<486 504> 322 86<486 504> 500 85<198 216> 831 85<198 216>
DStem2: 176 3 198 -14 0.609819 0.792541<0 889.629>
LayerCount: 2
Back
Fore
SplineSet
176 3 m 0
 387 278 544 483 716 710 c 0
 731 730 762 719 742 693 c 0
 533 416 414 261 198 -14 c 0
 180 -37 160 -19 176 3 c 0
585 204 m 0
 585 96 640 9 708 9 c 0
 776 9 831 96 831 204 c 0
 831 312 776 400 708 400 c 0
 640 400 585 312 585 204 c 0
500 206 m 0
 500 323 593 417 708 417 c 0
 823 417 916 323 916 206 c 0
 916 89 823 -5 708 -5 c 0
 593 -5 500 89 500 206 c 0
76 491 m 0
 76 383 131 295 199 295 c 0
 267 295 322 383 322 491 c 0
 322 599 267 687 199 687 c 0
 131 687 76 599 76 491 c 0
-9 493 m 0
 -9 609 84 704 199 704 c 0
 314 704 408 609 408 493 c 0
 408 376 314 282 199 282 c 0
 84 282 -9 376 -9 493 c 0
EndSplineSet
EndChar

StartChar: ampersand
Encoding: 38 38 7
Width: 1033
Flags: W
HStem: 0 56<276 355> 370 24<600 600 600 632.5> 665 23<412 432>
VStem: 53 116<205 230> 265 94<524 584> 500 63<550 569>
LayerCount: 2
Back
Fore
SplineSet
440 462 m 0
 477 482 500 521 500 567 c 0
 500 618 477 665 425 665 c 0
 384 665 359 630 359 584 c 0
 359 543 378 500 412 469 c 0
 424 459 429 456 440 462 c 0
519 140 m 0
 512 153 509 163 501 177 c 0
 481 214 462 233 440 266 c 0
 408 315 366 350 332 385 c 0
 323 395 318 393 308 390 c 0
 224 361 169 316 169 230 c 0
 169 130 237 57 355 56 c 0
 404 55 460 83 516 116 c 0
 525 121 526 129 519 140 c 0
904 148 m 0
 911 159 913 172 922 172 c 0
 930 172 932 168 927 148 c 0
 902 46 813 -13 708 -9 c 0
 633 -6 581 38 543 97 c 1
 538 103 535 102 528 97 c 0
 445 40 365 0 276 0 c 0
 155 0 53 74 53 205 c 0
 53 321 158 385 285 412 c 0
 297 415 300 421 295 430 c 0
 276 462 265 488 265 524 c 0
 265 622 326 688 412 688 c 0
 488 688 563 641 563 562 c 0
 563 497 511 466 460 440 c 0
 450 435 452 424 458 418 c 0
 473 402 489 385 505 368 c 0
 538 330 556 307 584 266 c 0
 597 246 610 223 622 204 c 0
 627 195 630 193 638 201 c 0
 674 237 695 275 693 300 c 0
 690 345 646 370 600 370 c 0
 581 370 569 394 600 394 c 0
 665 396 802 398 876 394 c 0
 901 393 897 377 878 374 c 0
 847 369 812 341 778 309 c 0
 735 268 694 224 650 185 c 1
 643 180 642 170 646 164 c 0
 677 115 711 81 775 84 c 0
 831 87 883 111 904 148 c 0
EndSplineSet
EndChar

StartChar: quotesingle
Encoding: 39 39 8
Width: 197
Flags: W
LayerCount: 2
Back
Fore
SplineSet
156 543 m 1
 137 494 96 456 44 445 c 1
 30 462 l 1
 54 468 95 504 76 531 c 1
 31 558 46 644 113 640 c 0
 168 636 180 576 156 543 c 1
EndSplineSet
EndChar

StartChar: parenleft
Encoding: 40 40 9
Width: 354
Flags: W
VStem: 19 90<245 275>
LayerCount: 2
Back
Fore
SplineSet
244 648 m 0
 277 685 272 690 232 660 c 0
 127 580 19 431 19 245 c 0
 19 59 127 -90 232 -170 c 0
 272 -200 277 -195 244 -158 c 0
 118 -16 109 117 109 245 c 0
 109 376 118 506 244 648 c 0
EndSplineSet
EndChar

StartChar: parenright
Encoding: 41 41 10
Width: 354
Flags: W
VStem: 188 90<245 275>
LayerCount: 2
Back
Fore
SplineSet
53 648 m 0
 20 685 25 690 65 660 c 0
 170 580 278 431 278 245 c 0
 278 59 170 -90 65 -170 c 0
 25 -200 20 -195 53 -158 c 0
 179 -16 188 117 188 245 c 0
 188 376 179 506 53 648 c 0
EndSplineSet
EndChar

StartChar: asterisk
Encoding: 42 42 11
Width: 462
Flags: W
HStem: 469 21G<216 236>
VStem: 195 47<173 191.828> 195 66<166 176 400 424> 213 29<257.551 270.969>
LayerCount: 2
Back
Fore
SplineSet
390 387 m 0x90
 400 370 396 355 359 333 c 0
 317 309 283 311 256 295 c 1
 286 278 318 280 354 259 c 0
 392 237 396 217 386 200 c 0
 377 184 361 179 324 200 c 0
 282 224 270 256 242 271 c 1x90
 242 237 261 218 261 176 c 0xa0
 261 133 244 119 226 119 c 0
 208 119 195 130 195 173 c 0xc0
 195 221 214 240 213 271 c 1x90
 186 256 170 224 128 200 c 0
 91 179 76 184 66 200 c 0
 56 218 61 237 98 259 c 0
 134 280 169 277 198 294 c 1
 172 310 140 306 98 330 c 0
 61 352 57 370 67 387 c 0
 75 401 97 410 134 389 c 0
 170 368 185 337 214 320 c 1
 215 351 195 367 195 415 c 0
 195 458 206 469 226 469 c 0
 246 469 261 455 261 412 c 0xa0
 261 370 242 353 242 319 c 1
 272 336 287 368 323 389 c 0
 361 410 381 403 390 387 c 0x90
EndSplineSet
EndChar

StartChar: plus
Encoding: 43 43 12
Width: 304
Flags: W
HStem: 245 48<33 156 203 326>
VStem: 156 47<120 245 293 413>
LayerCount: 2
Back
Fore
SplineSet
326 245 m 1
 203 245 l 1
 203 120 l 1
 156 120 l 1
 156 245 l 1
 33 245 l 1
 33 293 l 1
 156 293 l 1
 156 413 l 1
 203 413 l 1
 203 293 l 1
 326 293 l 1
 326 245 l 1
EndSplineSet
EndChar

StartChar: comma
Encoding: 44 44 13
Width: 299
Flags: W
HStem: -20 20G<109 140>
LayerCount: 2
Back
Fore
SplineSet
137 -18 m 0
 138 -10 150 0 130 0 c 0
 88 0 51 30 51 74 c 0
 51 118 86 151 127 151 c 0
 169 151 214 108 214 36 c 0
 214 -28 160 -85 71 -95 c 0
 39 -99 45 -69 69 -70 c 0
 90 -71 135 -46 137 -18 c 0
EndSplineSet
EndChar

StartChar: hyphen
Encoding: 45 45 14
Width: 236
Flags: W
HStem: 196 58<33 252>
LayerCount: 2
Back
Fore
SplineSet
252 196 m 1
 33 196 l 1
 33 254 l 1
 252 254 l 1
 252 196 l 1
EndSplineSet
EndChar

StartChar: period
Encoding: 46 46 15
Width: 344
Flags: W
HStem: -20 20G<109 150.5>
LayerCount: 2
Back
Fore
SplineSet
55 79 m 0
 55 123 86 159 127 159 c 0
 169 159 205 123 205 79 c 0
 205 36 171 0 130 0 c 0
 88 0 55 36 55 79 c 0
EndSplineSet
EndChar

StartChar: slash
Encoding: 47 47 16
Width: 369
Flags: W
HStem: -20 21G<0 66>
DStem2: 0 -20 66 -20 0.461133 0.887331<30.4348 715.629>
LayerCount: 2
Back
Fore
SplineSet
396 615 m 1
 66 -20 l 1
 0 -20 l 1
 330 615 l 1
 396 615 l 1
EndSplineSet
EndChar

StartChar: zero
Encoding: 48 48 17
Width: 489
Flags: W
HStem: 0 19<233.222 247> 562 19<233.222 247>
LayerCount: 2
Back
Fore
SplineSet
244 0 m 0
 -33 0 -33 581 244 581 c 0
 525 581 521 0 244 0 c 0
244 19 m 0
 392 19 392 562 244 562 c 0
 96 562 96 19 244 19 c 0
EndSplineSet
EndChar

StartChar: one
Encoding: 49 49 18
Width: 489
Flags: W
HStem: 0 19<132 357>
VStem: 204 80<46 529>
LayerCount: 2
Back
Fore
SplineSet
357 0 m 1
 132 0 l 1
 132 19 l 1
 179 19 l 2
 194 19 204 32 204 46 c 2
 204 529 l 1
 164 529 l 1
 164 547 l 1
 284 581 l 1
 284 46 l 2
 284 33 297 19 310 19 c 2
 357 19 l 1
 357 0 l 1
EndSplineSet
EndChar

StartChar: two
Encoding: 50 50 19
Width: 489
Flags: W
HStem: 0 102<137 393>
VStem: 83 318<62 456>
LayerCount: 2
Back
Fore
SplineSet
416 140 m 1
 393 0 l 1
 83 0 l 1
 83 62 l 2
 83 199 289 278 296 439 c 0
 299 492 263 536 206 539 c 0
 143 543 101 490 90 434 c 1
 73 434 l 1
 79 519 144 581 231 581 c 0
 314 581 401 547 401 456 c 0
 401 294 203 223 156 146 c 0
 137 115 144 119 137 102 c 1
 388 102 l 1
 398 140 l 1
 416 140 l 1
EndSplineSet
EndChar

StartChar: three
Encoding: 51 51 20
Width: 489
Flags: W
VStem: 76 17<457 468.668>
LayerCount: 2
Back
Fore
SplineSet
324 143 m 0
 329 224 236 299 185 299 c 2
 162 299 l 1
 162 328 l 1
 177 331 184 333 197 340 c 0
 244 365 267 409 262 462 c 0
 254 558 93 545 93 457 c 1
 76 457 l 1
 76 538 154 578 227 575 c 0
 346 570 400 463 309 389 c 0
 298 380 293 373 280 367 c 1
 282 354 l 1
 287 350 288 345 294 343 c 0
 495 265 446 5 189 -3 c 0
 128 -5 67 43 71 104 c 0
 77 190 175 181 172 113 c 0
 171 80 155 66 122 69 c 1
 132 50 141 43 158 30 c 0
 197 -1 317 39 324 143 c 0
EndSplineSet
EndChar

StartChar: four
Encoding: 52 52 21
Width: 489
Flags: W
HStem: 0 21G<335 419> 109 84<129 335 419 477>
VStem: 335 84<0 109 193 581>
DStem2: 12 109 129 193 0.592325 0.805699<136.981 484.809>
LayerCount: 2
Back
Fore
SplineSet
477 109 m 1
 419 109 l 1
 419 0 l 1
 335 0 l 1
 335 109 l 1
 12 109 l 1
 359 581 l 1
 419 581 l 1
 419 193 l 1
 477 193 l 1
 477 109 l 1
334 193 m 1
 334 474 l 1
 129 193 l 1
 334 193 l 1
EndSplineSet
EndChar

StartChar: five
Encoding: 53 53 22
Width: 489
Flags: W
HStem: 515 65<93 374>
VStem: 93 48<276 515>
LayerCount: 2
Back
Fore
SplineSet
423 172 m 0
 418 70 305 -22 193 -11 c 0
 130 -5 67 37 67 93 c 0
 67 146 100 161 133 157 c 0
 156 154 173 132 169 102 c 0
 165 76 140 60 116 60 c 1
 136 35 159 25 191 22 c 0
 272 13 342 84 342 165 c 0
 342 289 184 328 93 276 c 1
 93 580 l 1
 326 580 l 2
 338 580 362 581 369 594 c 2
 374 603 l 1
 381 603 l 1
 374 515 l 1
 141 515 l 1
 141 362 l 1
 271 430 429 322 423 172 c 0
EndSplineSet
EndChar

StartChar: six
Encoding: 54 54 23
Width: 489
Flags: W
HStem: 0 17<245 258> 356 20<245 258>
LayerCount: 2
Back
Fore
SplineSet
270 581 m 1
 271 555 l 1
 216 509 185 495 156 413 c 0
 143 375 137 349 137 311 c 1
 164 350 201 376 245 376 c 0
 530 373 521 -1 245 0 c 0
 -78 1 24 454 188 540 c 0
 221 557 236 569 270 581 c 1
245 17 m 0
 389 17 395 354 245 356 c 0
 93 358 102 17 245 17 c 0
EndSplineSet
EndChar

StartChar: seven
Encoding: 55 55 24
Width: 489
Flags: W
HStem: 0 21G<166 265> 494 87<59 342>
VStem: 60 27<442 461>
LayerCount: 2
Back
Fore
SplineSet
431 581 m 1
 265 0 l 1
 166 0 l 1
 342 494 l 1
 148 494 l 2
 117 494 87 499 87 461 c 2
 87 430 l 1
 60 442 l 1
 59 581 l 1
 431 581 l 1
EndSplineSet
EndChar

StartChar: eight
Encoding: 56 56 25
Width: 489
Flags: W
HStem: -3 20<256 266>
VStem: 57 64<159 180>
LayerCount: 2
Back
Fore
SplineSet
432 160 m 0
 436 66 349 -3 256 -3 c 0
 149 -3 55 63 57 161 c 0
 58 236 126 272 179 304 c 1
 137 338 83 380 81 441 c 0
 79 520 173 583 255 583 c 0
 330 583 392 528 394 464 c 0
 396 390 339 358 281 325 c 1
 350 284 429 239 432 160 c 0
350 471 m 0
 348 516 300 564 255 566 c 0
 202 569 159 522 161 469 c 0
 163 413 210 371 260 339 c 1
 308 369 352 401 350 471 c 0
350 145 m 0
 348 208 269 239 199 290 c 1
 159 263 121 231 121 180 c 0
 121 118 149 17 256 17 c 0
 315 17 352 69 350 145 c 0
EndSplineSet
EndChar

StartChar: nine
Encoding: 57 57 26
Width: 489
Flags: W
HStem: 196 20<251 264> 555 17<251 264>
LayerCount: 2
Back
Fore
SplineSet
359 261 m 1
 332 222 295 196 251 196 c 0
 -40 199 -23 573 251 572 c 0
 548 571 465 170 308 44 c 0
 279 21 261 7 226 -9 c 1
 229 19 l 1
 276 58 319 100 339 159 c 0
 353 197 359 223 359 261 c 1
251 216 m 0
 403 214 394 555 251 555 c 0
 107 555 101 218 251 216 c 0
EndSplineSet
EndChar

StartChar: colon
Encoding: 58 58 27
Width: 299
Flags: W
HStem: 0 159<118 136> 266 158<118 136>
LayerCount: 2
Back
Fore
SplineSet
55 345 m 0
 55 301 88 266 130 266 c 0
 171 266 205 301 205 345 c 0
 205 389 169 424 127 424 c 0
 86 424 55 389 55 345 c 0
55 79 m 0
 55 36 88 0 130 0 c 0
 171 0 205 36 205 79 c 0
 205 123 169 159 127 159 c 0
 86 159 55 123 55 79 c 0
EndSplineSet
EndChar

StartChar: semicolon
Encoding: 59 59 28
Width: 299
Flags: W
HStem: 0 151<125 139> 266 158<125 139>
LayerCount: 2
Back
Fore
SplineSet
137 -18 m 0
 138 -10 150 0 130 0 c 0
 88 0 51 30 51 74 c 0
 51 118 86 151 127 151 c 0
 169 151 214 108 214 36 c 0
 214 -28 160 -85 71 -95 c 0
 39 -99 45 -69 69 -70 c 0
 90 -71 135 -46 137 -18 c 0
55 345 m 0
 55 389 86 424 127 424 c 0
 169 424 205 389 205 345 c 0
 205 301 171 266 130 266 c 0
 88 266 55 301 55 345 c 0
EndSplineSet
EndChar

StartChar: less
Encoding: 60 60 29
Width: 492
Flags: W
DStem2: 43 305 128 282 0.92894 0.37023<70.4446 423.085> 128 270 43 249 0.92109 -0.38935<0 355.211>
LayerCount: 2
Back
Fore
SplineSet
457 74 m 1
 43 249 l 1
 43 305 l 1
 457 470 l 1
 457 409 l 1
 128 282 l 1
 128 270 l 1
 457 136 l 1
 457 74 l 1
EndSplineSet
EndChar

StartChar: equal
Encoding: 61 61 30
Width: 351
Flags: W
HStem: 200 46<33 312> 308 46<33 312>
LayerCount: 2
Back
Fore
SplineSet
312 308 m 1
 33 308 l 1
 33 354 l 1
 312 354 l 1
 312 308 l 1
312 200 m 1
 33 200 l 1
 33 246 l 1
 312 246 l 1
 312 200 l 1
EndSplineSet
EndChar

StartChar: greater
Encoding: 62 62 31
Width: 457
Flags: W
DStem2: 6 470 6 409 0.92894 -0.37023<22.584 375.225> 6 136 6 74 0.92109 0.38935<0 355.211>
LayerCount: 2
Back
Fore
SplineSet
6 74 m 1
 420 249 l 1
 420 305 l 1
 6 470 l 1
 6 409 l 1
 335 282 l 1
 335 270 l 1
 6 136 l 1
 6 74 l 1
EndSplineSet
EndChar

StartChar: question
Encoding: 63 63 32
Width: 425
Flags: W
HStem: -8 149<125 136> 595 111<99 142>
VStem: 312 21<543 563>
LayerCount: 2
Back
Fore
SplineSet
53 66 m 0
 53 108 85 141 125 141 c 0
 164 141 196 108 196 66 c 0
 196 25 164 -8 125 -8 c 0
 85 -8 53 25 53 66 c 0
159 343 m 0
 149 271 148 258 136 182 c 0
 133 162 115 163 113 183 c 0
 107 251 100 301 92 379 c 0
 88 407 79 445 106 450 c 0
 196 467 312 476 312 563 c 0
 312 614 265 639 220 639 c 0
 170 639 137 595 99 595 c 0
 74 595 55 616 55 640 c 0
 55 683 100 706 142 706 c 0
 235 706 333 641 333 543 c 0
 334 456 254 404 186 377 c 0
 170 370 161 360 159 343 c 0
EndSplineSet
EndChar

StartChar: at
Encoding: 64 64 33
Width: 735
Flags: W
HStem: 699 47<416 437>
VStem: 453 95<263 485>
LayerCount: 2
Back
Fore
SplineSet
723 134 m 1
 645 38 548 -19 425 -17 c 0
 -183 -6 -38 746 416 746 c 0
 617 746 741 572 723 354 c 0
 714 243 669 170 594 180 c 0
 546 187 517 212 501 259 c 1
 489 228 453 165 388 163 c 0
 69 151 143 590 400 578 c 0
 433 576 474 547 487 524 c 1
 548 554 l 1
 548 274 l 2
 548 240 566 221 601 218 c 0
 646 214 670 298 671 373 c 0
 672 580 577 698 416 699 c 0
 35 703 -98 61 425 33 c 0
 515 28 573 52 643 109 c 1
 723 134 l 1
453 264 m 1
 453 485 l 1
 428 506 411 517 380 519 c 0
 256 526 237 209 391 218 c 0
 421 220 434 241 453 264 c 1
EndSplineSet
EndChar

StartChar: A
Encoding: 65 65 34
Width: 694
Flags: W
HStem: 0 28<37 270 494 721> 315 27<281 465>
DStem2: 138 86 281 342 0.387203 0.921995<291.401 543.397 38.8696 262.248> 419 686 465 315 0.336722 -0.941604<364.824 636.785>
LayerCount: 2
Back
Fore
SplineSet
721 0 m 1
 494 0 l 1
 494 28 l 1
 534 28 l 258
 549 28 559 44 554 58 c 2
 465 315 l 1
 270 315 l 1
 186 108 l 2
 173 75 196 28 233 28 c 258
 270 28 l 1
 270 0 l 1
 37 0 l 1
 37 28 l 1
 73 28 l 258
 102 28 128 62 138 86 c 2
 361 617 l 1
 351 647 l 1
 419 686 l 1
 640 68 l 2
 648 45 680 28 703 28 c 258
 721 28 l 1
 721 0 l 1
456 342 m 1
 377 575 l 1
 281 342 l 1
 456 342 l 1
EndSplineSet
EndChar

StartChar: B
Encoding: 66 66 35
Width: 556
Flags: W
HStem: 0 27<22 306> 0 33<217.747 311> 359 31<190 334> 628 33<22 342> 634 27<22 77>
VStem: 110 80<64 359 64 580> 437 73<535 545>
LayerCount: 2
Back
Fore
SplineSet
534 220 m 0x36
 537 103 437 0 306 0 c 2
 22 0 l 1
 22 27 l 1
 75 27 l 2
 93 27 110 47 110 64 c 2
 110 597 l 2
 110 614 93 634 75 634 c 2
 22 634 l 1xae
 22 661 l 1
 340 661 l 2
 437 661 510 630 510 535 c 0
 510 462 477 412 426 382 c 1
 496 357 532 300 534 220 c 0x36
437 535 m 0
 437 593 391 628 335 628 c 2
 227 628 l 2x36
 201 628 190 600 190 578 c 2
 190 390 l 1
 302 390 l 2
 380 390 437 456 437 535 c 0
457 206 m 0
 457 279 406 359 334 359 c 2
 190 359 l 1
 190 83 l 2
 190 59 198 33 227 33 c 2
 299 33 l 2x66
 392 33 457 135 457 206 c 0
EndSplineSet
EndChar

StartChar: C
Encoding: 67 67 36
Width: 582
Flags: W
HStem: 17 24<291 462> 649 20G<511 529> 665 14<302 322>
VStem: 17 89<301 351>
LayerCount: 2
Back
Fore
SplineSet
561 228 m 1xb0
 517 4 l 1
 494 4 l 1
 496 23 481 41 462 41 c 0
 407 40 365 0 304 -2 c 0
 76 -11 17 167 17 323 c 0
 17 476 96 681 315 679 c 0xb0
 417 678 433 621 463 625 c 0
 485 628 500 652 511 669 c 1
 529 669 l 1xd0
 540 446 l 1
 520 446 l 1
 495 540 422 665 312 665 c 0
 187 665 108 494 106 336 c 0
 104 192 156 17 291 17 c 0
 363 17 453 65 504 143 c 0
 524 174 534 193 544 228 c 1
 561 228 l 1xb0
EndSplineSet
EndChar

StartChar: D
Encoding: 68 68 37
Width: 704
Flags: W
HStem: 0 27<23 304> 0 33<226 328> 628 33<23 376> 634 27<23 78>
VStem: 111 80<64 581>
LayerCount: 2
Back
Fore
SplineSet
669 347 m 0x18
 670 172 516 0 304 0 c 2
 23 0 l 1
 23 27 l 1
 76 27 l 2
 94 27 111 47 111 64 c 2
 111 597 l 2
 111 614 94 634 76 634 c 2
 23 634 l 1x98
 23 661 l 1x28
 404 661 l 2
 598 661 668 484 669 347 c 0x18
582 359 m 0
 573 493 505 628 371 628 c 2
 228 628 l 2
 203 628 191 599 191 578 c 2
 191 83 l 2
 191 62 203 33 228 33 c 2
 322 33 l 2x68
 485 33 592 196 582 359 c 0
EndSplineSet
EndChar

StartChar: E
Encoding: 69 69 38
Width: 615
Flags: W
HStem: 0 27<22 506> 0 33<226 506> 350 28<190 295> 628 33<22 375> 634 27<22 77>
VStem: 110 80<64 350 64 580> 389 21<234 488>
LayerCount: 2
Back
Fore
SplineSet
558 196 m 1x76
 506 0 l 1
 22 0 l 1
 22 27 l 1
 75 27 l 2
 93 27 110 47 110 64 c 2
 110 597 l 2
 110 614 93 634 75 634 c 2
 22 634 l 1xae
 22 661 l 1x36
 514 661 l 1x2e
 558 461 l 1
 535 461 l 1
 522 491 l 2
 489 567 445 628 356 628 c 2
 228 628 l 2
 202 628 190 601 190 578 c 2
 190 378 l 1
 290 378 l 2
 338 378 389 420 389 470 c 2
 389 488 l 1
 410 488 l 1
 410 234 l 1
 389 234 l 1
 389 252 l 2
 389 302 339 350 290 350 c 2
 190 350 l 1
 190 83 l 2
 190 60 202 33 228 33 c 2
 356 33 l 2
 440 33 491 91 522 165 c 2
 535 196 l 1
 558 196 l 1x76
EndSplineSet
EndChar

StartChar: F
Encoding: 70 70 39
Width: 520
Flags: W
HStem: 0 27<24 280> 346 29<192 297> 470 21G<501 519> 624 37<24 361> 634 27<24 79>
VStem: 113 79<64 346 64 577> 388 21<234 488>
LayerCount: 2
Back
Fore
SplineSet
519 470 m 1xee
 501 470 l 1
 494 502 l 2
 478 574 429 624 355 624 c 2
 230 624 l 2xf6
 204 624 192 595 192 573 c 2
 192 375 l 1
 289 375 l 2
 338 375 388 419 388 470 c 2
 388 488 l 1
 409 488 l 1
 409 234 l 1
 388 234 l 1
 388 252 l 2
 388 304 339 346 289 346 c 2
 192 346 l 1
 192 64 l 2
 192 46 209 27 227 27 c 2
 280 27 l 1
 280 0 l 1
 24 0 l 1
 24 27 l 1
 77 27 l 2
 95 27 113 46 113 64 c 2
 113 597 l 2
 113 615 95 634 77 634 c 2
 24 634 l 1xee
 24 661 l 1xf6
 498 661 l 1
 519 470 l 1xee
EndSplineSet
EndChar

StartChar: G
Encoding: 71 71 40
Width: 596
Flags: W
HStem: 339 21<397 430 397 616>
VStem: 14 82<313 347> 461 80<90 299>
LayerCount: 2
Back
Fore
SplineSet
616 339 m 1
 571 339 l 2
 548 339 541 313 541 295 c 2
 541 68 l 1
 503 82 l 1
 455 22 379 -3 304 -6 c 0
 136 -12 13 165 14 332 c 0
 14 496 146 667 296 664 c 0
 370 663 407 648 460 600 c 1
 502 658 l 1
 528 658 l 1
 541 440 l 1
 524 440 l 1
 496 542 407 651 291 642 c 0
 167 632 95 461 96 324 c 0
 98 180 167 12 320 16 c 0
 382 18 427 40 461 91 c 1
 461 295 l 2
 461 316 454 339 428 339 c 2
 397 339 l 1
 397 360 l 1
 616 360 l 1
 616 339 l 1
EndSplineSet
EndChar

StartChar: H
Encoding: 72 72 41
Width: 706
Flags: W
HStem: 0 27<45 300 442 698> 334 25<213 530> 634 27<45 100 45 300 442 497 442 698>
VStem: 133 80<64 334 64 599> 530 80<64 334 359 599>
LayerCount: 2
Back
Fore
SplineSet
698 0 m 1
 442 0 l 1
 442 27 l 1
 495 27 l 2
 513 27 530 47 530 64 c 2
 530 334 l 1
 213 334 l 1
 213 64 l 2
 213 45 229 27 248 27 c 2
 300 27 l 1
 300 0 l 1
 45 0 l 1
 45 27 l 1
 98 27 l 2
 116 27 133 47 133 64 c 2
 133 597 l 2
 133 614 116 634 98 634 c 2
 45 634 l 1
 45 661 l 1
 300 661 l 1
 300 634 l 1
 248 634 l 2
 229 634 213 616 213 597 c 2
 213 359 l 1
 530 359 l 1
 530 597 l 2
 530 614 513 634 495 634 c 2
 442 634 l 1
 442 661 l 1
 698 661 l 1
 698 634 l 1
 645 634 l 2
 626 634 610 616 610 597 c 2
 610 64 l 2
 610 45 626 27 645 27 c 2
 698 27 l 1
 698 0 l 1
EndSplineSet
EndChar

StartChar: I
Encoding: 73 73 42
Width: 308
Flags: W
HStem: 0 27<45 300> 634 27<45 100 45 300>
VStem: 133 80<64 599>
LayerCount: 2
Back
Fore
SplineSet
300 0 m 1
 45 0 l 1
 45 27 l 1
 98 27 l 2
 116 27 133 47 133 64 c 2
 133 597 l 2
 133 614 116 634 98 634 c 2
 45 634 l 1
 45 661 l 1
 300 661 l 1
 300 634 l 1
 248 634 l 2
 229 634 213 616 213 597 c 2
 213 64 l 2
 213 45 229 27 248 27 c 2
 300 27 l 1
 300 0 l 1
EndSplineSet
EndChar

StartChar: J
Encoding: 74 74 43
Width: 325
Flags: W
HStem: -106 124<56 94> 634 27<92 153 92 348>
VStem: 8 96<-38 -28> 180 80<71 599>
LayerCount: 2
Back
Fore
SplineSet
348 634 m 1
 295 634 l 2
 276 634 260 616 260 597 c 2
 260 133 l 2
 260 29 221 -106 94 -106 c 0
 46 -106 8 -84 8 -36 c 0
 8 -12 31 18 56 18 c 0
 83 18 104 -12 104 -30 c 0
 104 -59 86 -72 63 -78 c 1
 70 -84 88 -91 105 -87 c 0
 162 -74 180 11 180 71 c 2
 180 597 l 2
 180 614 163 634 145 634 c 2
 92 634 l 1
 92 661 l 1
 348 661 l 1
 348 634 l 1
EndSplineSet
EndChar

StartChar: K
Encoding: 75 75 44
Width: 677
Flags: W
HStem: 0 27<39 294 449 669> 634 27<39 93 39 294 379 408>
VStem: 127 80<64 280 64 601>
DStem2: 207 311 207 280 0.694595 0.719401<0 90.8182> 345 420 287 360 0.55307 -0.833135<17.91 370.693>
LayerCount: 2
Back
Fore
SplineSet
669 0 m 1
 449 0 l 1
 449 28 l 1
 479 28 l 258
 504 28 493 55 485 68 c 1
 287 360 l 1
 207 280 l 1
 207 64 l 2
 207 46 222 27 241 27 c 2
 294 27 l 1
 294 0 l 1
 39 0 l 1
 39 27 l 1
 91 27 l 2
 110 27 127 46 127 64 c 2
 127 597 l 2
 127 615 110 634 91 634 c 2
 39 634 l 1
 39 661 l 1
 294 661 l 1
 294 634 l 1
 241 634 l 2
 222 634 207 615 207 597 c 2
 207 311 l 1
 403 514 l 2
 436 548 491 633 398 633 c 2
 379 633 l 1
 379 661 l 1
 621 661 l 1
 621 633 l 1
 508 608 421 502 345 420 c 1
 580 66 l 2
 588 54 616 28 632 28 c 258
 669 28 l 1
 669 0 l 1
EndSplineSet
EndChar

StartChar: L
Encoding: 76 76 45
Width: 583
Flags: W
HStem: 0 27<28 511> 634 27<28 83 28 284>
VStem: 117 80<74 599>
LayerCount: 2
Back
Fore
SplineSet
561 179 m 1
 511 0 l 1
 28 0 l 1
 28 27 l 1
 81 27 l 2
 109 27 117 56 117 79 c 2
 117 597 l 2
 117 615 99 634 81 634 c 2
 28 634 l 1
 28 661 l 1
 284 661 l 1
 284 634 l 1
 231 634 l 2
 212 634 197 615 197 597 c 2
 197 76 l 2
 197 53 209 26 235 26 c 2
 355 26 l 2
 438 26 521 101 543 179 c 1
 561 179 l 1
EndSplineSet
EndChar

StartChar: M
Encoding: 77 77 46
Width: 857
Flags: W
HStem: 0 28<45 283 614 870> 634 27<70 125 708 870>
VStem: 158 23<120 593> 703 80<64 599>
DStem2: 243 661 181 594 0.366565 -0.930392<39.6092 643.814> 479 62 472 0 0.355675 0.93461<0 589.033>
LayerCount: 2
Back
Fore
SplineSet
870 0 m 1
 614 0 l 1
 614 27 l 1
 667 27 l 2
 685 27 703 46 703 64 c 2
 703 607 l 1
 472 0 l 1
 415 0 l 1
 181 594 l 1
 181 120 l 2
 181 84 202 28 246 28 c 2
 283 28 l 1
 283 0 l 1
 45 0 l 1
 45 28 l 1
 94 28 l 2
 137 28 158 85 158 120 c 2
 158 597 l 2
 158 614 141 634 123 634 c 2
 70 634 l 1
 70 661 l 1
 243 661 l 1
 479 62 l 1
 708 661 l 1
 870 661 l 1
 870 634 l 1
 817 634 l 2
 798 634 783 615 783 597 c 2
 783 64 l 2
 783 46 798 27 817 27 c 2
 870 27 l 1
 870 0 l 1
EndSplineSet
EndChar

StartChar: N
Encoding: 78 78 47
Width: 692
Flags: W
HStem: 0 28<40 279> 634 27<66 120 503 741>
VStem: 154 22<120 597> 605 23<80 545>
DStem2: 222 661 176 598 0.544298 -0.838892<27.8125 695.862>
LayerCount: 2
Back
Fore
SplineSet
741 633 m 1
 693 633 l 2
 648 633 628 578 628 541 c 2
 628 0 l 1
 564 0 l 1
 176 598 l 1
 176 120 l 2
 176 85 198 28 241 28 c 2
 279 28 l 1
 279 0 l 1
 40 0 l 1
 40 28 l 1
 89 28 l 2
 132 28 154 85 154 120 c 2
 154 597 l 2
 154 615 136 634 118 634 c 2
 66 634 l 1
 66 661 l 1
 222 661 l 1
 605 80 l 1
 605 541 l 2
 605 578 587 633 541 633 c 2
 503 633 l 1
 503 661 l 1
 741 661 l 1
 741 633 l 1
EndSplineSet
EndChar

StartChar: O
Encoding: 79 79 48
Width: 734
Flags: W
HStem: -21 21<359 377> 650 21<343 377>
LayerCount: 2
Back
Fore
SplineSet
359 -21 m 0
 -87 -21 -87 671 358 671 c 0
 802 671 803 -21 359 -21 c 0
359 0 m 2
 358 0 l 2
 679 0 677 650 359 650 c 0
 41 650 43 0 359 0 c 2
EndSplineSet
EndChar

StartChar: P
Encoding: 80 80 49
Width: 527
Flags: W
HStem: 0 27<30 285> 365 22<198 308> 635 26<30 308> 641 20<30 85>
VStem: 118 80<64 365 64 635>
LayerCount: 2
Back
Fore
SplineSet
493 537 m 0xd8
 502 413 398 365 306 365 c 2
 198 365 l 1
 198 64 l 2
 198 45 214 27 233 27 c 2
 285 27 l 1
 285 0 l 1
 30 0 l 1
 30 27 l 1
 83 27 l 2
 101 27 118 47 118 64 c 2
 118 603 l 2
 118 621 102 641 83 641 c 2
 30 641 l 1xd8
 30 661 l 1xe8
 321 661 l 2
 396 661 486 636 493 537 c 0xd8
418 535 m 0
 418 598 359 635 298 635 c 2
 198 635 l 1xe8
 198 387 l 1
 297 387 l 2
 379 387 419 435 418 535 c 0
EndSplineSet
EndChar

StartChar: Q
Encoding: 81 81 50
Width: 728
Flags: W
HStem: 645 21<349 368>
LayerCount: 2
Back
Fore
SplineSet
568 27 m 1
 568 -36 527 -94 460 -96 c 0
 371 -99 308 -11 244 -9 c 0
 221 -8 199 -10 192 -35 c 1
 239 20 298 -105 198 -105 c 0
 177 -105 155 -80 155 -61 c 0
 155 -26 188 -4 220 6 c 1
 -46 97 -66 666 349 666 c 0
 772 666 802 54 412 -15 c 1
 435 -22 459 -27 487 -27 c 0
 518 -27 560 -8 560 27 c 1
 568 27 l 1
365 2 m 1
 666 22 659 645 349 645 c 0
 65 645 40 118 268 17 c 1
 301 24 334 12 365 2 c 1
EndSplineSet
EndChar

StartChar: R
Encoding: 82 82 51
Width: 632
Flags: WO
HStem: 0 27<26 104.442 202.646 281 580.616 637> 365 36<194 212> 626 35<194 376.258> 634 27<26 104.216>
VStem: 114 80<30.4915 365 401 625.573>
LayerCount: 2
Back
Fore
SplineSet
637 0 m 1xe8
 548 0 l 2
 505.005427922 0 488.373825132 25.8639914715 463 57 c 2
 212 365 l 1
 194 365 l 1
 194 64 l 2
 194 45 210 27 229 27 c 2
 281 27 l 1
 281 0 l 1
 26 0 l 1
 26 27 l 1
 79 27 l 2
 97 27 114 47 114 64 c 2
 114 596 l 2
 114 614 98 634 79 634 c 2
 26 634 l 1
 26 661 l 1xd8
 344 661 l 2
 419 661 509 620 516 537 c 0
 525.506145725 424.284272114 436 353 306 367 c 1
 543 72 l 2
 560.202426828 50.587696564 592 27 624 27 c 2
 637 27 l 1
 637 0 l 1xe8
424 532 m 0
 422.639532382 595.660980109 366.975206612 626 309 626 c 2
 194 626 l 1xe8
 194 401 l 1
 308 401 l 2
 385.967213115 401 425.838538192 445.968446058 424 532 c 0
EndSplineSet
EndChar

StartChar: S
Encoding: 83 83 52
Width: 525
Flags: W
HStem: -10 24<274 292> 654 20<242 260>
VStem: 35 85<490 525> 415 77<131 174>
LayerCount: 2
Back
Fore
SplineSet
492 174 m 0
 492 97 423 -10 277 -10 c 0
 195 -10 175 35 120 40 c 0
 109 41 79 7 72 -2 c 1
 58 -2 l 1
 47 215 l 1
 64 215 l 1
 91 115 176 14 287 14 c 0
 359 14 415 51 415 131 c 0
 415 340 36 289 35 490 c 0
 34 594 140 674 245 674 c 0
 353 674 349 625 398 630 c 0
 412 631 438 661 446 673 c 1
 460 673 l 1
 473 452 l 1
 456 452 l 1
 431 546 362 654 254 654 c 0
 182 654 120 597 120 525 c 0
 120 357 492 381 492 174 c 0
EndSplineSet
EndChar

StartChar: T
Encoding: 84 84 53
Width: 771
Flags: W
HStem: 0 27<251 507> 627 34<102 307 102 541>
VStem: 339 80<64 579>
LayerCount: 2
Back
Fore
SplineSet
738 487 m 1
 715 486 l 1
 694 568 617 627 536 627 c 2
 456 627 l 2
 431 627 419 598 419 577 c 2
 419 64 l 2
 419 45 435 27 454 27 c 2
 507 27 l 1
 507 0 l 1
 251 0 l 1
 251 27 l 1
 304 27 l 2
 322 27 339 47 339 64 c 2
 339 577 l 2
 339 600 328 627 302 627 c 2
 261 627 l 2
 171 627 88 582 69 486 c 1
 44 487 l 1
 102 661 l 1
 681 661 l 1
 738 487 l 1
EndSplineSet
EndChar

StartChar: U
Encoding: 85 85 54
Width: 643
Flags: W
HStem: -13 22<359 376> 634 27<40 95 40 296 463 521 463 676>
VStem: 128 80<162 599> 551 37<207 600>
LayerCount: 2
Back
Fore
SplineSet
676 634 m 1
 623 634 l 2
 604 634 588 616 588 597 c 2
 588 220 l 2
 588 104 486 -14 374 -13 c 0
 228 -11 128 20 128 181 c 2
 128 597 l 2
 128 614 111 634 93 634 c 2
 40 634 l 1
 40 661 l 1
 296 661 l 1
 296 634 l 1
 243 634 l 2
 224 634 208 616 208 597 c 2
 208 132 l 2
 208 54 288 9 371 9 c 0
 469 9 551 107 551 209 c 2
 551 597 l 2
 551 615 534 634 515 634 c 2
 463 634 l 1
 463 661 l 1
 676 661 l 1
 676 634 l 1
EndSplineSet
EndChar

StartChar: V
Encoding: 86 86 55
Width: 648
Flags: W
HStem: 0 21G<321 373> 633 28<41 58 41 253 472 694>
DStem2: 192 584 109 586 0.340196 -0.940354<0 543.457> 377 73 373 0 0.342038 0.939686<0 458.107>
LayerCount: 2
Back
Fore
SplineSet
694 633 m 1
 682 633 l 258
 629 633 576 556 559 511 c 1
 373 0 l 1
 321 0 l 1
 109 586 l 1
 100 612 83 633 54 633 c 258
 41 633 l 1
 41 661 l 1
 253 661 l 1
 253 633 l 1
 208 633 l 258
 179 633 186 602 192 584 c 1
 377 73 l 1
 535 503 l 2
 556 560 586 633 497 633 c 258
 472 633 l 1
 472 661 l 1
 694 661 l 1
 694 633 l 1
EndSplineSet
EndChar

StartChar: W
Encoding: 87 87 56
Width: 973
Flags: W
HStem: 0 21G<321 373 667 718> 633 28<41 58 41 257 386 410 386 599 817 844 817 1042>
DStem2: 196 584 109 586 0.340196 -0.940354<0 536.795> 378 79 373 0 0.329844 0.944036<0 363.374> 538 584 455 586 0.349077 -0.937094<0 122.246> 725 82 718 0 0.345537 0.938405<0 448.627>
LayerCount: 2
Back
Fore
SplineSet
1042 633 m 1
 1023 633 l 258
 962 633 927 567 908 516 c 2
 718 0 l 1
 667 0 l 1
 667 0 519 415 518 415 c 1
 373 0 l 1
 321 0 l 1
 109 586 l 1
 100 612 83 633 54 633 c 258
 41 633 l 1
 41 661 l 1
 257 661 l 1
 257 633 l 1
 212 633 l 258
 183 633 190 602 196 584 c 1
 378 79 l 1
 507 442 l 1
 455 586 l 2
 446 612 427 633 399 633 c 258
 386 633 l 1
 386 661 l 1
 599 661 l 1
 599 633 l 1
 561 633 l 258
 533 633 530 605 538 584 c 2
 725 82 l 1
 880 503 l 2
 894 542 907 633 842 633 c 258
 817 633 l 1
 817 661 l 1
 1042 661 l 1
 1042 633 l 1
EndSplineSet
EndChar

StartChar: X
Encoding: 88 88 57
Width: 641
Flags: W
HStem: 0 25<605 645> 0 28<30 252 411 645> 633 28<74 286 425 458 425 647> 636 25<74 103>
DStem2: 234 584 155 588 0.525356 -0.850883<0 236.371> 191 136 232 151 0.559776 0.828644<35.3805 214.557 300.106 444.885>
LayerCount: 2
Back
Fore
SplineSet
647 633 m 1x20
 626 633 l 2
 566 633 519 570 488 525 c 2
 376 360 l 1
 377 360 553 72 553 72 c 2
 560 60 594 25 609 25 c 2
 645 25 l 1
 645 0 l 1xa0
 411 0 l 1
 411 28 l 1
 456 28 l 2
 479 28 475 65 467 78 c 2
 333 299 l 1
 232 151 l 2
 211 120 162 28 227 28 c 2
 252 28 l 1
 252 0 l 1
 30 0 l 1
 30 28 l 1
 46 28 l 2
 107 28 160 90 191 136 c 2
 318 324 l 1
 155 588 l 2
 145 605 124 636 101 636 c 2
 74 636 l 1x50
 74 661 l 1
 286 661 l 1
 286 633 l 1
 241 633 l 2
 210 633 224 599 234 584 c 2
 360 384 l 1
 441 504 l 2
 462 534 515 633 450 633 c 2
 425 633 l 1
 425 661 l 1
 647 661 l 1
 647 633 l 1x20
EndSplineSet
EndChar

StartChar: Y
Encoding: 89 89 58
Width: 605
Flags: W
HStem: 0 27<183 439> 633 28<48 263 426 465 426 648>
VStem: 272 80<64 334>
DStem2: 209 584 123 588 0.505981 -0.862545<0 247.513> 341 357 352 337 0.588938 0.808178<0 179.463>
LayerCount: 2
Back
Fore
SplineSet
648 633 m 1
 613 633 l 2
 573 633 510 554 489 525 c 2
 352 337 l 1
 352 64 l 2
 352 46 367 27 386 27 c 2
 439 27 l 1
 439 0 l 1
 183 0 l 1
 183 27 l 1
 236 27 l 2
 254 27 272 46 272 64 c 2
 272 334 l 1
 123 588 l 2
 110 610 83 636 56 636 c 2
 48 636 l 1
 48 661 l 1
 263 661 l 1
 263 633 l 1
 234 633 l 2
 198 633 191 615 209 584 c 2
 341 357 l 1
 444 504 l 2
 462 529 530 633 452 633 c 2
 426 633 l 1
 426 661 l 1
 648 661 l 1
 648 633 l 1
EndSplineSet
EndChar

StartChar: Z
Encoding: 90 90 59
Width: 576
Flags: W
HStem: 0 28<155 507> 469 21G<69 94> 633 28<114 448>
DStem2: 49 21 155 28 0.546143 0.837692<63.755 730.579> 69 469 94 469 0.228191 0.973616<5.70478 53.4576>
LayerCount: 2
Back
Fore
SplineSet
566 206 m 1
 507 0 l 1
 49 0 l 1
 49 21 l 1
 448 633 l 1
 278 633 l 2
 212 633 126 581 107 515 c 2
 94 469 l 1
 69 469 l 1
 114 661 l 1
 546 661 l 1
 546 639 l 1
 155 28 l 1
 339 28 l 2
 415 28 490 90 522 157 c 2
 544 204 l 1
 566 206 l 1
EndSplineSet
EndChar

StartChar: bracketleft
Encoding: 91 91 60
Width: 271
Flags: W
HStem: -210 33<156 290> 637 33<75 290>
VStem: 75 81<-210 637>
LayerCount: 2
Back
Fore
SplineSet
290 -210 m 1
 75 -210 l 1
 75 670 l 1
 290 670 l 1
 290 637 l 1
 156 637 l 1
 156 -177 l 1
 290 -177 l 1
 290 -210 l 1
EndSplineSet
EndChar

StartChar: backslash
Encoding: 92 92 61
Width: 416
Flags: W
HStem: -19 21G<350 399>
DStem2: 87 581 38 581 0.461353 -0.887217<0 653.666>
LayerCount: 2
Back
Fore
SplineSet
399 -19 m 1
 350 -19 l 1
 38 581 l 1
 87 581 l 1
 399 -19 l 1
EndSplineSet
EndChar

StartChar: bracketright
Encoding: 93 93 62
Width: 344
Flags: W
HStem: -210 33<74 289> 637 33<74 203>
VStem: 203 86<-177 670>
LayerCount: 2
Back
Fore
SplineSet
289 -210 m 1
 74 -210 l 1
 74 -177 l 1
 203 -177 l 1
 203 637 l 1
 74 637 l 1
 74 670 l 1
 289 670 l 1
 289 -210 l 1
EndSplineSet
EndChar

StartChar: asciicircum
Encoding: 94 94 63
Width: 388
Flags: W
HStem: 454 20G<191 202>
LayerCount: 2
Back
Fore
SplineSet
352 368 m 1
 312 368 l 1
 202 474 l 1
 191 474 l 1
 82 368 l 1
 38 368 l 1
 183 555 l 1
 208 555 l 1
 352 368 l 1
EndSplineSet
EndChar

StartChar: underscore
Encoding: 95 95 64
Width: 462
Flags: W
HStem: -210 50<0 495>
LayerCount: 2
Back
Fore
SplineSet
495 -210 m 1
 0 -210 l 1
 0 -160 l 1
 495 -160 l 1
 495 -210 l 1
EndSplineSet
EndChar

StartChar: grave
Encoding: 96 96 65
Width: 207
Flags: W
LayerCount: 2
Back
Fore
SplineSet
222 628 m 1
 182 628 l 1
 54 737 l 1
 137 737 l 1
 222 628 l 1
EndSplineSet
EndChar

StartChar: a
Encoding: 97 97 66
Width: 497
Flags: W
HStem: -9 43<172.545 260.061> 452 20G<205.988 314>
VStem: 313 81<72.1204 250 267.82 421.298>
LayerCount: 2
Back
Fore
SplineSet
464 43 m 2
 464 13 428.061027429 -6.58694190477 402 -9 c 0
 348 -14 316 18 313 72 c 1
 292 33 249 -9 203 -9 c 0
 118 -9 62.0453889204 25.9982674977 65 104 c 0
 70 236 235 223 313 280 c 1
 313 382 l 2
 313 443.416116263 201.235593783 459.945892415 178 424 c 0
 160.029147932 396.198760183 160 375 179 354 c 0
 179 354 158.537436024 297.826123639 124 309 c 0
 56 331 110.976317265 472 301 472 c 0
 327 472 394 456 394 389 c 2
 394 73 l 2
 394 54 405.009571256 32.8240924268 425 34 c 0
 442 35 458 61 464 76 c 1
 464 43 l 2
313 117 m 1
 313 250 l 1
 261 226 156.365678348 214.334007197 146 134 c 0
 138 72 170.51048973 35.4429434152 234 34 c 0
 278 33 304 91 313 117 c 1
EndSplineSet
EndChar

StartChar: b
Encoding: 98 98 67
Width: 519
Flags: W
VStem: 70 81<-9 344 -9 683> 398 95<230 264>
LayerCount: 2
Back
Fore
SplineSet
493 243 m 0
 496 109 372 -7 272 -9 c 0
 223 -10 167 3 134 32 c 0
 135 32 70 -9 70 -9 c 1
 70 594 l 1
 25 603 l 1
 25 619 l 1
 151 683 l 1
 151 428 l 1
 182 456 223 470 272 472 c 0
 394 476 490 411 493 243 c 0
398 239 m 0
 398 399 297 454 264 449 c 0
 174 436 151 386 151 322 c 2
 151 120 l 1
 160 58 190 10 272 12 c 0
 351 14 398 123 398 239 c 0
EndSplineSet
EndChar

StartChar: c
Encoding: 99 99 68
Width: 454
Flags: W
HStem: -9 62<194.644 328.57> 450 22<221.043 313.407>
VStem: 37 86<139.5 327.806>
LayerCount: 2
Back
Fore
SplineSet
410 107 m 1
 383 45 326 -9 255 -9 c 0
 117 -9 37 108 37 226 c 0
 37 365 149 472 272 472 c 0
 410 472 440 327 363 315 c 4
 324.422077522 308.987856237 290.542299241 347.470173293 313 398 c 0
 318.418562978 410.1917667 323 418 331 428 c 1
 310 449 301.002361403 449.071004287 272 450 c 0
 178.342857143 453 126.390736862 360.993680291 123 276 c 0
 118.731343284 169 149.684931826 58.1315471253 266 53 c 0
 334 50 380 102 410 157 c 1
 410 107 l 1
EndSplineSet
EndChar

StartChar: d
Encoding: 100 100 69
Width: 520
Flags: W
HStem: 451 21<246.674 278>
VStem: 379 81<123 680>
LayerCount: 2
Back
Fore
SplineSet
483 45 m 1
 379 -9 l 1
 379 21 l 1
 346 1 303 -8 261 -9 c 0
 140 -13 41 70 37 228 c 0
 33 368 138 471 261 472 c 0
 308 473 348 459 379 432 c 1
 379 592 l 1
 331 602 l 1
 334 621 l 1
 460 680 l 1
 460 79 l 1
 483 69 l 1
 483 45 l 1
379 124 m 1
 379 295 l 2
 379 422 358 451 261 451 c 0
 163 450 138 336 135 239 c 0
 133 135 160 2 263 11 c 0
 339 17 369 48 379 124 c 1
EndSplineSet
EndChar

StartChar: e
Encoding: 101 101 70
Width: 448
Flags: W
HStem: -9 64<180.379 327.82> 290 28<120 348> 456 16<215.939 284.329>
VStem: 348 79<318 381.398>
LayerCount: 2
Back
Fore
SplineSet
427 290 m 1
 113 290 l 1
 110 281 l 4
 84 147 169.380952381 55 239 55 c 0
 318 55 386 91.54 423 181 c 1
 423 112 l 1
 393 38.4509803922 314 -9 246 -9 c 0
 127 -9 24.553964072 79.9804311428 30 242 c 0
 34 361 126 472 252 472 c 0
 347 472 427 401 427 290 c 1
348 318 m 1
 348 376 320 456 252 456 c 0
 187 456 136.761904762 392 120 318 c 1
 348 318 l 1
EndSplineSet
EndChar

StartChar: f
Encoding: 102 102 71
Width: 251
Flags: W
HStem: 0 21<13 234> 411 22<38 83 164 217> 665 21G<179 231>
VStem: 83 81<48 411 433 619> 213 86<615 628>
LayerCount: 2
Back
Fore
SplineSet
299 615 m 0
 300 566 213 563 213 628 c 0
 213 636 215 642 219 649 c 1
 196 658 164 648 164 619 c 2
 164 433 l 1
 217 433 l 1
 217 411 l 1
 164 411 l 1
 164 48 l 2
 164 35 175 21 189 21 c 2
 234 21 l 1
 234 0 l 1
 13 0 l 1
 13 21 l 1
 57 21 l 2
 70 21 83 35 83 48 c 2
 83 411 l 1
 38 411 l 1
 38 433 l 1
 83 433 l 1
 83 570 l 2
 83 624 152 665 206 665 c 0
 256 665 298 647 299 615 c 0
EndSplineSet
EndChar

StartChar: g
Encoding: 103 103 72
Width: 458
Flags: W
HStem: -212 25<231 247> 158 18<218 220> 453 13<218 220>
VStem: 22 57<-98.4125 -80> 56 62<106 131> 335 97<440 468> 380 64<-82 -48>
LayerCount: 2
Back
Fore
SplineSet
444 -48 m 0xea
 444 -154 344 -212 231 -212 c 0
 137 -212 20 -181 22 -85 c 0xf2
 23 -39 82 14 123 32 c 1
 85 45 56 77 56 106 c 0
 56 151 108 167 155 172 c 1
 24 200 7 466 218 466 c 0
 282 466 311 446 335 419 c 1
 335 440 l 2
 335 445 336 450 336 456 c 0
 335 530 432 517 432 461 c 0xec
 432 423 399 403 368 413 c 0
 356 417 355 415 348 426 c 1
 348 426 348 402 348 401 c 0
 400 318 377 158 218 158 c 0
 212 158 206 158 200 159 c 1
 161 156 118 158 118 131 c 0
 118 77 444 88 444 -48 c 0xea
218 176 m 0
 322 176 322 453 218 453 c 0
 113 453 111 176 218 176 c 0
380 -82 m 0
 380 -21 244 -1 147 26 c 1
 108 -2 78 -33 79 -85 c 0
 80 -161 156 -187 231 -187 c 0
 308 -187 380 -159 380 -82 c 0
EndSplineSet
EndChar

StartChar: h
Encoding: 104 104 73
Width: 524
Flags: W
HStem: 0 21<28 249 317 538>
VStem: 98 81<48 371 48 665> 387 81<48 373>
LayerCount: 2
Back
Fore
SplineSet
538 0 m 1
 317 0 l 1
 317 21 l 1
 362 21 l 2
 375 21 387 35 387 48 c 2
 387 362 l 2
 387 405 350 443 307 441 c 0
 258 439 205 400 179 370 c 1
 179 48 l 2
 179 35 190 21 204 21 c 2
 249 21 l 1
 249 0 l 1
 28 0 l 1
 28 21 l 1
 72 21 l 2
 85 21 98 35 98 48 c 2
 98 564 l 1
 43 580 l 1
 43 598 l 1
 179 665 l 1
 179 402 l 1
 210 435 266 469 321 472 c 0
 376 476 468 458 468 392 c 2
 468 48 l 2
 468 36 480 21 493 21 c 2
 538 21 l 1
 538 0 l 1
EndSplineSet
EndChar

StartChar: i
Encoding: 105 105 74
Width: 239
Flags: W
HStem: 0 21<31 253>
VStem: 102 80<48 374>
LayerCount: 2
Back
Fore
SplineSet
176 583 m 0
 176 531 97 531 97 583 c 0
 97 636 176 636 176 583 c 0
253 0 m 1
 31 0 l 1
 31 21 l 1
 76 21 l 2
 89 21 102 35 102 48 c 2
 102 374 l 1
 49 392 l 1
 49 407 l 1
 182 474 l 1
 182 48 l 2
 182 35 195 21 208 21 c 2
 253 21 l 1
 253 0 l 1
EndSplineSet
EndChar

StartChar: j
Encoding: 106 106 75
Width: 254
Flags: W
HStem: -148 16<54 71>
VStem: 117 81<-69 390>
LayerCount: 2
Back
Fore
SplineSet
188 583 m 0
 188 528 105 528 105 583 c 0
 105 639 188 639 188 583 c 0
198 -35 m 2
 198 -106 126 -148 71 -148 c 0
 -29 -148 -6 -46 45 -45 c 0
 79 -44 101 -94 73 -117 c 0
 66 -123 62 -128 54 -132 c 1
 65 -132 77 -130 87 -125 c 0
 109 -113 117 -94 117 -69 c 2
 117 390 l 1
 77 403 l 1
 77 417 l 1
 198 474 l 1
 198 -35 l 2
EndSplineSet
EndChar

StartChar: k
Encoding: 107 107 76
Width: 566
Flags: W
HStem: 0 22<28 249 316 546> 444 19<276 311 517.833 526>
VStem: 98 81<49 195 49 670>
DStem2: 306 297 240 244 0.533868 -0.845568<9.57978 247.118>
LayerCount: 2
Back
Fore
SplineSet
546 0 m 1
 316 0 l 1
 316 22 l 1
 361 22 l 258
 376 22 369 35 365 42 c 2
 240 244 l 1
 179 194 l 1
 179 49 l 2
 179 36 190 22 204 22 c 2
 249 22 l 1
 249 0 l 1
 28 0 l 1
 28 22 l 1
 72 22 l 2
 85 22 98 36 98 49 c 2
 98 569 l 1
 43 584 l 1
 43 603 l 1
 179 670 l 1
 179 217 l 1
 309 340 l 2
 350 379 354 444 305 444 c 2
 276 444 l 1
 276 463 l 1
 526 463 l 1
 526 444 l 1
 477 438 443 418 407 386 c 2
 306 297 l 1
 467 42 l 1
 471 32 489 22 500 22 c 258
 546 22 l 1
 546 0 l 1
EndSplineSet
EndChar

StartChar: l
Encoding: 108 108 77
Width: 239
Flags: W
HStem: 0 21<31 252>
VStem: 101 81<48 569>
LayerCount: 2
Back
Fore
SplineSet
252 0 m 1
 31 0 l 1
 31 21 l 1
 76 21 l 2
 89 21 101 36 101 48 c 2
 101 569 l 1
 46 584 l 1
 46 603 l 1
 182 670 l 1
 182 48 l 2
 182 35 194 21 207 21 c 2
 252 21 l 1
 252 0 l 1
EndSplineSet
EndChar

StartChar: m
Encoding: 109 109 78
Width: 820
Flags: W
HStem: 0 21<28 249 317 538 604 827>
VStem: 98 81<48 373> 387 81<48 375> 674 83<48 375>
LayerCount: 2
Back
Fore
SplineSet
827 0 m 1
 604 0 l 1
 604 21 l 1
 648 21 l 2
 661 21 674 35 674 48 c 2
 674 363 l 2
 674 406 637 444 594 442 c 0
 547 440 496 403 468 374 c 1
 468 48 l 2
 468 36 480 21 493 21 c 2
 538 21 l 1
 538 0 l 1
 317 0 l 1
 317 21 l 1
 362 21 l 2
 375 21 387 35 387 48 c 2
 387 363 l 2
 387 406 350 444 307 442 c 0
 258 440 206 402 179 373 c 1
 179 48 l 2
 179 35 192 21 205 21 c 2
 249 21 l 1
 249 0 l 1
 28 0 l 1
 28 21 l 1
 73 21 l 2
 87 21 98 35 98 48 c 2
 98 373 l 1
 44 388 l 1
 44 407 l 1
 179 474 l 1
 179 403 l 1
 211 435 266 468 321 472 c 0
 374 475 463 464 468 404 c 1
 500 436 554 469 608 472 c 0
 663 476 757 463 757 397 c 2
 757 48 l 2
 757 35 769 21 782 21 c 2
 827 21 l 1
 827 0 l 1
EndSplineSet
EndChar

StartChar: n
Encoding: 110 110 79
Width: 531
Flags: W
HStem: 0 21<28 249 317 538>
VStem: 98 81<48 373> 387 81<48 375>
LayerCount: 2
Back
Fore
SplineSet
538 0 m 1
 317 0 l 1
 317 21 l 1
 362 21 l 2
 375 21 387 35 387 48 c 2
 387 363 l 2
 387 406 350 444 307 442 c 0
 258 440 206 402 179 373 c 1
 179 48 l 2
 179 35 192 21 205 21 c 2
 249 21 l 1
 249 0 l 1
 28 0 l 1
 28 21 l 1
 73 21 l 2
 87 21 98 35 98 48 c 2
 98 373 l 1
 44 388 l 1
 44 407 l 1
 179 474 l 1
 179 403 l 1
 211 435 266 469 321 472 c 0
 376 476 468 463 468 397 c 2
 468 48 l 2
 468 36 480 21 493 21 c 2
 538 21 l 1
 538 0 l 1
EndSplineSet
EndChar

StartChar: o
Encoding: 111 111 80
Width: 534
Flags: W
HStem: -9 15<250 254> 455 17<250 254>
LayerCount: 2
Back
Fore
SplineSet
250 -9 m 0
 -45 -9 -44 472 250 472 c 0
 547 472 547 -9 250 -9 c 0
250 6 m 0
 425 6 425 455 250 455 c 0
 74 455 74 6 250 6 c 0
EndSplineSet
EndChar

StartChar: p
Encoding: 112 112 81
Width: 571
Flags: W
HStem: -147 21<34 255> -9 20<280.708 305>
VStem: 104 81<-99 28 -99 350> 431 95<220 254>
LayerCount: 2
Back
Fore
SplineSet
526 243 m 0
 529 109 405 -7 305 -9 c 0
 259 -10 217 2 185 28 c 1
 185 -99 l 2
 185 -112 197 -126 210 -126 c 2
 255 -126 l 1
 255 -147 l 1
 34 -147 l 1
 34 -126 l 1
 79 -126 l 2
 92 -126 104 -111 104 -99 c 2
 104 363 l 1
 61 386 l 1
 61 405 l 1
 185 465 l 1
 185 424 l 1
 221 453 258 470 305 472 c 0
 427 476 523 412 526 243 c 0
431 239 m 0
 431 399 331 456 298 451 c 0
 212 439 185 391 185 331 c 2
 185 116 l 1
 195 55 225 9 305 11 c 0
 384 13 431 123 431 239 c 0
EndSplineSet
EndChar

StartChar: q
Encoding: 113 113 82
Width: 523
Flags: W
HStem: -165 21<469 516> 451 21<233.667 265>
VStem: 24 98<228 252> 365 81<-165 21 115 332>
LayerCount: 2
Back
Fore
SplineSet
516 -165 m 1
 365 -165 l 1
 365 -165 365 -61 365 21 c 1
 333 1 290 -8 248 -9 c 0
 127 -13 28 89 24 228 c 0
 21 350 125 471 248 472 c 0
 296 473 353 458 385 429 c 1
 446 474 l 1
 446 -117 l 2
 446 -130 457 -144 471 -144 c 2
 516 -144 l 1
 516 -165 l 1
365 115 m 0
 365 116 365 310 365 310 c 2
 365 425 342 451 248 451 c 0
 150 450 124 336 122 239 c 0
 119 135 147 3 250 12 c 0
 324 18 355 43 365 115 c 0
EndSplineSet
EndChar

StartChar: r
Encoding: 114 114 83
Width: 376
Flags: W
HStem: 0 21<22 243>
VStem: 92 81<48 374>
LayerCount: 2
Back
Fore
SplineSet
361 443 m 0
 363 419 345 385 301 388 c 0
 279 389 265 396 251 415 c 0
 247 419 251 423 252 427 c 1
 221 420 193 398 173 374 c 1
 173 48 l 2
 173 36 185 21 198 21 c 2
 243 21 l 1
 243 0 l 1
 22 0 l 1
 22 21 l 1
 67 21 l 2
 80 21 92 35 92 48 c 2
 92 387 l 1
 52 403 l 1
 52 412 l 1
 173 469 l 1
 173 402 l 1
 199 431 270 472 307 473 c 0
 331 474 358 473 361 443 c 0
EndSplineSet
EndChar

StartChar: s
Encoding: 115 115 84
Width: 377
Flags: W
VStem: 278 63<100 119>
LayerCount: 2
Back
Fore
SplineSet
341 119 m 0
 341 43 262 -2 188 -9 c 0
 146 -13 92 9 52 26 c 1
 52 136 l 1
 59 139 l 1
 67 77 126 0 195 12 c 0
 242 20 279 52 278 100 c 0
 276 193 41 176 39 347 c 0
 38 420 118 467 195 472 c 0
 236 475 283 457 321 440 c 1
 321 330 l 1
 315 327 l 1
 305 383 266 449 202 449 c 0
 155 449 107 429 104 383 c 0
 97 276 341 294 341 119 c 0
EndSplineSet
EndChar

StartChar: t
Encoding: 116 116 85
Width: 299
Flags: W
HStem: -9 21G<145.5 197.5> 406 50<165 233>
VStem: 84 81<62 406>
LayerCount: 2
Back
Fore
SplineSet
266 64 m 1
 268 42 227 -9 168 -9 c 0
 123 -9 84 35 84 73 c 2
 84 406 l 1
 28 406 l 1
 28 435 l 1
 134 560 l 1
 165 546 l 1
 165 456 l 1
 252 456 l 1
 233 406 l 1
 165 406 l 1
 165 65 l 2
 165 48 185 35 202 36 c 0
 233 39 266 67 264 83 c 1
 266 64 l 1
EndSplineSet
EndChar

StartChar: u
Encoding: 117 117 86
Width: 544
Flags: W
HStem: -9 21G<209 269.5> 442 21<15 64 318 368>
VStem: 85 81<95 417> 388 81<98 463>
LayerCount: 2
Back
Fore
SplineSet
527 61 m 1
 388 -9 l 1
 388 65 l 1
 358 28 303 -9 236 -9 c 0
 182 -9 85 -23 85 116 c 2
 85 415 l 2
 85 427 73 442 60 442 c 2
 15 442 l 1
 15 463 l 1
 166 463 l 1
 166 111 l 2
 166 53 205 24 251 27 c 0
 306 30 360 67 388 99 c 1
 388 415 l 2
 388 427 376 442 363 442 c 2
 318 442 l 1
 318 463 l 1
 469 463 l 1
 469 97 l 1
 527 81 l 1
 527 61 l 1
EndSplineSet
EndChar

StartChar: v
Encoding: 118 118 87
Width: 473
Flags: W
HStem: 442 21<24 52 24 200 313 345 313 489>
DStem2: 154 412 81 418 0.305111 -0.952317<0 351.941> 265 78 260 0 0.339231 0.940703<0 296.04>
LayerCount: 2
Back
Fore
SplineSet
490 442 m 1
 463 442 l 258
 437 442 409 414 401 391 c 2
 260 0 l 1
 213 6 l 1
 81 418 l 2
 78 428 61 442 50 442 c 258
 24 442 l 1
 24 463 l 1
 200 463 l 1
 200 442 l 1
 172 442 l 258
 156 442 149 426 154 412 c 1
 265 78 l 1
 364 357 l 1
 373 384 383 442 337 442 c 258
 313 442 l 1
 313 463 l 1
 490 463 l 1
 490 442 l 1
EndSplineSet
EndChar

StartChar: w
Encoding: 119 119 88
Width: 675
Flags: W
HStem: 442 21<5 38 5 189 229 256 229 404 518 550 518 693>
DStem2: 142 412 61 418 0.307205 -0.951643<0 340.926> 245 87 241 0 0.370758 0.92873<0 190.133> 359 412 286 418 0.315375 -0.948967<0 107.895> 470 78 462 0 0.339231 0.940703<0 295.701>
LayerCount: 2
Back
Fore
SplineSet
693 442 m 1
 666 442 l 258
 639 442 612 415 603 391 c 2
 462 0 l 1
 418 6 l 1
 418 6 342 254 342 253 c 1
 241 0 l 1
 194 6 l 1
 61 418 l 2
 57 430 44 442 30 442 c 258
 5 442 l 1
 5 463 l 1
 189 463 l 1
 189 442 l 1
 160 442 l 258
 144 442 138 426 142 412 c 1
 245 87 l 1
 328 288 l 1
 286 418 l 2
 283 428 265 442 254 442 c 258
 229 442 l 1
 229 463 l 1
 404 463 l 1
 404 442 l 1
 377 442 l 258
 361 442 354 426 359 412 c 1
 470 78 l 1
 568 357 l 1
 578 384 589 442 541 442 c 258
 518 442 l 1
 518 463 l 1
 693 463 l 1
 693 442 l 1
EndSplineSet
EndChar

StartChar: x
Encoding: 120 120 89
Width: 501
Flags: W
HStem: -1 23<14 209 279 464> 0 21G<279 464> 442 21<47 79 47 242 286 319 286 459>
DStem2: 196 412 104 418 0.493239 -0.869894<0 145.12>
LayerCount: 2
Back
Fore
SplineSet
464 0 m 1x60
 279 0 l 1
 279 21 l 1
 303 21 l 2
 319 21 313 50 309 58 c 1
 309 58 226 202 226 201 c 2
 153 94 l 2
 131 61 155 21 194 21 c 2
 209 21 l 1x60
 209 -1 l 1
 14 -1 l 1
 14 22 l 1
 44 22 l 2xa0
 77 22 101 52 117 77 c 2
 117 77 215 224 214 224 c 1
 104 418 l 2
 98 429 86 442 72 442 c 258
 47 442 l 1
 47 463 l 1
 242 463 l 1
 242 442 l 1
 214 442 l 258
 199 442 189 425 196 412 c 2
 268 286 l 1
 269 286 324 366 324 366 c 2
 339 387 351 442 310 442 c 2
 286 442 l 1
 286 463 l 1
 459 463 l 1
 459 442 l 1
 433 442 l 2
 409 442 377 412 365 394 c 2
 279 266 l 1
 380 88 l 2
 390 71 419 21 443 21 c 2
 464 21 l 1
 464 0 l 1x60
EndSplineSet
EndChar

StartChar: y
Encoding: 121 121 90
Width: 485
Flags: W
HStem: -94 26<99 105> -94 101<80 103> 442 21<6 37 6 190 294 327 294 467>
DStem2: 144 412 63 418 0.286235 -0.958159<0 303.627> 164 -23 181 -39 0.431905 0.901919<0 48.7544 161.012 420.472>
LayerCount: 2
Back
Fore
SplineSet
467 442 m 1xa0
 448 442 l 258
 423 442 395 407 385 387 c 2
 181 -39 l 2
 170 -62 134 -94 103 -94 c 0xa0
 19 -94 14 7 80 7 c 0x60
 125 7 131 -37 114 -57 c 0
 109 -63 106 -65 99 -68 c 1
 130 -68 151 -51 164 -23 c 2
 185 21 l 1
 181 23 l 1
 63 418 l 2
 60 429 43 442 31 442 c 258
 6 442 l 1
 6 463 l 1
 190 463 l 1
 190 442 l 1
 162 442 l 258
 145 442 140 426 144 412 c 1
 234 122 l 1
 344 357 l 2
 357 384 360 442 317 442 c 258
 294 442 l 1
 294 463 l 1
 467 463 l 1
 467 442 l 1xa0
EndSplineSet
EndChar

StartChar: z
Encoding: 122 122 91
Width: 409
Flags: W
HStem: -2 23<116 333> 442 21<70 282>
DStem2: 12 -2 116 21 0.519581 0.854421<73.6881 519.65>
LayerCount: 2
Back
Fore
SplineSet
389 463 m 1
 116 21 l 1
 228 21 l 2
 284 21 336 83 353 132 c 1
 371 125 l 1
 333 -2 l 1
 12 -2 l 1
 282 442 l 1
 161 442 l 2
 107 442 72 368 66 321 c 1
 47 331 l 1
 70 463 l 1
 389 463 l 1
EndSplineSet
EndChar

StartChar: braceleft
Encoding: 123 123 92
Width: 285
Flags: W
HStem: -213 39<268 305> 630 40<243 304>
VStem: 118 70<-91 140 330 505>
LayerCount: 2
Back
Fore
SplineSet
305 -213 m 1
 248 -213 l 2
 212 -213 188 -206 161 -182 c 0
 131 -156 118 -131 118 -91 c 2
 118 89 l 2
 118 131 124 169 90 193 c 0
 76 202 65 206 47 207 c 1
 47 243 l 1
 65 249 74 254 87 267 c 0
 121 298 118 335 118 380 c 2
 118 552 l 2
 118 590 132 615 161 639 c 0
 187 662 209 670 243 670 c 2
 305 670 l 1
 305 630 l 1
 263 630 l 2
 241 630 229 624 211 609 c 0
 179 581 188 547 188 505 c 2
 188 359 l 2
 188 320 190 292 166 262 c 0
 153 246 144 238 124 229 c 1
 142 226 153 220 166 208 c 0
 191 185 188 157 188 123 c 2
 188 -49 l 2
 188 -92 187 -128 221 -154 c 0
 237 -166 248 -172 268 -173 c 2
 305 -174 l 1
 305 -213 l 1
EndSplineSet
EndChar

StartChar: bar
Encoding: 124 124 93
Width: 167
Flags: W
HStem: -19 21G<47 112>
VStem: 47 65<-19 723>
LayerCount: 2
Back
Fore
SplineSet
112 -19 m 1
 47 -19 l 1
 47 723 l 1
 112 723 l 1
 112 -19 l 1
EndSplineSet
EndChar

StartChar: braceright
Encoding: 125 125 94
Width: 275
Flags: W
HStem: -213 39<32 69> 630 40<32 94>
VStem: 149 70<-91 140 330 505>
LayerCount: 2
Back
Fore
SplineSet
32 -213 m 1
 89 -213 l 2
 125 -213 149 -206 176 -182 c 0
 205 -156 219 -131 219 -91 c 2
 219 89 l 2
 219 131 212 169 247 193 c 0
 260 202 272 206 290 207 c 1
 290 243 l 1
 272 249 263 254 250 267 c 0
 216 298 219 335 219 380 c 2
 219 552 l 2
 219 590 204 615 176 639 c 0
 149 662 128 670 94 670 c 2
 32 670 l 1
 32 630 l 1
 74 630 l 2
 96 630 108 624 126 609 c 0
 158 581 149 547 149 505 c 2
 149 359 l 2
 149 320 147 292 171 262 c 0
 184 246 193 238 213 229 c 1
 195 226 184 220 171 208 c 0
 146 185 149 157 149 123 c 2
 149 -49 l 2
 149 -92 150 -128 116 -154 c 0
 100 -166 89 -172 69 -173 c 2
 32 -174 l 1
 32 -213 l 1
EndSplineSet
EndChar

StartChar: asciitilde
Encoding: 126 126 95
Width: 332
Flags: W
LayerCount: 2
Back
Fore
SplineSet
334 580 m 1
 337 529 304 473 254 474 c 0
 196 476 187 523 151 522 c 0
 114 521 93 509 71 477 c 1
 52 477 l 1
 53 535 104 587 155 588 c 0
 194 589 225 540 251 542 c 0
 284 544 300 553 320 580 c 1
 334 580 l 1
EndSplineSet
EndChar

StartChar: exclamdown
Encoding: 161 161 97
Width: 282
Flags: W
HStem: 483 159<99 122>
VStem: 102 20<424 434.956> 102 75<82 113.223 82 424>
LayerCount: 2
Back
Fore
SplineSet
99 -67 m 0xc0
 105 -79 118 -80 124 -67 c 0
 158 -2 177 21 177 82 c 0xa0
 177 217 122 289 122 424 c 0
 122 456 102 455 102 424 c 0
 102 289 47 217 47 82 c 0
 47 21 70 -5 99 -67 c 0xc0
37 563 m 0
 37 519 68 483 109 483 c 0
 151 483 187 519 187 563 c 0
 187 606 153 642 112 642 c 0
 70 642 37 606 37 563 c 0
EndSplineSet
EndChar

StartChar: cent
Encoding: 162 162 98
Width: 479
Flags: W
HStem: 0 78<207 248> 435 30<207 221>
VStem: 8 86<236 259>
DStem2: 230 468 259 466 0.159232 0.987241<2.64326 30.4134>
LayerCount: 2
Back
Fore
SplineSet
207 435 m 0
 138 435 94 341 94 259 c 0
 94 202 117 147 156 113 c 0
 161 108 174 105 176 116 c 0
 194 225 209 324 223 416 c 0
 223 422 217 435 207 435 c 0
371 153 m 0
 381 175 404 185 395 151 c 0
 372 60 301 0 207 0 c 0
 199 0 191 1 183 3 c 1
 178 -24 174 -50 169 -77 c 0
 167 -86 142 -91 146 -69 c 1
 159 9 l 1
 78 38 8 135 8 236 c 0
 8 294 51 397 128 432 c 0
 165 448 180 456 221 465 c 0
 222 465 229 468 230 468 c 1
 235 498 l 1
 238 518 268 518 264 497 c 1
 259 466 l 1
 291 461 336 446 367 415 c 0
 378 404 381 393 379 378 c 0
 376 358 361 341 340 341 c 0
 314 341 305 367 292 386 c 0
 285 397 279 411 270 413 c 0
 266 413 252 420 249 407 c 0
 232 304 217 204 200 102 c 0
 198 93 204 85 213 82 c 0
 224 80 236 78 248 78 c 0
 287 78 347 102 371 153 c 0
EndSplineSet
EndChar

StartChar: sterling
Encoding: 163 163 99
Width: 620
Flags: W
HStem: 0 41<400 451> 0 120<223 400> 88 32<218 243> 242 31<140 171 283 337>
VStem: 451 81<110 131>
LayerCount: 2
Back
Fore
SplineSet
218 88 m 0xb8
 207 88 197 87 186 86 c 1
 174 69 160 52 144 35 c 0
 126 16 106 0 87 0 c 0
 74 0 64 11 64 24 c 0
 64 63 107 75 144 94 c 0
 153 99 162 103 171 107 c 1
 180 135 187 172 196 215 c 0
 199 234 176 242 163 242 c 2
 140 242 l 2
 132 242 124 249 124 257 c 0
 124 266 133 273 140 273 c 2
 186 273 l 2
 206 273 209 284 211 295 c 0
 227 379 249 471 284 545 c 0
 303 585 318 610 356 633 c 0
 387 651 408 659 440 668 c 0
 449 671 468 669 483 662 c 0
 506 652 527 640 527 615 c 0
 527 596 512 579 493 579 c 0
 475 579 467 588 458 610 c 0
 446 640 403 653 379 625 c 0
 337 574 333 458 302 352 c 0
 295 329 289 307 282 286 c 0
 280 280 280 273 288 273 c 2
 330 273 l 2
 341 273 354 269 354 257 c 0
 354 246 340 242 327 242 c 2
 280 242 l 2
 269 242 265 236 262 227 c 0
 248 189 231 153 208 117 c 1
 219 119 230 120 243 120 c 0x58
 323 120 382 41 451 41 c 0
 468 41 488 48 488 70 c 0
 488 76 487 85 479 91 c 1
 463 100 451 112 451 131 c 0
 451 150 469 163 488 163 c 0
 514 163 532 137 532 110 c 0
 532 60 456 0 400 0 c 0
 319 0 269 88 218 88 c 0xb8
EndSplineSet
EndChar

StartChar: currency
Encoding: 164 164 100
Width: 544
Flags: W
HStem: 115 65<225 231> 450 65<225 231>
DStem2: 383 187 357 159 0.713684 -0.700468<1.05731 75.2937> 358 469 385 441 0.713938 0.700209<0 72.1215>
LayerCount: 2
Back
Fore
SplineSet
437 134 m 1
 409 106 l 1
 357 159 l 1
 324 132 280 115 225 115 c 0
 172 115 130 131 98 156 c 1
 49 106 l 1
 22 134 l 1
 22 134 71 183 70 183 c 0
 9 255 10 372 69 445 c 0
 69 446 22 492 22 492 c 1
 49 520 l 1
 96 472 l 1
 128 498 172 515 225 515 c 0
 281 515 326 498 358 469 c 1
 409 520 l 1
 437 492 l 1
 385 441 l 1
 439 369 439 259 383 187 c 1
 437 134 l 1
225 180 m 0
 405 180 405 450 225 450 c 0
 45 450 45 180 225 180 c 0
EndSplineSet
EndChar

StartChar: yen
Encoding: 165 165 101
Width: 647
Flags: W
HStem: 0 24<174 431> 331 38<28 262 365 548> 449 38<28 196 259 396 450 548> 636 25<39 255 419 452 419 639>
VStem: 262 82<61 331>
DStem2: 202 587 113 591 0.505932 -0.862573<0 72.0912 159.004 208.732> 422 487 450 487 0.59051 0.80703<16.5343 24.4077>
LayerCount: 2
Back
Fore
SplineSet
639 636 m 1
 604 636 l 2
 562 636 502 558 480 528 c 2
 450 487 l 1
 548 487 l 1
 548 449 l 1
 423 449 l 1
 365 369 l 1
 366 369 548 369 548 369 c 1
 548 331 l 1
 344 331 l 1
 344 61 l 2
 344 42 360 24 379 24 c 2
 431 24 l 1
 431 0 l 1
 174 0 l 1
 174 24 l 1
 227 24 l 2
 245 24 262 44 262 61 c 2
 262 331 l 1
 28 331 l 1
 28 369 l 1
 243 369 l 1
 196 449 l 1
 28 449 l 1
 28 487 l 1
 174 487 l 1
 113 591 l 2
 100 613 73 639 46 639 c 2
 39 639 l 1
 39 661 l 1
 255 661 l 1
 255 636 l 1
 227 636 l 2
 191 636 184 618 202 587 c 2
 259 487 l 1
 422 487 l 1
 436 507 l 2
 453 532 522 636 444 636 c 2
 419 636 l 1
 419 661 l 1
 639 661 l 1
 639 636 l 1
396 449 m 2
 281 449 l 1
 328 369 l 1
 342 369 l 1
 342 369 397 449 396 449 c 2
EndSplineSet
EndChar

StartChar: brokenbar
Encoding: 166 166 102
Width: 201
Flags: W
HStem: -19 21G<47 110>
VStem: 47 63<-19 331 398 723>
LayerCount: 2
Back
Fore
SplineSet
110 398 m 1
 47 398 l 1
 47 723 l 1
 110 723 l 1
 110 398 l 1
110 -19 m 1
 47 -19 l 1
 47 331 l 1
 110 331 l 1
 110 -19 l 1
EndSplineSet
EndChar

StartChar: section
Encoding: 167 167 103
Width: 359
Flags: W
LayerCount: 2
Back
Fore
SplineSet
324 613 m 0
 316 547 238 555 243 613 c 0
 244 629 250 643 272 643 c 0
 276 643 280 644 283 643 c 1
 280 659 276 672 259 678 c 0
 247 683 231 687 213 687 c 0
 162 688 136 650 129 600 c 0
 114 486 238 462 238 462 c 1
 313 423 320 274 209 236 c 1
 256 229 314 182 302 104 c 0
 293 45 244 18 226 12 c 0
 198 3 169 -4 119 4 c 0
 69 12 26 45 31 92 c 0
 39 161 117 147 113 92 c 0
 112 76 105 61 83 61 c 0
 79 61 76 61 71 61 c 1
 76 46 79 32 96 26 c 0
 108 21 124 17 142 17 c 0
 192 17 221 54 226 104 c 0
 235 187 188 224 109 246 c 1
 27 294 31 438 132 471 c 1
 94 485 40 523 53 601 c 0
 62 660 112 687 129 694 c 1
 157 702 187 708 237 700 c 0
 287 692 329 660 324 613 c 0
176 435 m 0
 99 436 78 280 166 273 c 0
 253 266 247 434 176 435 c 0
EndSplineSet
EndChar

StartChar: dieresis
Encoding: 168 168 104
Width: 0
Flags: W
LayerCount: 2
Back
Fore
SplineSet
258 525 m 0
 203 525 203 609 258 609 c 0
 314 609 314 525 258 525 c 0
86 525 m 0
 31 525 31 609 86 609 c 0
 142 609 142 525 86 525 c 0
EndSplineSet
EndChar

StartChar: copyright
Encoding: 169 169 105
Width: 539
Flags: W
HStem: 278 50<249 268> 383 11<242 308> 445 20G<339 343> 631 5<240 255> 674 49<252 268>
LayerCount: 2
Back
Fore
SplineSet
252 723 m 0
 549 721 546 275 249 278 c 0
 -48 280 -45 726 252 723 c 0
252 674 m 0
 21 676 18 330 249 328 c 0
 480 326 483 672 252 674 c 0
343 465 m 1
 327 380 l 1
 320 380 l 1
 320 383 320 385 318 388 c 0
 316 392 312 394 308 394 c 0
 286 394 270 377 246 376 c 0
 164 372 137 436 133 500 c 0
 130 560 171 637 251 636 c 0
 290 636 296 613 308 614 c 0
 312 615 313 618 317 620 c 1
 320 624 323 627 326 631 c 1
 330 631 l 1
 335 547 l 1
 329 547 l 1
 328 554 327 557 324 562 c 0
 309 598 287 631 250 631 c 0
 202 631 172 566 171 506 c 0
 170 450 190 383 242 383 c 0
 269 383 304 402 323 431 c 0
 331 443 335 450 339 465 c 1
 343 465 l 1
EndSplineSet
EndChar

StartChar: ordfeminine
Encoding: 170 170 106
Width: 317
Flags: W
HStem: 126 44<0 313> 197 33<106 128> 511 16<136 174>
VStem: 183 79<285 478>
LayerCount: 2
Back
Fore
SplineSet
311 236 m 2
 311 212 280 199 261 197 c 0
 223 193 185 216 183 254 c 1
 170 226 137 197 106 197 c 0
 49 197 1 220 3 275 c 0
 6 359 127 361 183 398 c 1
 183 472 l 2
 183 498 159 511 136 511 c 0
 106 511 102 499 81 494 c 1
 80 484 83 481 80 469 c 0
 74 445 61 417 38 417 c 0
 -1 418 53 528 174 527 c 0
 193 527 262 522 262 476 c 2
 262 252 l 2
 262 238 270 224 284 224 c 0
 295 224 308 244 311 254 c 1
 311 236 l 2
313 126 m 1
 0 126 l 1
 0 170 l 1
 313 170 l 1
 313 126 l 1
183 286 m 1
 183 375 l 1
 143 366 74 342 71 297 c 0
 68 251 93 230 128 230 c 0
 152 230 173 267 183 286 c 1
EndSplineSet
EndChar

StartChar: guillemotleft
Encoding: 171 171 107
Width: 827
Flags: W
DStem2: 38 350 123 338 0.887916 0.460005<69.9528 438.406> 123 322 38 312 0.876439 -0.481513<0 373.008> 321 350 406 338 0.887916 0.460005<69.9528 438.406> 406 322 321 312 0.876439 -0.481513<0 373.008>
LayerCount: 2
Back
Fore
SplineSet
38 312 m 1
 453 84 l 1
 453 148 l 1
 123 322 l 1
 123 338 l 1
 453 502 l 1
 453 565 l 1
 38 350 l 1
 38 312 l 1
321 312 m 1
 736 84 l 1
 736 148 l 1
 406 322 l 1
 406 338 l 1
 736 502 l 1
 736 565 l 1
 321 350 l 1
 321 312 l 1
EndSplineSet
EndChar

StartChar: logicalnot
Encoding: 172 172 108
Width: 638
Flags: W
HStem: 210 50<35 535>
VStem: 535 50<40 260>
LayerCount: 2
Back
Fore
SplineSet
585 40 m 1
 535 40 l 1
 535 210 l 1
 35 210 l 1
 35 260 l 1
 585 260 l 1
 585 40 l 1
EndSplineSet
EndChar

StartChar: uni00AD
Encoding: 173 173 109
Width: 340
Flags: W
HStem: 204 50<33 266>
LayerCount: 2
Back
Fore
SplineSet
266 204 m 1
 33 204 l 1
 33 254 l 1
 266 254 l 1
 266 204 l 1
EndSplineSet
EndChar

StartChar: registered
Encoding: 174 174 110
Width: 529
Flags: W
HStem: 278 50<251 274> 387 5<369 375> 387 8<149 247> 520 9<216 248> 618 9<149 170 207 256> 674 49<254 274>
VStem: 181 35<409 519 409 616>
DStem2: 282 520 248 520 0.498615 -0.866823<0 113.408>
LayerCount: 2
Back
Fore
SplineSet
254 723 m 0x9e
 551 721 548 275 251 278 c 0
 -46 280 -43 726 254 723 c 0x9e
254 674 m 0
 24 676 20 330 251 328 c 0
 482 326 485 672 254 674 c 0
375 387 m 1xde
 343 387 l 2xbe
 335 387 330 387 324 392 c 0xde
 318 397 316 401 313 407 c 2
 248 520 l 1
 216 520 l 1
 216 409 l 2
 216 405 217 402 220 399 c 0
 222 397 224 395 228 395 c 2
 247 395 l 1
 247 387 l 1
 149 387 l 1
 149 395 l 1
 168 395 l 2xbe
 172 395 175 397 177 399 c 0
 180 402 181 405 181 409 c 2
 181 604 l 2
 181 608 180 610 177 613 c 0
 175 616 172 618 168 618 c 2
 149 618 l 1
 149 627 l 1
 207 627 l 1
 271 627 l 2
 298 627 324 617 327 581 c 0
 330 541 310 524 282 520 c 1
 342 413 l 2
 346 405 357 398 359 397 c 1
 360 395 368 392 371 392 c 2
 375 392 l 1
 375 387 l 1xde
296 580 m 0
 296 604 274 616 252 616 c 2
 216 616 l 1
 216 529 l 1
 252 529 l 2
 282 529 296 544 296 580 c 0
EndSplineSet
EndChar

StartChar: macron
Encoding: 175 175 111
Width: 0
Flags: W
HStem: 585 49<35 250>
LayerCount: 2
Back
Fore
SplineSet
250 585 m 1
 35 585 l 1
 35 634 l 1
 250 634 l 1
 250 585 l 1
EndSplineSet
EndChar

StartChar: degree
Encoding: 176 176 112
Width: 222
Flags: W
HStem: 672 37<83 85>
LayerCount: 2
Back
Fore
SplineSet
83 709 m 0
 186 707 184 557 81 554 c 0
 -22 551 -19 710 83 709 c 0
83 672 m 0
 32 672 31 596 82 595 c 0
 133 595 133 671 83 672 c 0
EndSplineSet
EndChar

StartChar: plusminus
Encoding: 177 177 113
Width: 346
Flags: W
HStem: 193 43<33 323> 311 43<33 154 198 323>
VStem: 154 44<236 311 354 456>
LayerCount: 2
Back
Fore
SplineSet
323 193 m 1
 33 193 l 1
 33 236 l 1
 154 236 l 1
 154 311 l 1
 33 311 l 1
 33 354 l 1
 154 354 l 1
 154 456 l 1
 198 456 l 1
 198 354 l 1
 323 354 l 1
 323 311 l 1
 198 311 l 1
 198 236 l 1
 323 236 l 1
 323 193 l 1
EndSplineSet
EndChar

StartChar: twosuperior
Encoding: 178 178 114
Width: 272
Flags: W
HStem: 406 51<88 216>
VStem: 61 159<437 634>
LayerCount: 2
Back
Fore
SplineSet
227 476 m 1
 216 406 l 1
 61 406 l 1
 61 437 l 2
 61 506 163 545 167 626 c 0
 168 652 151 674 122 676 c 0
 91 678 70 651 64 623 c 1
 56 623 l 1
 59 666 91 697 135 697 c 0
 176 697 220 680 220 634 c 0
 220 553 121 518 97 479 c 0
 87 464 91 466 88 457 c 1
 213 457 l 1
 218 476 l 1
 227 476 l 1
EndSplineSet
EndChar

StartChar: threesuperior
Encoding: 179 179 115
Width: 267
Flags: W
HStem: 554 15<87 95>
LayerCount: 2
Back
Fore
SplineSet
168 476 m 0
 171 517 124 554 99 554 c 2
 87 554 l 1
 87 569 l 1
 95 570 98 571 105 575 c 0
 128 587 139 609 137 636 c 0
 133 684 53 677 53 633 c 1
 44 633 l 1
 44 674 83 694 120 692 c 0
 179 690 206 636 161 599 c 0
 155 595 153 591 146 588 c 1
 147 582 l 1
 150 580 150 577 153 576 c 0
 254 537 229 407 101 403 c 0
 70 402 40 426 42 457 c 0
 44 500 94 495 92 461 c 0
 91 445 83 438 67 439 c 1
 72 430 77 426 85 420 c 0
 105 404 165 424 168 476 c 0
EndSplineSet
EndChar

StartChar: acute
Encoding: 180 180 116
Width: 0
Flags: W
LayerCount: 2
Back
Fore
SplineSet
236 737 m 1
 108 628 l 1
 66 628 l 1
 151 737 l 1
 236 737 l 1
EndSplineSet
EndChar

StartChar: mu
Encoding: 181 181 117
Width: 671
Flags: W
HStem: -2 24<252 258>
DStem2: 33 -109 169 194 0.150642 0.988588<320.03 531.06 13.7084 199.676> 349 96 437 117 0.161967 0.986796<34.9758 333.402>
LayerCount: 2
Back
Fore
SplineSet
617 150 m 1
 585 87 544 -16 453 2 c 0
 426 7 365 24 354 64 c 1
 327 27 301 -2 256 -2 c 0
 191 -2 166 46 151 75 c 1
 124 -109 l 2
 116 -163 29 -138 33 -109 c 1
 113 416 l 1
 121 470 210 473 200 406 c 1
 169 194 l 1
 168 143 l 1
 167 85 196 23 254 22 c 0
 299 21 333 57 349 96 c 1
 403 425 l 1
 411 476 493 463 485 416 c 1
 437 117 l 1
 432 87 456 67 483 55 c 0
 539 31 577 132 593 164 c 1
 617 150 l 1
EndSplineSet
EndChar

StartChar: paragraph
Encoding: 182 182 118
Width: 647
Flags: W
HStem: 626 35<171 457 171 580>
VStem: 306 75<-69 626> 457 76<-69 626>
LayerCount: 2
Back
Fore
SplineSet
580 626 m 1
 533 626 l 1
 533 -69 l 1
 457 -69 l 1
 457 626 l 1
 381 626 l 1
 381 -69 l 1
 306 -69 l 1
 306 354 l 1
 187 354 l 2
 90 354 -3 403 6 527 c 0
 13 624 88 661 171 661 c 2
 580 661 l 1
 580 626 l 1
EndSplineSet
EndChar

StartChar: periodcentered
Encoding: 183 183 119
Width: 217
Flags: W
LayerCount: 2
Back
Fore
SplineSet
147 302 m 0
 207 262 147 172 87 212 c 0
 28 252 87 343 147 302 c 0
EndSplineSet
EndChar

StartChar: cedilla
Encoding: 184 184 120
Width: 0
Flags: W
HStem: -72 47<247 259.05>
VStem: 208 39<-72 13>
LayerCount: 2
Back
Fore
SplineSet
367 -96 m 0
 371 -192 309 -210 228 -212 c 2
 176 -213 l 1
 176 -179 l 1
 233 -174 l 2
 269 -171 307 -161 307 -117 c 0
 307 -87 275 -72 246 -72 c 2
 208 -72 l 1
 208 3 l 1
 247 13 l 1
 247 -25 l 1
 275 -25 l 2
 320 -25 366 -56 367 -96 c 0
EndSplineSet
EndChar

StartChar: onesuperior
Encoding: 185 185 121
Width: 227
Flags: W
HStem: 406 10<98 211> 651 20G<114 134>
VStem: 134 40<429 671>
LayerCount: 2
Back
Fore
SplineSet
211 406 m 1
 98 406 l 1
 98 416 l 1
 122 416 l 2
 129 416 134 422 134 429 c 2
 134 671 l 1
 114 671 l 1
 114 680 l 1
 174 697 l 1
 174 429 l 2
 174 423 181 416 187 416 c 2
 211 416 l 1
 211 406 l 1
EndSplineSet
EndChar

StartChar: ordmasculine
Encoding: 186 186 122
Width: 390
Flags: W
HStem: 132 38<-6 323> 197 11<165 167> 522 12<165 167>
LayerCount: 2
Back
Fore
SplineSet
165 197 m 0
 -77 197 -69 534 165 534 c 0
 384 534 385 197 165 197 c 0
323 132 m 1
 -6 132 l 1
 -6 170 l 1
 323 170 l 1
 323 132 l 1
165 208 m 0
 287 208 287 522 165 522 c 0
 42 522 42 208 165 208 c 0
EndSplineSet
EndChar

StartChar: guillemotright
Encoding: 187 187 123
Width: 827
Flags: W
DStem2: 38 565 38 502 0.887916 -0.460005<28.9803 397.434> 38 148 38 84 0.876439 0.481513<0 373.008> 321 565 321 502 0.887916 -0.460005<28.9803 397.434> 321 148 321 84 0.876439 0.481513<0 373.008>
LayerCount: 2
Back
Fore
SplineSet
736 312 m 1
 321 84 l 1
 321 148 l 1
 651 322 l 1
 651 338 l 1
 321 502 l 1
 321 565 l 1
 736 350 l 1
 736 312 l 1
453 312 m 1
 38 84 l 1
 38 148 l 1
 368 322 l 1
 368 338 l 1
 38 502 l 1
 38 565 l 1
 453 350 l 1
 453 312 l 1
EndSplineSet
EndChar

StartChar: onequarter
Encoding: 188 188 124
Width: 437
Flags: W
HStem: 0 21G<116 146> 58 42<242 345 387 416> 406 10<37 150> 645 20G<211 246> 651 20G<53 73>
VStem: 73 40<429 671> 345 42<3 58 100 294>
DStem2: 116 0 146 0 0.148704 0.988882<4.46112 671.733> 184 58 242 100 0.591215 0.806514<68.1641 241.971>
LayerCount: 2
Back
Fore
SplineSet
150 406 m 1xee
 37 406 l 1
 37 416 l 1
 61 416 l 2
 68 416 73 423 73 429 c 2
 73 671 l 1
 53 671 l 1
 53 680 l 1
 113 697 l 1
 113 429 l 2
 113 423 120 416 126 416 c 2
 150 416 l 1
 150 406 l 1xee
416 58 m 1
 387 58 l 1
 387 3 l 1
 345 3 l 1
 345 58 l 1
 184 58 l 1
 357 294 l 1
 387 294 l 1
 387 100 l 1
 416 100 l 1
 416 58 l 1
345 100 m 1
 345 240 l 1
 242 100 l 1
 345 100 l 1
211 665 m 1xf6
 246 665 l 1
 146 0 l 1
 116 0 l 1
 211 665 l 1xf6
EndSplineSet
EndChar

StartChar: onehalf
Encoding: 189 189 125
Width: 385
Flags: W
HStem: 0 21G<119 149> 1 51<259 387> 406 10<34 147> 645 20G<214 249> 651 20G<50 70>
VStem: 70 40<429 671> 232 159<32 229>
DStem2: 119 0 149 0 0.148704 0.988882<4.46112 671.733>
LayerCount: 2
Back
Fore
SplineSet
147 406 m 1x2e
 34 406 l 1
 34 416 l 1
 58 416 l 2
 65 416 70 423 70 429 c 2
 70 671 l 1
 50 671 l 1
 50 680 l 1
 110 697 l 1
 110 429 l 2
 110 423 117 416 123 416 c 2
 147 416 l 1
 147 406 l 1x2e
399 71 m 1
 387 1 l 1
 232 1 l 1
 232 32 l 2
 232 100 335 140 339 220 c 0
 340 247 322 269 294 270 c 0
 262 272 241 246 236 218 c 1
 227 218 l 1
 230 260 263 291 306 291 c 0
 348 291 391 274 391 229 c 0
 391 148 292 112 269 74 c 0
 259 58 263 60 259 52 c 1
 385 52 l 1x66
 390 71 l 1
 399 71 l 1
214 665 m 1xb6
 249 665 l 1
 149 0 l 1
 119 0 l 1
 214 665 l 1xb6
EndSplineSet
EndChar

StartChar: threequarters
Encoding: 190 190 126
Width: 488
Flags: W
HStem: 0 21G<184 214> 58 42<318 421 463 492> 645 20G<279 314>
VStem: 421 42<3 58 100 294>
DStem2: 184 0 214 0 0.148704 0.988882<4.46112 671.733> 259 58 318 100 0.593432 0.804884<68.8176 242.031>
LayerCount: 2
Back
Fore
SplineSet
157 476 m 0
 159 517 113 554 87 554 c 2
 76 554 l 1
 76 569 l 1
 83 570 87 571 93 575 c 0
 117 587 128 609 126 636 c 0
 121 684 41 677 41 633 c 1
 33 633 l 1
 33 674 71 694 108 692 c 0
 167 690 195 636 149 599 c 0
 144 595 141 591 135 588 c 1
 136 582 l 1
 138 580 139 577 142 576 c 0
 242 537 218 407 89 403 c 0
 59 402 28 426 30 457 c 0
 33 500 82 495 81 461 c 0
 80 445 72 438 56 439 c 1
 61 430 65 426 74 420 c 1
 93 404 153 424 157 476 c 0
492 58 m 1
 463 58 l 1
 463 3 l 1
 421 3 l 1
 421 58 l 1
 259 58 l 1
 433 294 l 1
 463 294 l 1
 463 100 l 1
 492 100 l 1
 492 58 l 1
420 100 m 1
 420 240 l 1
 318 100 l 1
 420 100 l 1
279 665 m 1
 314 665 l 1
 214 0 l 1
 184 0 l 1
 279 665 l 1
EndSplineSet
EndChar

StartChar: questiondown
Encoding: 191 191 127
Width: 425
Flags: W
HStem: -34 111<265 308> 531 149<283 294>
VStem: 74 22<109 129>
LayerCount: 2
Back
Fore
SplineSet
354 606 m 0
 354 565 322 531 283 531 c 0
 243 531 211 565 211 606 c 0
 211 647 243 680 283 680 c 0
 322 680 354 647 354 606 c 0
248 329 m 0
 258 401 260 414 271 490 c 0
 274 510 292 509 294 489 c 0
 300 421 307 371 316 293 c 0
 319 265 328 227 302 222 c 0
 212 205 96 196 96 109 c 0
 96 58 142 34 187 34 c 0
 237 34 270 77 308 77 c 0
 334 77 353 56 353 32 c 0
 353 -11 308 -34 265 -34 c 0
 172 -34 74 31 74 129 c 0
 74 216 153 268 222 296 c 0
 237 302 246 312 248 329 c 0
EndSplineSet
EndChar

StartChar: Acircumflex
Encoding: 194 194 130
Width: 694
Flags: W
HStem: 0 28<37 270 494 721> 315 27<281 465>
DStem2: 138 86 281 342 0.387203 0.921995<291.401 543.397 38.8696 262.248> 419 686 465 315 0.336722 -0.941604<364.824 636.785>
LayerCount: 2
Back
Fore
SplineSet
721 0 m 1
 494 0 l 1
 494 28 l 1
 534 28 l 258
 549 28 559 44 554 58 c 2
 465 315 l 1
 270 315 l 1
 186 108 l 2
 173 75 196 28 233 28 c 258
 270 28 l 1
 270 0 l 1
 37 0 l 1
 37 28 l 1
 73 28 l 258
 102 28 128 62 138 86 c 2
 361 617 l 1
 351 647 l 1
 419 686 l 1
 640 68 l 2
 648 45 680 28 703 28 c 258
 721 28 l 1
 721 0 l 1
456 342 m 1
 377 575 l 1
 281 342 l 1
 456 342 l 1
516 649 m 1
 486 649 l 1
 404 728 l 1
 396 728 l 1
 314 649 l 1
 281 649 l 1
 390 788 l 1
 408 788 l 1
 516 649 l 1
EndSplineSet
EndChar

StartChar: Aring
Encoding: 197 197 133
Width: 694
Flags: W
HStem: 0 28<37 270 494 721> 315 27<281 465> 749 37<379 381>
DStem2: 138 86 281 342 0.387203 0.921995<291.401 543.397 38.8696 262.248> 431 653 465 315 0.336438 -0.941705<329.735 601.697>
LayerCount: 2
Back
Fore
SplineSet
721 0 m 1
 494 0 l 1
 494 28 l 1
 534 28 l 258
 549 28 559 44 554 58 c 2
 465 315 l 1
 270 315 l 1
 186 108 l 2
 173 75 196 28 233 28 c 258
 270 28 l 1
 270 0 l 1
 37 0 l 1
 37 28 l 1
 73 28 l 258
 102 28 128 62 138 86 c 2
 361 617 l 1
 355 634 l 1
 275 652 285 788 379 786 c 0
 459 785 476 695 431 653 c 1
 640 68 l 2
 648 45 680 28 703 28 c 258
 721 28 l 1
 721 0 l 1
379 749 m 0
 328 750 327 673 378 673 c 0
 429 672 429 749 379 749 c 0
456 342 m 1
 377 575 l 1
 281 342 l 1
 456 342 l 1
EndSplineSet
EndChar

StartChar: AE
Encoding: 198 198 134
Width: 888
Flags: W
HStem: 0 28<37 267 334 818> 0 33<532 818> 350 28<502 614> 352 20<297 422> 628 33<325 678> 634 27<325 379>
VStem: 422 80<64 350 372 580> 422 300<64 488> 701 21<234 488>
DStem2: 135 86 297 372 0.406757 0.913536<327.166 599.867 53.5319 306.048>
LayerCount: 2
Back
Fore
SplineSet
871 196 m 1x6a80
 818 0 l 1
 334 0 l 1
 334 27 l 1
 387 27 l 2
 405 27 422 47 422 64 c 2x8280
 422 352 l 1
 290 352 l 1
 188 121 l 2
 175 91 190 28 229 28 c 258
 267 28 l 1
 267 0 l 1
 37 0 l 1
 37 28 l 1
 75 28 l 258
 96 28 127 69 135 86 c 2
 379 634 l 1
 325 634 l 1x95
 325 661 l 1x09
 827 661 l 1x05
 871 461 l 1
 847 461 l 1
 834 491 l 2
 799 572 762 628 668 628 c 2
 540 628 l 2
 514 628 502 601 502 578 c 2
 502 378 l 1
 602 378 l 2
 650 378 701 420 701 470 c 2
 701 488 l 1x2a80
 722 488 l 1
 722 234 l 1x29
 701 234 l 1
 701 252 l 2
 701 302 651 350 602 350 c 2
 502 350 l 1
 502 83 l 2
 502 60 514 33 540 33 c 2
 668 33 l 2
 758 33 801 86 834 165 c 2
 847 196 l 1
 871 196 l 1x6a80
422 372 m 1x12
 422 597 l 2x11
 422 607 416 618 409 625 c 1
 297 372 l 1
 422 372 l 1x12
EndSplineSet
EndChar

StartChar: Ecircumflex
Encoding: 202 202 138
Width: 615
Flags: W
HStem: 0 27<22 506> 0 33<226 506> 350 28<190 295> 628 33<22 375> 634 27<22 77> 672 21G<180 207 350 375>
VStem: 110 80<64 350 64 580> 389 21<234 488>
LayerCount: 2
Back
Fore
SplineSet
558 196 m 1x77
 506 0 l 1
 22 0 l 1
 22 27 l 1
 75 27 l 2
 93 27 110 47 110 64 c 2
 110 597 l 2
 110 614 93 634 75 634 c 2
 22 634 l 1xaf
 22 661 l 1x37
 514 661 l 1x2f
 558 461 l 1
 535 461 l 1
 522 491 l 2
 489 567 445 628 356 628 c 2
 228 628 l 2
 202 628 190 601 190 578 c 2
 190 378 l 1
 290 378 l 2
 338 378 389 420 389 470 c 2
 389 488 l 1
 410 488 l 1
 410 234 l 1
 389 234 l 1
 389 252 l 2
 389 302 339 350 290 350 c 2
 190 350 l 1
 190 83 l 2
 190 60 202 33 228 33 c 2
 356 33 l 2
 440 33 491 91 522 165 c 2
 535 196 l 1
 558 196 l 1x77
375 672 m 1
 350 672 l 1
 282 738 l 1
 275 738 l 1
 207 672 l 1
 180 672 l 1
 270 788 l 1
 286 788 l 1
 375 672 l 1
EndSplineSet
EndChar

StartChar: Icircumflex
Encoding: 206 206 142
Width: 308
Flags: W
HStem: 0 27<45 300> 634 27<45 100 45 300>
VStem: 133 80<64 599>
LayerCount: 2
Back
Fore
SplineSet
300 0 m 1
 45 0 l 1
 45 27 l 1
 98 27 l 2
 116 27 133 47 133 64 c 2
 133 597 l 2
 133 614 116 634 98 634 c 2
 45 634 l 1
 45 661 l 1
 300 661 l 1
 300 634 l 1
 248 634 l 2
 229 634 213 616 213 597 c 2
 213 64 l 2
 213 45 229 27 248 27 c 2
 300 27 l 1
 300 0 l 1
277 676 m 1
 250 676 l 1
 177 740 l 1
 169 740 l 1
 97 676 l 1
 67 676 l 1
 164 788 l 1
 181 788 l 1
 277 676 l 1
EndSplineSet
EndChar

StartChar: Eth
Encoding: 208 208 144
Width: 704
Flags: W
HStem: 0 27<23 304> 0 33<226 328> 300 43<31 111 191 269> 628 33<23 376> 634 27<23 78>
VStem: 111 80<64 300 343 580>
LayerCount: 2
Back
Fore
SplineSet
669 347 m 0x2c
 670 172 516 0 304 0 c 2
 23 0 l 1
 23 27 l 1
 76 27 l 2
 94 27 111 47 111 64 c 2
 111 300 l 1
 31 300 l 1
 31 343 l 1
 111 343 l 1
 111 597 l 2
 111 614 94 634 76 634 c 2
 23 634 l 1xac
 23 661 l 1x34
 404 661 l 2
 598 661 668 484 669 347 c 0x2c
582 359 m 0
 573 493 505 628 371 628 c 2
 228 628 l 2
 203 628 191 599 191 578 c 2
 191 343 l 1
 269 343 l 1
 269 300 l 1
 191 300 l 1
 191 83 l 2
 191 62 203 33 228 33 c 2
 322 33 l 2x74
 485 33 592 196 582 359 c 0
EndSplineSet
EndChar

StartChar: Ocircumflex
Encoding: 212 212 148
Width: 734
Flags: W
HStem: -21 21<359 377> 650 21<343 377>
LayerCount: 2
Back
Fore
SplineSet
359 -21 m 0
 -87 -21 -87 671 358 671 c 0
 802 671 803 -21 359 -21 c 0
359 0 m 2
 358 0 l 2
 679 0 677 650 359 650 c 0
 41 650 43 0 359 0 c 2
466 676 m 1
 439 676 l 1
 365 740 l 1
 358 740 l 1
 285 676 l 1
 256 676 l 1
 353 788 l 1
 369 788 l 1
 466 676 l 1
EndSplineSet
EndChar

StartChar: multiply
Encoding: 215 215 151
Width: 311
Flags: W
DStem2: 74 387 39 352 0.716597 -0.697488<0 103.993 153.457 257.067> 39 206 74 171 0.711836 0.702345<0.33219 104.659 155.194 258.102>
LayerCount: 2
Back
Fore
SplineSet
258 207 m 1
 223 172 l 1
 149 245 l 1
 74 171 l 1
 39 206 l 1
 114 279 l 1
 39 352 l 1
 74 387 l 1
 149 314 l 1
 223 387 l 1
 258 352 l 1
 184 280 l 1
 258 207 l 1
EndSplineSet
EndChar

StartChar: Oslash
Encoding: 216 216 152
Width: 734
Flags: W
HStem: -21 21<343 377> 650 21<343 377>
DStem2: 91 -72 157 -72 0.462307 0.88672<30.5123 127.574 195.01 778.409 824.32 882.923>
LayerCount: 2
Back
Fore
SplineSet
565 711 m 1
 524 632 l 1
 793 485 738 -21 359 -21 c 0
 298 -21 246 -8 202 14 c 1
 157 -72 l 1
 91 -72 l 1
 152 45 l 1
 -71 218 -2 671 358 671 c 0
 399 671 436 665 470 655 c 1
 499 711 l 1
 565 711 l 1
503 591 m 1
 222 53 l 1
 258 20 303 0 358 0 c 0
 619 0 666 431 503 591 c 1
455 627 m 1
 427 642 395 650 359 650 c 0
 121 650 62 284 181 101 c 1
 455 627 l 1
EndSplineSet
EndChar

StartChar: Ucircumflex
Encoding: 219 219 155
Width: 643
Flags: W
HStem: -13 22<359 385> 634 27<40 95 40 296 463 521 463 676>
VStem: 128 80<162 599> 551 37<207 600>
LayerCount: 2
Back
Fore
SplineSet
676 634 m 1
 623 634 l 2
 604 634 588 616 588 597 c 2
 588 220 l 2
 588 104 486 -14 374 -13 c 0
 228 -11 128 20 128 181 c 2
 128 597 l 2
 128 614 111 634 93 634 c 2
 40 634 l 1
 40 661 l 1
 296 661 l 1
 296 634 l 1
 243 634 l 2
 224 634 208 616 208 597 c 2
 208 132 l 2
 208 54 288 9 371 9 c 0
 469 9 551 107 551 209 c 2
 551 597 l 2
 551 615 534 634 515 634 c 2
 463 634 l 1
 463 661 l 1
 676 661 l 1
 676 634 l 1
480 676 m 1
 453 676 l 1
 379 740 l 1
 372 740 l 1
 299 676 l 1
 270 676 l 1
 367 788 l 1
 383 788 l 1
 480 676 l 1
EndSplineSet
EndChar

StartChar: Thorn
Encoding: 222 222 158
Width: 547
Flags: W
HStem: -213 27<30 285> 121 31<198 345> 385 36<198 303> 635 27<30 85 30 285>
VStem: 118 80<-149 385 421 604>
LayerCount: 2
Back
Fore
SplineSet
507 294 m 0
 516 170 437 121 345 121 c 2
 198 121 l 1
 198 -149 l 2
 198 -168 214 -186 233 -186 c 2
 285 -186 l 1
 285 -213 l 1
 30 -213 l 1
 30 -186 l 1
 83 -186 l 2
 101 -186 118 -166 118 -149 c 0
 118 3 118 540 118 598 c 0
 118 615 101 635 83 635 c 2
 30 635 l 1
 30 662 l 1
 285 662 l 1
 285 635 l 1
 233 635 l 2
 214 635 198 617 198 598 c 2
 198 421 l 1
 360 421 l 2
 435 421 500 393 507 294 c 0
418 292 m 0
 418 355 359 385 298 385 c 2
 198 385 l 1
 198 152 l 1
 297 152 l 2
 379 152 419 192 418 292 c 0
EndSplineSet
EndChar

StartChar: germandbls
Encoding: 223 223 159
Width: 573
Flags: W
HStem: 0 21<21 172> 413 23<46 91> 647 22<253 286>
VStem: 21 151<0 570> 91 81<44 570>
LayerCount: 2
Back
Fore
SplineSet
435 143 m 0xe8
 440 225 372 299 292 299 c 1
 292 328 l 1
 363 343 404 402 402 474 c 0
 399 569 368 647 253 647 c 0
 210 647 172 613 172 570 c 2
 172 0 l 1
 21 0 l 1
 21 21 l 1xf0
 66 21 l 2
 79 21 91 35 91 48 c 2
 91 413 l 1
 46 413 l 1
 46 436 l 1
 91 436 l 1
 91 534 l 2
 91 639 180 668 286 669 c 0
 548 671 549 408 407 367 c 1
 408 354 l 1
 618 249 556 -2 319 -3 c 0
 257 -3 195 54 198 104 c 0
 204 204 308 185 305 113 c 0
 304 82 279 65 250 70 c 1
 259 49 269 39 287 25 c 0
 327 -6 429 39 435 143 c 0xe8
EndSplineSet
EndChar

StartChar: acircumflex
Encoding: 226 226 162
Width: 497
Flags: W
HStem: -9 43<203 234> 438 34<246 301> 646 20G<256 276>
VStem: 313 81<116 391>
LayerCount: 2
Back
Fore
SplineSet
394 513 m 1
 362 513 l 1
 271 600 l 1
 262 600 l 1
 173 513 l 1
 137 513 l 1
 256 666 l 1
 276 666 l 1
 394 513 l 1
464 43 m 2
 464 13 428 -6 402 -9 c 0
 348 -14 316 18 313 72 c 1
 292 33 249 -9 203 -9 c 0
 129 -9 62 26 65 104 c 0
 70 236 235 223 313 280 c 1
 313 382 l 2
 313 418 279 438 246 438 c 0
 224 438 198 436 178 424 c 1
 181 406 178 397 174 379 c 0
 166 346 157 309 124 309 c 0
 50 309 111 475 301 472 c 0
 327 472 394 456 394 389 c 2
 394 73 l 2
 394 54 405 33 425 34 c 0
 442 35 458 61 464 76 c 1
 464 43 l 2
313 117 m 1
 313 250 l 1
 261 226 152 212 146 134 c 0
 139 39 177 34 234 34 c 0
 271 34 298 88 313 117 c 1
EndSplineSet
EndChar

StartChar: aring
Encoding: 229 229 165
Width: 497
Flags: W
HStem: -9 43<203 234> 438 34<246 301> 630 29<275 277>
VStem: 313 81<116 391>
LayerCount: 2
Back
Fore
SplineSet
275 659 m 0
 373 657 371 515 273 512 c 0
 175 509 178 660 275 659 c 0
275 630 m 0
 218 631 217 545 274 545 c 0
 331 545 331 630 275 630 c 0
464 43 m 2
 464 13 428 -6 402 -9 c 0
 348 -14 316 18 313 72 c 1
 292 33 249 -9 203 -9 c 0
 129 -9 62 26 65 104 c 0
 70 236 235 223 313 280 c 1
 313 382 l 2
 313 418 279 438 246 438 c 0
 224 438 198 436 178 424 c 1
 181 406 178 397 174 379 c 0
 166 346 157 309 124 309 c 0
 50 309 111 475 301 472 c 0
 327 472 394 456 394 389 c 2
 394 73 l 2
 394 54 405 33 425 34 c 0
 442 35 458 61 464 76 c 1
 464 43 l 2
313 117 m 1
 313 250 l 1
 261 226 152 212 146 134 c 0
 139 39 177 34 234 34 c 0
 271 34 298 88 313 117 c 1
EndSplineSet
EndChar

StartChar: ae
Encoding: 230 230 166
Width: 661
Flags: W
HStem: -9 39<154 185> -9 85<420 447> 287 31<331 609> 453 19<445 454>
VStem: 241 82<214 250 246 268>
LayerCount: 2
Back
Fore
SplineSet
609 287 m 1xb8
 326 287 l 1
 324 273 323 261 323 246 c 0
 325 149 352 77 425 76 c 0
 507 75 556 79 597 157 c 1
 597 94 l 1
 564 27 506 -9 432 -9 c 0x78
 360 -9 304 24 272 87 c 1
 254 43 204 -9 154 -9 c 0
 80 -9 18 32 21 101 c 0
 26 222 178 245 241 265 c 1
 241 380 l 2
 241 417 208 436 174 436 c 0
 150 436 125 434 104 421 c 1
 107 403 106 393 102 375 c 0
 94 342 85 307 52 308 c 0
 -10 309 50 474 223 472 c 0
 248 472 294 459 302 406 c 1
 337 446 385 472 445 472 c 0
 537 472 620 378 609 287 c 1xb8
533 318 m 1
 535 371 508 453 445 453 c 0
 373 453 347 392 331 318 c 1
 533 318 l 1
260 114 m 1
 251 141 241 167 241 214 c 2
 241 250 l 1
 232 247 223 243 211 238 c 0
 159 214 110 191 107 134 c 0
 105 82 128 31 185 30 c 0xb8
 231 29 248 78 260 114 c 1
EndSplineSet
EndChar

StartChar: ecircumflex
Encoding: 234 234 170
Width: 448
Flags: W
HStem: -9 90<235 259> 290 28<126 427> 456 16<252 259> 646 20G<237 257>
VStem: 348 79<290 318>
LayerCount: 2
Back
Fore
SplineSet
375 513 m 1
 342 513 l 1
 252 600 l 1
 243 600 l 1
 154 513 l 1
 118 513 l 1
 237 666 l 1
 257 666 l 1
 375 513 l 1
427 290 m 1
 121 290 l 1
 119 276 113 261 113 246 c 0
 113 153 171 81 239 81 c 0
 318 81 386 110 423 181 c 1
 423 93 l 1
 393 31 314 -9 246 -9 c 0
 127 -9 24 80 30 242 c 0
 34 361 126 472 252 472 c 0
 347 472 427 401 427 290 c 1
348 318 m 1
 348 376 320 456 252 456 c 0
 179 456 142 392 126 318 c 1
 348 318 l 1
EndSplineSet
EndChar

StartChar: icircumflex
Encoding: 238 238 174
Width: 239
Flags: W
HStem: 0 21<31 253> 646 20G<122 143>
VStem: 102 80<48 374>
LayerCount: 2
Back
Fore
SplineSet
261 513 m 1
 228 513 l 1
 138 600 l 1
 129 600 l 1
 40 513 l 1
 4 513 l 1
 122 666 l 1
 143 666 l 1
 261 513 l 1
253 0 m 1
 31 0 l 1
 31 21 l 1
 76 21 l 2
 89 21 102 35 102 48 c 2
 102 374 l 1
 49 392 l 1
 49 407 l 1
 182 474 l 1
 182 48 l 2
 182 35 195 21 208 21 c 2
 253 21 l 1
 253 0 l 1
EndSplineSet
EndChar

StartChar: eth
Encoding: 240 240 176
Width: 465
Flags: W
HStem: 493 43<208 267 349 431>
LayerCount: 2
Back
Fore
SplineSet
431 493 m 1
 366 493 l 1
 397 388 383 252 353 167 c 0
 313 56 212 -1 132 3 c 0
 0 9 18 189 53 280 c 0
 85 362 236 482 302 395 c 1
 304 445 298 457 285 493 c 1
 282 493 207 493 207 493 c 1
 208 536 l 1
 267 536 l 1
 255 576 177 635 134 616 c 2
 110 605 l 1
 115 631 l 1
 148 641 l 2
 220 663 332 598 349 536 c 1
 431 536 l 1
 431 493 l 1
267 386 m 0
 164 413 51 51 127 35 c 0
 222 15 378 357 267 386 c 0
EndSplineSet
EndChar

StartChar: ocircumflex
Encoding: 244 244 180
Width: 493
Flags: W
HStem: -9 15<250 261> 455 17<250 261> 646 20G<239 259>
LayerCount: 2
Back
Fore
SplineSet
377 513 m 1
 345 513 l 1
 254 600 l 1
 245 600 l 1
 156 513 l 1
 120 513 l 1
 239 666 l 1
 259 666 l 1
 377 513 l 1
250 -9 m 0
 -45 -9 -44 472 250 472 c 0
 547 472 547 -9 250 -9 c 0
250 6 m 0
 425 6 425 455 250 455 c 0
 74 455 74 6 250 6 c 0
EndSplineSet
EndChar

StartChar: divide
Encoding: 247 247 183
Width: 364
Flags: W
HStem: 109 78<165.237 184> 257 39<33 312>
LayerCount: 2
Back
Fore
SplineSet
184 425 m 0
 236 422 232 344 180 347 c 0
 127 351 133 429 184 425 c 0
312 257 m 1
 33 257 l 1
 33 296 l 1
 312 296 l 1
 312 257 l 1
175 109 m 0
 123 109 123 187 175 187 c 0
 226 187 226 109 175 109 c 0
EndSplineSet
EndChar

StartChar: oslash
Encoding: 248 248 184
Width: 493
Flags: W
HStem: -9 15<250 254> 455 17<250 254>
DStem2: 53 -72 119 -72 0.463112 0.8863<30.5654 120.92 190.539 535.385 598.907 687.912>
LayerCount: 2
Back
Fore
SplineSet
437 538 m 1
 381 431 l 1
 538 315 494 -9 250 -9 c 0
 216 -9 187 -3 161 8 c 1
 119 -72 l 1
 53 -72 l 1
 111 39 l 1
 -33 160 13 472 250 472 c 0
 279 472 306 467 330 459 c 1
 371 538 l 1
 437 538 l 1
314 430 m 1
 296 446 275 455 250 455 c 0
 124 455 88 228 141 97 c 1
 314 430 l 1
352 376 m 1
 177 39 l 1
 196 18 220 6 250 6 c 0
 378 6 412 247 352 376 c 1
EndSplineSet
EndChar

StartChar: ucircumflex
Encoding: 251 251 187
Width: 544
Flags: W
HStem: -9 21G<209 269.5> 442 21<15 64 318 368> 646 20G<239 260>
VStem: 85 81<95 417> 388 81<98 463>
LayerCount: 2
Back
Fore
SplineSet
378 513 m 1
 345 513 l 1
 255 600 l 1
 246 600 l 1
 157 513 l 1
 121 513 l 1
 239 666 l 1
 260 666 l 1
 378 513 l 1
527 61 m 1
 388 -9 l 1
 388 65 l 1
 358 28 303 -9 236 -9 c 0
 182 -9 85 -23 85 116 c 2
 85 415 l 2
 85 427 73 442 60 442 c 2
 15 442 l 1
 15 463 l 1
 166 463 l 1
 166 111 l 2
 166 53 205 24 251 27 c 0
 306 30 360 67 388 99 c 1
 388 415 l 2
 388 427 376 442 363 442 c 2
 318 442 l 1
 318 463 l 1
 469 463 l 1
 469 97 l 1
 527 81 l 1
 527 61 l 1
EndSplineSet
EndChar

StartChar: thorn
Encoding: 254 254 190
Width: 561
Flags: W
HStem: -147 21<34 255> -9 20<292.189 316> 547 21<34 83 34 255>
VStem: 104 81<-99 28 -99 334 -99 526> 431 95<220 254>
LayerCount: 2
Back
Fore
SplineSet
526 243 m 0
 529 109 416 -7 316 -9 c 0
 270 -10 217 2 185 28 c 1
 185 -99 l 2
 185 -112 197 -126 210 -126 c 2
 255 -126 l 1
 255 -147 l 1
 34 -147 l 1
 34 -126 l 1
 79 -126 l 2
 92 -126 104 -111 104 -99 c 2
 104 520 l 2
 104 532 92 547 79 547 c 2
 34 547 l 1
 34 568 l 1
 255 568 l 1
 255 547 l 1
 210 547 l 2
 197 547 185 533 185 520 c 2
 185 424 l 1
 224 455 266 470 316 472 c 0
 438 476 523 412 526 243 c 0
431 239 m 0
 431 399 342 456 309 451 c 0
 223 439 185 388 185 328 c 2
 185 119 l 1
 195 58 236 9 316 11 c 0
 395 13 431 123 431 239 c 0
EndSplineSet
EndChar

StartChar: Cacute
Encoding: 262 262 198
Width: 582
Flags: W
HStem: 17 24<291 462> 649 20G<511 529> 665 14<302 322>
VStem: 17 89<301 351>
LayerCount: 2
Back
Fore
SplineSet
561 228 m 1xb0
 517 4 l 1
 494 4 l 1
 496 23 481 41 462 41 c 0
 407 40 365 0 304 -2 c 0
 76 -11 17 167 17 323 c 0
 17 476 96 681 315 679 c 0xb0
 417 678 433 621 463 625 c 0
 485 628 500 652 511 669 c 1
 529 669 l 1xd0
 540 446 l 1
 520 446 l 1
 495 540 422 665 312 665 c 0
 187 665 108 494 106 336 c 0
 104 192 156 17 291 17 c 0
 363 17 453 65 504 143 c 0
 524 174 534 193 544 228 c 1
 561 228 l 1xb0
383 786 m 1
 289 706 l 1
 258 706 l 1
 320 786 l 1
 383 786 l 1
EndSplineSet
EndChar

StartChar: cacute
Encoding: 263 263 199
Width: 454
Flags: W
HStem: -9 21G<186 290.5> 472 21G<210.5 341>
LayerCount: 2
Back
Fore
SplineSet
410 107 m 1
 383 45 326 -9 255 -9 c 0
 117 -9 37 108 37 226 c 0
 37 365 149 472 272 472 c 0
 410 472 447 313 363 308 c 0
 324 306 304 357 313 398 c 0
 316 411 323 418 331 428 c 1
 310 449 301 449 272 450 c 0
 184 453 135 361 132 276 c 0
 128 169 157 58 266 53 c 0
 334 50 380 102 410 157 c 1
 410 107 l 1
311 650 m 1
 217 570 l 1
 186 570 l 1
 248 650 l 1
 311 650 l 1
EndSplineSet
EndChar

StartChar: Ccircumflex
Encoding: 264 264 200
Width: 582
Flags: W
HStem: 17 24<291 462> 649 20G<511 529> 665 14<296 322>
VStem: 17 89<301 351>
LayerCount: 2
Back
Fore
SplineSet
561 228 m 1xb0
 517 4 l 1
 494 4 l 1
 496 23 481 41 462 41 c 0
 407 40 365 0 304 -2 c 0
 76 -11 17 167 17 323 c 0
 17 476 96 681 315 679 c 0xb0
 417 678 433 621 463 625 c 0
 485 628 500 652 511 669 c 1
 529 669 l 1xd0
 540 446 l 1
 520 446 l 1
 495 540 422 665 312 665 c 0
 187 665 108 494 106 336 c 0
 104 192 156 17 291 17 c 0
 363 17 453 65 504 143 c 0
 524 174 534 193 544 228 c 1
 561 228 l 1xb0
219 686 m 1
 240 686 l 1
 303 749 l 1
 309 749 l 1
 373 686 l 1
 391 686 l 1
 312 789 l 1
 298 789 l 1
 219 686 l 1
EndSplineSet
EndChar

StartChar: ccircumflex
Encoding: 265 265 201
Width: 454
Flags: W
HStem: -9 21G<186 290.5> 472 21G<210.5 341>
LayerCount: 2
Back
Fore
SplineSet
410 107 m 1
 383 45 326 -9 255 -9 c 0
 117 -9 37 108 37 226 c 0
 37 365 149 472 272 472 c 0
 410 472 447 313 363 308 c 0
 324 306 304 357 313 398 c 0
 316 411 323 418 331 428 c 1
 310 449 301 449 272 450 c 0
 184 453 135 361 132 276 c 0
 128 169 157 58 266 53 c 0
 334 50 380 102 410 157 c 1
 410 107 l 1
124 540 m 1
 154 540 l 1
 245 631 l 1
 254 631 l 1
 346 540 l 1
 373 540 l 1
 259 688 l 1
 239 688 l 1
 124 540 l 1
EndSplineSet
EndChar

StartChar: Dcroat
Encoding: 272 272 208
Width: 704
Flags: W
HStem: 0 27<23 304> 0 33<226 328> 300 43<31 111 191 269> 628 33<23 376> 634 27<23 78>
VStem: 111 80<64 300 343 580>
LayerCount: 2
Back
Fore
SplineSet
669 347 m 0x2c
 670 172 516 0 304 0 c 2
 23 0 l 1
 23 27 l 1
 76 27 l 2
 94 27 111 47 111 64 c 2
 111 300 l 1
 31 300 l 1
 31 343 l 1
 111 343 l 1
 111 597 l 2
 111 614 94 634 76 634 c 2
 23 634 l 1xac
 23 661 l 1x34
 404 661 l 2
 598 661 668 484 669 347 c 0x2c
582 359 m 0
 573 493 505 628 371 628 c 2
 228 628 l 2
 203 628 191 599 191 578 c 2
 191 343 l 1
 269 343 l 1
 269 300 l 1
 191 300 l 1
 191 83 l 2
 191 62 203 33 228 33 c 2
 322 33 l 2x74
 485 33 592 196 582 359 c 0
EndSplineSet
EndChar

StartChar: dcroat
Encoding: 273 273 209
Width: 520
Flags: W
HStem: 451 21<233 252> 504 44<290 351 432 493>
VStem: 11 96<228 248> 351 81<120 504 548 680>
LayerCount: 2
Back
Fore
SplineSet
493 504 m 1
 432 504 l 1
 432 78 l 1
 455 68 l 1
 455 45 l 1
 351 -9 l 1
 351 21 l 1
 318 1 275 -8 233 -9 c 0
 102 -13 15 89 11 228 c 0
 8 350 102 472 233 472 c 0
 280 472 320 459 351 432 c 1
 351 504 l 1
 290 504 l 1
 290 548 l 1
 351 548 l 1
 351 592 l 1
 303 602 l 1
 306 621 l 1
 432 680 l 1
 432 548 l 1
 493 548 l 1
 493 504 l 1
351 121 m 1
 351 295 l 2
 351 422 330 451 233 451 c 0
 135 450 109 336 107 239 c 0
 104 135 132 -1 235 8 c 0
 311 14 341 45 351 121 c 1
EndSplineSet
EndChar

StartChar: Gcircumflex
Encoding: 284 284 220
Width: 596
Flags: W
HStem: 339 21<397 430 397 616>
VStem: 14 82<313 347> 461 80<90 299>
LayerCount: 2
Back
Fore
SplineSet
616 339 m 1
 571 339 l 2
 548 339 541 313 541 295 c 2
 541 68 l 1
 503 82 l 1
 455 22 379 -3 304 -6 c 0
 136 -12 13 165 14 332 c 0
 14 496 146 667 296 664 c 0
 370 663 407 648 460 600 c 1
 502 658 l 1
 528 658 l 1
 541 440 l 1
 524 440 l 1
 496 542 407 651 291 642 c 0
 167 632 95 461 96 324 c 0
 98 180 167 12 320 16 c 0
 382 18 427 40 461 91 c 1
 461 295 l 2
 461 316 454 339 428 339 c 2
 397 339 l 1
 397 360 l 1
 616 360 l 1
 616 339 l 1
207 686 m 1
 228 686 l 1
 291 749 l 1
 297 749 l 1
 361 686 l 1
 380 686 l 1
 301 789 l 1
 287 789 l 1
 207 686 l 1
EndSplineSet
EndChar

StartChar: gcircumflex
Encoding: 285 285 221
Width: 458
Flags: W
HStem: -212 25<231 247> 158 18<218 228> 453 13<218 228>
VStem: 22 57<-98.4125 -80> 56 62<106 131> 335 97<440 468> 380 64<-82 -48>
LayerCount: 2
Back
Fore
SplineSet
444 -48 m 0xea
 444 -154 344 -212 231 -212 c 0
 137 -212 20 -181 22 -85 c 0xf2
 23 -39 82 14 123 32 c 1
 85 45 56 77 56 106 c 0
 56 151 108 167 155 172 c 1
 24 200 7 466 218 466 c 0
 282 466 311 446 335 419 c 1
 335 440 l 2
 335 445 336 450 336 456 c 0
 335 530 432 517 432 461 c 0xec
 432 423 399 403 368 413 c 0
 356 417 355 415 348 426 c 1
 348 426 348 402 348 401 c 0
 400 318 377 158 218 158 c 0
 212 158 206 158 200 159 c 1
 161 156 118 158 118 131 c 0
 118 77 444 88 444 -48 c 0xea
218 176 m 0
 322 176 322 453 218 453 c 0
 113 453 111 176 218 176 c 0
380 -82 m 0
 380 -21 244 -1 147 26 c 1
 108 -2 78 -33 79 -85 c 0
 80 -161 156 -187 231 -187 c 0
 308 -187 380 -159 380 -82 c 0
135 525 m 1
 156 525 l 1
 220 589 l 1
 226 589 l 1
 290 525 l 1
 308 525 l 1
 229 628 l 1
 215 628 l 1
 135 525 l 1
EndSplineSet
EndChar

StartChar: gcommaaccent
Encoding: 291 291 227
Width: 458
Flags: W
HStem: -212 25<231 253> 158 18<218 228> 453 13<218 228> 531 47<199 213>
VStem: 22 57<-98.4125 -80> 56 62<106 131> 212 39<493 578> 335 97<440 468> 380 64<-82 -48>
LayerCount: 2
Back
Fore
SplineSet
444 -48 m 0xf680
 444 -154 344 -212 231 -212 c 0
 137 -212 20 -181 22 -85 c 0xfa80
 23 -39 82 14 123 32 c 1
 85 45 56 77 56 106 c 0
 56 151 108 167 155 172 c 1
 24 200 7 466 218 466 c 0
 282 466 311 446 335 419 c 1
 335 440 l 2
 335 445 336 450 336 456 c 0
 335 530 432 517 432 461 c 0xf7
 432 423 399 403 368 413 c 0
 356 417 355 415 348 426 c 1
 348 426 348 402 348 401 c 0
 400 318 377 158 218 158 c 0
 212 158 206 158 200 159 c 1
 161 156 118 158 118 131 c 0
 118 77 444 88 444 -48 c 0xf680
218 176 m 0
 322 176 322 453 218 453 c 0
 113 453 111 176 218 176 c 0
380 -82 m 0
 380 -21 244 -1 147 26 c 1
 108 -2 78 -33 79 -85 c 0
 80 -161 156 -187 231 -187 c 0
 308 -187 380 -159 380 -82 c 0
92 602 m 0
 89 698 150 717 231 718 c 2
 283 719 l 1
 283 685 l 1
 226 680 l 2
 190 677 152 667 152 623 c 0
 152 593 184 578 213 578 c 2
 251 578 l 1
 251 503 l 1
 212 493 l 1
 212 531 l 1
 184 531 l 2
 139 531 94 562 92 602 c 0
EndSplineSet
EndChar

StartChar: Hcircumflex
Encoding: 292 292 228
Width: 706
Flags: W
HStem: 0 27<45 300 442 698> 334 25<213 530> 634 27<45 100 45 300 442 497 442 698> 672 21G<270 294 443 464>
VStem: 133 80<64 334 64 599> 530 80<64 334 359 599>
LayerCount: 2
Back
Fore
SplineSet
698 0 m 1
 442 0 l 1
 442 27 l 1
 495 27 l 2
 513 27 530 47 530 64 c 2
 530 334 l 1
 213 334 l 1
 213 64 l 2
 213 45 229 27 248 27 c 2
 300 27 l 1
 300 0 l 1
 45 0 l 1
 45 27 l 1
 98 27 l 2
 116 27 133 47 133 64 c 2
 133 597 l 2
 133 614 116 634 98 634 c 2
 45 634 l 1
 45 661 l 1
 300 661 l 1
 300 634 l 1
 248 634 l 2
 229 634 213 616 213 597 c 2
 213 359 l 1
 530 359 l 1
 530 597 l 2
 530 614 513 634 495 634 c 2
 442 634 l 1
 442 661 l 1
 698 661 l 1
 698 634 l 1
 645 634 l 2
 626 634 610 616 610 597 c 2
 610 64 l 2
 610 45 626 27 645 27 c 2
 698 27 l 1
 698 0 l 1
270 672 m 1
 294 672 l 1
 364 743 l 1
 371 743 l 1
 443 672 l 1
 464 672 l 1
 375 787 l 1
 359 787 l 1
 270 672 l 1
EndSplineSet
EndChar

StartChar: hcircumflex
Encoding: 293 293 229
Width: 524
Flags: W
HStem: 0 21<28 249 317 538>
VStem: 98 81<48 371 48 665> 387 81<48 373>
LayerCount: 2
Back
Fore
SplineSet
538 0 m 1
 317 0 l 1
 317 21 l 1
 362 21 l 2
 375 21 387 35 387 48 c 2
 387 362 l 2
 387 405 350 443 307 441 c 0
 258 439 205 400 179 370 c 1
 179 48 l 2
 179 35 190 21 204 21 c 2
 249 21 l 1
 249 0 l 1
 28 0 l 1
 28 21 l 1
 72 21 l 2
 85 21 98 35 98 48 c 2
 98 564 l 1
 43 580 l 1
 43 598 l 1
 179 665 l 1
 179 402 l 1
 210 435 266 469 321 472 c 0
 376 476 468 458 468 392 c 2
 468 48 l 2
 468 36 480 21 493 21 c 2
 538 21 l 1
 538 0 l 1
138 673 m 1
 162 673 l 1
 234 746 l 1
 241 746 l 1
 315 673 l 1
 336 673 l 1
 245 791 l 1
 229 791 l 1
 138 673 l 1
EndSplineSet
EndChar

StartChar: Hbar
Encoding: 294 294 230
Width: 706
Flags: W
HStem: 0 27<45 300 442 698> 334 25<213 530> 498 38<70 133 213 530 610 680> 634 27<45 100 45 300 442 497 442 698>
VStem: 133 80<64 334 64 498 536 599> 530 80<64 334 359 498 536 599>
LayerCount: 2
Back
Fore
SplineSet
698 0 m 1
 442 0 l 1
 442 27 l 1
 495 27 l 2
 513 27 530 47 530 64 c 2
 530 334 l 1
 213 334 l 1
 213 64 l 2
 213 45 229 27 248 27 c 2
 300 27 l 1
 300 0 l 1
 45 0 l 1
 45 27 l 1
 98 27 l 2
 116 27 133 47 133 64 c 2
 133 498 l 1
 70 498 l 1
 70 536 l 1
 133 536 l 1
 133 597 l 2
 133 614 116 634 98 634 c 2
 45 634 l 1
 45 661 l 1
 300 661 l 1
 300 634 l 1
 248 634 l 2
 229 634 213 616 213 597 c 2
 213 536 l 1
 530 536 l 1
 530 597 l 2
 530 614 513 634 495 634 c 2
 442 634 l 1
 442 661 l 1
 698 661 l 1
 698 634 l 1
 645 634 l 2
 626 634 610 616 610 597 c 2
 610 536 l 1
 680 536 l 1
 680 498 l 1
 610 498 l 1
 610 64 l 2
 610 45 626 27 645 27 c 2
 698 27 l 1
 698 0 l 1
530 359 m 1
 530 498 l 1
 213 498 l 1
 213 359 l 1
 530 359 l 1
EndSplineSet
EndChar

StartChar: hbar
Encoding: 295 295 231
Width: 524
Flags: W
HStem: 0 21<28 249 317 538> 498 38<35 98 179 241>
VStem: 98 81<48 374 48 498 536 665> 387 81<48 376>
LayerCount: 2
Back
Fore
SplineSet
538 0 m 1
 317 0 l 1
 317 21 l 1
 362 21 l 2
 375 21 387 35 387 48 c 2
 387 366 l 2
 387 409 350 447 307 445 c 0
 258 443 205 404 179 374 c 1
 179 48 l 2
 179 35 190 21 204 21 c 2
 249 21 l 1
 249 0 l 1
 28 0 l 1
 28 21 l 1
 72 21 l 2
 85 21 98 35 98 48 c 2
 98 498 l 1
 35 498 l 1
 35 536 l 1
 98 536 l 1
 98 565 l 1
 43 581 l 1
 43 598 l 1
 179 665 l 1
 179 536 l 1
 241 536 l 1
 241 498 l 1
 179 498 l 1
 179 402 l 1
 210 435 266 469 321 472 c 0
 376 476 468 463 468 397 c 2
 468 48 l 2
 468 36 480 21 493 21 c 2
 538 21 l 1
 538 0 l 1
EndSplineSet
EndChar

StartChar: Itilde
Encoding: 296 296 232
Width: 308
Flags: W
HStem: 0 27<45 300> 634 27<45 100 45 300>
VStem: 133 80<64 599>
LayerCount: 2
Back
Fore
SplineSet
300 0 m 1
 45 0 l 1
 45 27 l 1
 98 27 l 2
 116 27 133 47 133 64 c 2
 133 597 l 2
 133 614 116 634 98 634 c 2
 45 634 l 1
 45 661 l 1
 300 661 l 1
 300 634 l 1
 248 634 l 2
 229 634 213 616 213 597 c 2
 213 64 l 2
 213 45 229 27 248 27 c 2
 300 27 l 1
 300 0 l 1
79 714 m 1
 89 714 l 1
 103 735 119 746 144 746 c 0
 168 746 173 715 211 714 c 0
 244 713 266 751 263 783 c 1
 257 783 l 1
 244 766 231 758 209 756 c 0
 192 754 172 788 147 787 c 0
 113 786 79 752 79 714 c 1
EndSplineSet
EndChar

StartChar: itilde
Encoding: 297 297 233
Width: 239
Flags: W
HStem: 0 21<31 253>
VStem: 102 80<48 374>
LayerCount: 2
Back
Fore
SplineSet
253 0 m 1
 31 0 l 1
 31 21 l 1
 76 21 l 2
 89 21 102 35 102 48 c 2
 102 374 l 1
 49 392 l 1
 49 407 l 1
 182 474 l 1
 182 48 l 2
 182 35 195 21 208 21 c 2
 253 21 l 1
 253 0 l 1
50 572 m 1
 61 572 l 1
 74 592 89 602 112 602 c 0
 134 603 140 573 176 572 c 0
 207 571 227 607 225 637 c 1
 219 637 l 1
 207 621 194 614 174 612 c 0
 158 610 139 642 115 641 c 0
 83 640 51 608 50 572 c 1
EndSplineSet
EndChar

StartChar: Ibreve
Encoding: 300 300 236
Width: 308
Flags: W
HStem: 0 27<45 300> 634 27<45 100 45 300> 694 52<170 174>
VStem: 133 80<64 599>
LayerCount: 2
Back
Fore
SplineSet
300 0 m 1
 45 0 l 1
 45 27 l 1
 98 27 l 2
 116 27 133 47 133 64 c 2
 133 597 l 2
 133 614 116 634 98 634 c 2
 45 634 l 1
 45 661 l 1
 300 661 l 1
 300 634 l 1
 248 634 l 2
 229 634 213 616 213 597 c 2
 213 64 l 2
 213 45 229 27 248 27 c 2
 300 27 l 1
 300 0 l 1
269 786 m 1
 263 732 221 694 170 694 c 0
 118 694 76 733 71 786 c 1
 95 786 l 1
 104 758 127 746 170 746 c 0
 206 746 233 760 245 786 c 1
 269 786 l 1
EndSplineSet
EndChar

StartChar: dotlessi
Encoding: 305 305 241
Width: 239
Flags: W
HStem: 0 21<31 253>
VStem: 102 80<48 374>
LayerCount: 2
Back
Fore
SplineSet
253 0 m 1
 31 0 l 1
 31 21 l 1
 76 21 l 2
 89 21 102 35 102 48 c 2
 102 374 l 1
 49 392 l 1
 49 407 l 1
 182 474 l 1
 182 48 l 2
 182 35 195 21 208 21 c 2
 253 21 l 1
 253 0 l 1
EndSplineSet
EndChar

StartChar: IJ
Encoding: 306 306 242
Width: 651
Flags: W
HStem: 0 27<45 300> 634 27<45 100 45 300 416 471 416 672>
VStem: 133 80<64 599> 332 96<-38 -28> 504 80<71 599>
LayerCount: 2
Back
Fore
SplineSet
300 0 m 1
 45 0 l 1
 45 27 l 1
 98 27 l 2
 116 27 133 47 133 64 c 2
 133 597 l 2
 133 614 116 634 98 634 c 2
 45 634 l 1
 45 661 l 1
 300 661 l 1
 300 634 l 1
 248 634 l 2
 228 634 213 616 213 597 c 2
 213 64 l 2
 213 45 228 27 248 27 c 2
 300 27 l 1
 300 0 l 1
672 634 m 1
 619 634 l 2
 600 634 584 616 584 597 c 2
 584 133 l 2
 584 29 545 -106 418 -106 c 0
 370 -106 332 -84 332 -36 c 0
 332 -12 355 18 380 18 c 0
 407 18 428 -12 428 -30 c 0
 428 -59 410 -72 387 -78 c 1
 394 -84 412 -91 429 -87 c 0
 486 -74 504 11 504 71 c 2
 504 597 l 2
 504 614 487 634 469 634 c 2
 416 634 l 1
 416 661 l 1
 672 661 l 1
 672 634 l 1
EndSplineSet
Ligature2: "'liga' Standard Ligatures in Latin lookup 0 subtable" I J
EndChar

StartChar: ij
Encoding: 307 307 243
Width: 525
Flags: W
HStem: -148 16<316 333> 0 21<31 253>
VStem: 102 80<48 374> 367 83<572.98 589> 379 81<-69 390>
LayerCount: 2
Back
Fore
SplineSet
175 583 m 0xe0
 175 531 97 531 97 583 c 0
 97 636 175 636 175 583 c 0xe0
253 0 m 1
 31 0 l 1
 31 21 l 1
 76 21 l 2
 89 21 102 35 102 48 c 2
 102 374 l 1
 49 392 l 1
 49 407 l 1
 182 474 l 1
 182 48 l 2
 182 35 195 21 208 21 c 2
 253 21 l 1
 253 0 l 1
450 583 m 0xf0
 450 528 367 528 367 583 c 0
 367 639 450 639 450 583 c 0xf0
460 -35 m 2xe8
 460 -106 388 -148 333 -148 c 0
 233 -148 256 -46 307 -45 c 0
 341 -44 363 -94 335 -117 c 0
 328 -123 324 -128 316 -132 c 1
 327 -132 339 -130 349 -125 c 0
 371 -113 379 -94 379 -69 c 2
 379 390 l 1
 339 403 l 1
 339 417 l 1
 460 474 l 1
 460 -35 l 2xe8
EndSplineSet
Ligature2: "'liga' Standard Ligatures in Latin lookup 0 subtable" i j
EndChar

StartChar: Jcircumflex
Encoding: 308 308 244
Width: 325
Flags: W
HStem: -106 124<56 94> 634 27<92 153 92 348> 668 21G<108 133 292 314>
VStem: 8 96<-38 -28> 180 80<71 599>
LayerCount: 2
Back
Fore
SplineSet
348 634 m 1
 295 634 l 2
 276 634 260 616 260 597 c 2
 260 133 l 2
 260 29 221 -106 94 -106 c 0
 46 -106 8 -84 8 -36 c 0
 8 -12 31 18 56 18 c 0
 83 18 104 -12 104 -30 c 0
 104 -59 86 -72 63 -78 c 1
 70 -84 88 -91 105 -87 c 0
 162 -74 180 11 180 71 c 2
 180 597 l 2
 180 614 163 634 145 634 c 2
 92 634 l 1
 92 661 l 1
 348 661 l 1
 348 634 l 1
108 668 m 1
 133 668 l 1
 208 744 l 1
 216 744 l 1
 292 668 l 1
 314 668 l 1
 220 791 l 1
 203 791 l 1
 108 668 l 1
EndSplineSet
EndChar

StartChar: jcircumflex
Encoding: 309 309 245
Width: 254
Flags: W
VStem: 117 56<-69 397>
LayerCount: 2
Back
Fore
SplineSet
173 -35 m 2
 173 -94 126 -144 71 -146 c 0
 -9 -148 0 -58 51 -57 c 0
 85 -56 98 -92 76 -117 c 0
 70 -124 68 -128 60 -132 c 1
 71 -132 77 -130 87 -125 c 0
 109 -113 117 -94 117 -69 c 2
 117 397 l 1
 77 410 l 1
 77 417 l 1
 173 474 l 1
 173 -35 l 2
42 523 m 1
 67 523 l 1
 143 598 l 1
 150 598 l 1
 226 523 l 1
 248 523 l 1
 154 646 l 1
 137 646 l 1
 42 523 l 1
EndSplineSet
EndChar

StartChar: kgreenlandic
Encoding: 312 312 248
Width: 526
Flags: W
HStem: 0 20<28 249 473 521> 441 21<28 77 28 249> 444 19<276 311 492.833 501>
VStem: 98 81<47 204 47 416>
DStem2: 179 217 281 297 0.726393 0.68728<129.074 178.966> 281 297 220 237 0.530888 -0.847442<18.4624 250.279>
LayerCount: 2
Back
Fore
SplineSet
521 0 m 1xb0
 471 0 370 -14 339 38 c 2
 220 237 l 1
 179 204 l 1
 179 47 l 2
 179 34 190 20 204 20 c 2
 249 20 l 1
 249 0 l 1
 28 0 l 1
 28 20 l 1
 72 20 l 2
 85 20 98 34 98 47 c 2
 98 414 l 2
 98 427 85 441 72 441 c 2
 28 441 l 1
 28 462 l 1
 249 462 l 1
 249 441 l 1
 204 441 l 2xd0
 190 441 179 427 179 414 c 2
 179 217 l 1
 309 340 l 2
 344 373 360 444 305 444 c 258
 276 444 l 1
 276 463 l 1
 501 463 l 1
 501 444 l 257
 452 438 418 418 382 386 c 2
 281 297 l 1
 442 40 l 1
 446 30 464 18 475 18 c 2
 521 18 l 1
 521 0 l 1xb0
EndSplineSet
EndChar

StartChar: Lacute
Encoding: 313 313 249
Width: 583
Flags: W
HStem: 0 27<28 511> 634 27<28 83 28 284>
VStem: 117 80<74 599>
LayerCount: 2
Back
Fore
SplineSet
561 179 m 1
 511 0 l 1
 28 0 l 1
 28 27 l 1
 81 27 l 2
 109 27 117 56 117 79 c 2
 117 597 l 2
 117 615 99 634 81 634 c 2
 28 634 l 1
 28 661 l 1
 284 661 l 1
 284 634 l 1
 231 634 l 2
 212 634 197 615 197 597 c 2
 197 76 l 2
 197 53 209 26 235 26 c 2
 355 26 l 2
 438 26 521 101 543 179 c 1
 561 179 l 1
284 784 m 1
 176 692 l 1
 140 692 l 1
 212 784 l 1
 284 784 l 1
EndSplineSet
EndChar

StartChar: lacute
Encoding: 314 314 250
Width: 239
Flags: W
HStem: 0 21<31 252>
VStem: 101 81<48 569>
LayerCount: 2
Back
Fore
SplineSet
252 0 m 1
 31 0 l 1
 31 21 l 1
 76 21 l 2
 89 21 101 36 101 48 c 2
 101 569 l 1
 46 584 l 1
 46 603 l 1
 182 670 l 1
 182 48 l 2
 182 35 194 21 207 21 c 2
 252 21 l 1
 252 0 l 1
193 787 m 1
 99 707 l 1
 68 707 l 1
 131 787 l 1
 193 787 l 1
EndSplineSet
EndChar

StartChar: Lslash
Encoding: 321 321 257
Width: 583
Flags: W
HStem: 0 27<28 508> 634 27<28 83 28 284>
VStem: 117 80<74 426 469 599>
LayerCount: 2
Back
Fore
SplineSet
558 179 m 1
 508 0 l 1
 28 0 l 1
 28 27 l 1
 81 27 l 2
 109 27 117 56 117 79 c 2
 117 426 l 1
 45 408 l 1
 45 451 l 1
 117 469 l 1
 117 597 l 2
 117 615 99 634 81 634 c 2
 28 634 l 1
 28 661 l 1
 284 661 l 1
 284 634 l 1
 231 634 l 2
 212 634 197 615 197 597 c 2
 197 486 l 1
 269 502 l 1
 269 459 l 1
 197 443 l 1
 197 76 l 2
 197 53 209 26 235 26 c 2
 355 26 l 2
 441 26 520 99 543 179 c 1
 558 179 l 1
EndSplineSet
EndChar

StartChar: lslash
Encoding: 322 322 258
Width: 239
Flags: W
HStem: 0 21<31 252>
VStem: 101 81<48 426 469 670>
LayerCount: 2
Back
Fore
SplineSet
253 464 m 1
 182 445 l 1
 182 48 l 2
 182 35 194 21 207 21 c 2
 252 21 l 1
 252 0 l 1
 31 0 l 1
 31 21 l 1
 76 21 l 2
 89 21 101 36 101 48 c 2
 101 426 l 1
 31 408 l 1
 31 451 l 1
 101 469 l 1
 101 569 l 1
 46 584 l 1
 46 603 l 1
 182 670 l 1
 182 488 l 1
 253 507 l 1
 253 464 l 1
EndSplineSet
EndChar

StartChar: Nacute
Encoding: 323 323 259
Width: 692
Flags: W
HStem: 0 28<40 279> 634 27<66 120 503 741>
VStem: 154 22<120 597> 605 23<80 545>
DStem2: 222 661 176 598 0.544298 -0.838892<27.8125 695.862>
LayerCount: 2
Back
Fore
SplineSet
741 633 m 1
 693 633 l 2
 648 633 628 578 628 541 c 2
 628 0 l 1
 564 0 l 1
 176 598 l 1
 176 120 l 2
 176 85 198 28 241 28 c 2
 279 28 l 1
 279 0 l 1
 40 0 l 1
 40 28 l 1
 89 28 l 2
 132 28 154 85 154 120 c 2
 154 597 l 2
 154 615 137 634 118 634 c 2
 66 634 l 1
 66 661 l 1
 222 661 l 1
 605 80 l 1
 605 541 l 2
 605 578 587 633 541 633 c 2
 503 633 l 1
 503 661 l 1
 741 661 l 1
 741 633 l 1
445 786 m 1
 351 706 l 1
 320 706 l 1
 382 786 l 1
 445 786 l 1
EndSplineSet
EndChar

StartChar: nacute
Encoding: 324 324 260
Width: 531
Flags: W
HStem: 0 21<28 249 317 538>
VStem: 98 81<48 373> 387 81<48 375>
LayerCount: 2
Back
Fore
SplineSet
538 0 m 1
 317 0 l 1
 317 21 l 1
 362 21 l 2
 375 21 387 35 387 48 c 2
 387 363 l 2
 387 406 350 444 307 442 c 0
 258 440 206 402 179 373 c 1
 179 48 l 2
 179 35 192 21 205 21 c 2
 249 21 l 1
 249 0 l 1
 28 0 l 1
 28 21 l 1
 73 21 l 2
 87 21 98 35 98 48 c 2
 98 373 l 1
 44 388 l 1
 44 407 l 1
 179 474 l 1
 179 403 l 1
 211 435 266 469 321 472 c 0
 376 476 468 463 468 397 c 2
 468 48 l 2
 468 36 480 21 493 21 c 2
 538 21 l 1
 538 0 l 1
364 702 m 1
 270 622 l 1
 239 622 l 1
 301 702 l 1
 364 702 l 1
EndSplineSet
EndChar

StartChar: Ncommaaccent
Encoding: 325 325 261
Width: 692
Flags: W
HStem: -72 47<418 430.05> 0 28<40 279> 634 27<66 120 503 741>
VStem: 154 22<120 597> 379 39<-72 13> 605 23<80 556>
DStem2: 222 661 176 598 0.544298 -0.838892<27.8125 695.862>
LayerCount: 2
Back
Fore
SplineSet
741 633 m 1
 693 633 l 2
 648 633 628 578 628 541 c 2
 628 0 l 1
 564 0 l 1
 176 598 l 1
 176 120 l 2
 176 85 198 28 241 28 c 2
 279 28 l 1
 279 0 l 1
 40 0 l 1
 40 28 l 1
 89 28 l 2
 132 28 154 85 154 120 c 2
 154 597 l 2
 154 615 137 634 118 634 c 2
 66 634 l 1
 66 661 l 1
 222 661 l 1
 605 80 l 1
 605 541 l 2
 605 578 587 633 541 633 c 2
 503 633 l 1
 503 661 l 1
 741 661 l 1
 741 633 l 1
538 -96 m 0
 541 -192 480 -210 399 -212 c 2
 347 -213 l 1
 347 -179 l 1
 404 -174 l 2
 440 -171 478 -161 478 -117 c 0
 478 -87 446 -72 417 -72 c 2
 379 -72 l 1
 379 3 l 1
 418 13 l 1
 418 -25 l 1
 446 -25 l 2
 491 -25 536 -56 538 -96 c 0
EndSplineSet
EndChar

StartChar: Ncaron
Encoding: 327 327 263
Width: 692
Flags: W
HStem: 0 28<40 279> 634 27<66 120 503 741>
VStem: 154 22<120 597> 605 23<80 545>
DStem2: 222 661 176 598 0.544298 -0.838892<27.8125 695.862>
LayerCount: 2
Back
Fore
SplineSet
741 633 m 1
 693 633 l 2
 648 633 628 578 628 541 c 2
 628 0 l 1
 564 0 l 1
 176 598 l 1
 176 120 l 2
 176 85 198 28 241 28 c 2
 279 28 l 1
 279 0 l 1
 40 0 l 1
 40 28 l 1
 89 28 l 2
 132 28 154 85 154 120 c 2
 154 597 l 2
 154 615 137 634 118 634 c 2
 66 634 l 1
 66 661 l 1
 222 661 l 1
 605 80 l 1
 605 541 l 2
 605 578 587 633 541 633 c 2
 503 633 l 1
 503 661 l 1
 741 661 l 1
 741 633 l 1
262 786 m 1
 287 786 l 1
 363 728 l 1
 370 728 l 1
 446 786 l 1
 469 786 l 1
 374 692 l 1
 357 692 l 1
 262 786 l 1
EndSplineSet
EndChar

StartChar: napostrophe
Encoding: 329 329 265
Width: 531
Flags: W
HStem: 0 21<28 249 317 538>
VStem: 98 81<48 373> 387 81<48 375>
LayerCount: 2
Back
Fore
SplineSet
538 0 m 1
 317 0 l 1
 317 21 l 1
 362 21 l 2
 375 21 387 35 387 48 c 2
 387 363 l 2
 387 406 350 444 307 442 c 0
 258 440 206 402 179 373 c 1
 179 48 l 2
 179 35 192 21 205 21 c 2
 249 21 l 1
 249 0 l 1
 28 0 l 1
 28 21 l 1
 73 21 l 2
 87 21 98 35 98 48 c 2
 98 373 l 1
 44 388 l 1
 44 407 l 1
 179 474 l 1
 179 403 l 1
 211 435 266 469 321 472 c 0
 376 476 468 463 468 397 c 2
 468 48 l 2
 468 36 480 21 493 21 c 2
 538 21 l 1
 538 0 l 1
354 611 m 1
 372 636 367 682 318 685 c 0
 259 689 252 623 287 601 c 1
 291 595 290 590 289 583 c 0
 287 573 282 567 273 560 c 0
 266 554 261 551 251 548 c 1
 262 535 l 1
 275 538 287 541 298 546 c 0
 316 556 325 564 338 581 c 0
 346 591 350 600 354 611 c 1
EndSplineSet
EndChar

StartChar: Eng
Encoding: 330 330 266
Width: 748
Flags: W
HStem: 0 25<43 279> 637 24<69 123 517 572 517 773> 640 20G<517 773>
VStem: 157 19<103.504 598> 605 80<81 602>
DStem2: 224 661 176 598 0.545082 -0.838382<26.6541 693.938>
LayerCount: 2
Back
Fore
SplineSet
773 636 m 1xb8
 720 636 l 2
 701 636 685 618 685 599 c 2
 685 132 l 2
 685 0 605 -107 494 -107 c 0
 446 -107 399 -73 401 -25 c 0
 402 7 428 36 460 33 c 0
 487 31 507 9 509 -18 c 0
 512 -49 493 -76 463 -81 c 1
 478 -88 488 -93 505 -90 c 0
 535 -84 567 -60 583 -28 c 1
 176 598 l 1
 176 117 l 2
 176 82 198 25 241 25 c 2
 279 25 l 1
 279 0 l 1
 43 0 l 1
 43 25 l 1
 92 25 l 2
 134 25 157 82 157 117 c 2
 157 600 l 2
 157 618 139 637 121 637 c 2
 69 637 l 1
 69 661 l 1
 224 661 l 1xd8
 605 81 l 1
 605 599 l 2
 605 617 588 636 570 636 c 2
 517 636 l 1
 517 660 l 1
 773 660 l 1
 773 636 l 1xb8
EndSplineSet
EndChar

StartChar: eng
Encoding: 331 331 267
Width: 531
Flags: W
HStem: 0 18<28 249>
VStem: 98 81<45 376> 387 81<-69 378>
LayerCount: 2
Back
Fore
SplineSet
468 -35 m 2
 468 -94 396 -144 341 -146 c 0
 261 -148 270 -58 321 -57 c 0
 355 -56 368 -92 346 -117 c 0
 340 -124 338 -128 330 -132 c 1
 341 -132 347 -130 357 -125 c 0
 379 -113 387 -94 387 -69 c 0
 387 366 387 -69 387 366 c 0
 387 409 350 447 307 445 c 0
 258 443 206 405 179 376 c 1
 179 45 l 2
 179 32 192 18 205 18 c 2
 249 18 l 1
 249 0 l 1
 28 0 l 1
 28 18 l 1
 73 18 l 2
 87 18 98 32 98 45 c 2
 98 376 l 1
 44 391 l 1
 44 407 l 1
 179 474 l 1
 179 403 l 1
 211 435 266 469 321 472 c 0
 376 476 468 463 468 397 c 2
 468 -35 l 2
EndSplineSet
EndChar

StartChar: Ohungarumlaut
Encoding: 336 336 272
Width: 734
Flags: W
HStem: -21 21<359 377> 650 21<343 377>
LayerCount: 2
Back
Fore
SplineSet
359 -21 m 0
 -87 -21 -87 671 358 671 c 0
 802 671 803 -21 359 -21 c 0
359 0 m 2
 358 0 l 2
 679 0 677 650 359 650 c 0
 41 650 43 0 359 0 c 2
384 787 m 1
 322 787 l 1
 259 707 l 1
 290 707 l 1
 384 787 l 1
527 787 m 1
 464 787 l 1
 402 707 l 1
 433 707 l 1
 527 787 l 1
EndSplineSet
EndChar

StartChar: ohungarumlaut
Encoding: 337 337 273
Width: 493
Flags: W
HStem: -9 15<250 254> 455 17<250 254>
LayerCount: 2
Back
Fore
SplineSet
250 -9 m 0
 -45 -9 -44 472 250 472 c 0
 547 472 547 -9 250 -9 c 0
250 6 m 0
 425 6 425 455 250 455 c 0
 74 455 74 6 250 6 c 0
309 643 m 1
 224 643 l 1
 139 534 l 1
 181 534 l 1
 309 643 l 1
461 643 m 1
 376 643 l 1
 291 534 l 1
 333 534 l 1
 461 643 l 1
EndSplineSet
EndChar

StartChar: OE
Encoding: 338 338 274
Width: 1006
Flags: W
HStem: -22 20G<146.5 471> 0 32<638 916> 350 28<604 715> 629 32<387 779> 644 17<377 395>
VStem: 526 78<89 350 89 579> 526 298<89 488> 800 24<232 488>
LayerCount: 2
Back
Fore
SplineSet
969 196 m 1xf5
 916 0 l 1
 745 0 555 -2 387 -2 c 0
 -94 -2 -93 661 387 661 c 2xf5
 925 661 l 1xed
 969 461 l 1
 947 461 l 1
 933 491 l 2
 897 569 862 629 768 629 c 2
 640 629 l 2
 614 629 604 602 604 579 c 2
 604 378 l 1
 702 378 l 2
 750 378 800 421 800 470 c 2
 800 488 l 1xf5
 824 488 l 1
 824 232 l 1xf2
 800 232 l 1
 800 250 l 2
 800 300 752 350 702 350 c 2
 604 350 l 1
 604 257 604 74 604 74 c 1
 605 54 620 32 642 32 c 2
 768 32 l 2
 858 32 899 89 933 165 c 2
 947 196 l 1
 969 196 l 1xf5
526 89 m 1
 526 570 l 1
 494 612 444 644 390 644 c 0xec
 44 644 16 17 387 17 c 0
 407 17 427 22 444 26 c 1
 477 38 504 60 526 89 c 1
EndSplineSet
EndChar

StartChar: oe
Encoding: 339 339 275
Width: 798
Flags: W
HStem: -9 15<242 248> -9 93<550 584> 290 28<445 746> 455 17<242 248 558 567>
LayerCount: 2
Back
Fore
SplineSet
746 290 m 1xb0
 440 290 l 1
 439 276 438 261 438 246 c 0
 439 149 486 85 558 84 c 0
 634 83 695 115 730 182 c 1
 730 94 l 1
 697 27 639 -9 565 -9 c 0x70
 491 -9 436 5 405 73 c 1
 374 12 318 -9 242 -9 c 0
 -50 -9 -48 472 242 472 c 0
 321 472 375 444 405 380 c 1
 438 444 477 472 558 472 c 0
 642 472 756 370 746 290 c 1xb0
669 318 m 1
 669 374 624 456 558 456 c 0
 485 456 461 392 445 318 c 1
 669 318 l 1
242 6 m 0xb0
 417 6 417 455 242 455 c 0
 66 455 66 6 242 6 c 0xb0
EndSplineSet
EndChar

StartChar: Racute
Encoding: 340 340 276
Width: 632
Flags: W
HStem: 0 20<633 651> 0 27<26 281> 365 29<194 301> 628 33<26 329> 634 27<26 81>
VStem: 114 80<64 365 64 628>
DStem2: 384 367 301 365 0.496139 -0.868243<0 315.296>
LayerCount: 2
Back
Fore
SplineSet
651 0 m 1xac
 562 0 l 2
 519 0 497 22 477 57 c 2
 301 365 l 1
 194 365 l 1
 194 64 l 2
 194 45 210 27 229 27 c 2
 281 27 l 1
 281 0 l 1
 26 0 l 1
 26 27 l 1
 79 27 l 2
 97 27 114 47 114 64 c 2
 114 596 l 2
 114 614 98 634 79 634 c 2
 26 634 l 1x6c
 26 661 l 1x34
 344 661 l 2
 419 661 509 636 516 537 c 0
 524 427 462 376 384 367 c 1
 557 72 l 2
 572 46 606 20 638 20 c 2
 651 20 l 1
 651 0 l 1xac
430 535 m 0
 430 598 370 628 309 628 c 2
 194 628 l 1x34
 194 394 l 1
 308 394 l 2
 390 394 431 435 430 535 c 0
329 784 m 1
 235 704 l 1
 204 704 l 1
 267 784 l 1
 329 784 l 1
EndSplineSet
EndChar

StartChar: racute
Encoding: 341 341 277
Width: 376
Flags: W
HStem: 0 21<22 243> 642 20G<210 273>
VStem: 92 81<48 374>
LayerCount: 2
Back
Fore
SplineSet
361 443 m 0
 363 419 345 385 301 388 c 0
 279 389 265 396 251 415 c 0
 247 419 251 423 252 427 c 1
 221 420 193 398 173 374 c 1
 173 48 l 2
 173 36 185 21 198 21 c 2
 243 21 l 1
 243 0 l 1
 22 0 l 1
 22 21 l 1
 67 21 l 2
 80 21 92 35 92 48 c 2
 92 387 l 1
 52 403 l 1
 52 412 l 1
 173 469 l 1
 173 402 l 1
 199 431 270 472 307 473 c 0
 331 474 358 473 361 443 c 0
273 662 m 1
 179 582 l 1
 148 582 l 1
 210 662 l 1
 273 662 l 1
EndSplineSet
EndChar

StartChar: Sacute
Encoding: 346 346 282
Width: 525
Flags: W
HStem: -10 24<274 292> 654 20<242 260>
VStem: 35 85<490 525> 415 77<131 174>
LayerCount: 2
Back
Fore
SplineSet
492 174 m 0
 492 97 423 -10 277 -10 c 0
 195 -10 175 35 120 40 c 0
 109 41 79 7 72 -2 c 1
 58 -2 l 1
 47 215 l 1
 64 215 l 1
 91 115 176 14 287 14 c 0
 359 14 415 51 415 131 c 0
 415 340 36 289 35 490 c 0
 34 594 140 674 245 674 c 0
 353 674 349 625 398 630 c 0
 412 631 438 661 446 673 c 1
 460 673 l 1
 473 452 l 1
 456 452 l 1
 431 546 362 654 254 654 c 0
 182 654 120 597 120 525 c 0
 120 357 492 381 492 174 c 0
310 787 m 1
 217 707 l 1
 186 707 l 1
 248 787 l 1
 310 787 l 1
EndSplineSet
EndChar

StartChar: sacute
Encoding: 347 347 283
Width: 377
Flags: W
VStem: 278 63<100 119>
LayerCount: 2
Back
Fore
SplineSet
341 119 m 0
 341 43 262 -2 188 -9 c 0
 146 -13 92 9 52 26 c 1
 52 136 l 1
 59 139 l 1
 67 77 126 0 195 12 c 0
 242 20 279 52 278 100 c 0
 276 193 41 176 39 347 c 0
 38 420 118 467 195 472 c 0
 236 475 283 457 321 440 c 1
 321 330 l 1
 315 327 l 1
 305 383 266 449 202 449 c 0
 155 449 107 429 104 383 c 0
 97 276 341 294 341 119 c 0
271 622 m 1
 177 542 l 1
 146 542 l 1
 209 622 l 1
 271 622 l 1
EndSplineSet
EndChar

StartChar: Scircumflex
Encoding: 348 348 284
Width: 525
Flags: W
HStem: -10 24<274 292> 654 20<239 260>
VStem: 35 85<490 525> 415 77<131 174>
LayerCount: 2
Back
Fore
SplineSet
492 174 m 0
 492 97 423 -10 277 -10 c 0
 195 -10 175 35 120 40 c 0
 109 41 79 7 72 -2 c 1
 58 -2 l 1
 47 215 l 1
 64 215 l 1
 91 115 176 14 287 14 c 0
 359 14 415 51 415 131 c 0
 415 340 36 289 35 490 c 0
 34 594 140 674 245 674 c 0
 353 674 349 625 398 630 c 0
 412 631 438 661 446 673 c 1
 460 673 l 1
 473 452 l 1
 456 452 l 1
 431 546 362 654 254 654 c 0
 182 654 120 597 120 525 c 0
 120 357 492 381 492 174 c 0
146 678 m 1
 168 678 l 1
 234 745 l 1
 241 745 l 1
 308 678 l 1
 327 678 l 1
 244 786 l 1
 230 786 l 1
 146 678 l 1
EndSplineSet
EndChar

StartChar: scircumflex
Encoding: 349 349 285
Width: 377
Flags: W
VStem: 278 63<100 119>
LayerCount: 2
Back
Fore
SplineSet
341 119 m 0
 341 43 262 -2 188 -9 c 0
 146 -13 92 9 52 26 c 1
 52 136 l 1
 59 139 l 1
 67 77 126 0 195 12 c 0
 242 20 279 52 278 100 c 0
 276 193 41 176 39 347 c 0
 38 420 118 467 195 472 c 0
 236 475 283 457 321 440 c 1
 321 330 l 1
 315 327 l 1
 305 383 266 449 202 449 c 0
 155 449 107 429 104 383 c 0
 97 276 341 294 341 119 c 0
96 523 m 1
 120 523 l 1
 193 595 l 1
 200 595 l 1
 273 523 l 1
 294 523 l 1
 203 640 l 1
 188 640 l 1
 96 523 l 1
EndSplineSet
EndChar

StartChar: Tbar
Encoding: 358 358 294
Width: 771
Flags: W
HStem: 0 27<251 507> 421 39<272 339 419 485> 627 34<105 306 105 544>
VStem: 339 80<64 421 460 579>
LayerCount: 2
Back
Fore
SplineSet
735 490 m 1
 715 489 l 1
 694 571 617 627 536 627 c 2
 456 627 l 2
 431 627 419 598 419 577 c 2
 419 460 l 1
 485 460 l 1
 485 421 l 1
 419 421 l 1
 419 64 l 2
 419 45 435 27 454 27 c 2
 507 27 l 1
 507 0 l 1
 251 0 l 1
 251 27 l 1
 304 27 l 2
 322 27 339 47 339 64 c 2
 339 421 l 1
 272 421 l 1
 272 460 l 1
 339 460 l 1
 339 577 l 2
 339 600 328 627 302 627 c 2
 261 627 l 2
 171 627 88 585 69 489 c 1
 47 490 l 1
 105 661 l 1
 678 661 l 1
 735 490 l 1
EndSplineSet
EndChar

StartChar: tbar
Encoding: 359 359 295
Width: 299
Flags: W
HStem: 282 41<21 84 165 240> 411 47<165 230>
VStem: 84 81<61 282 323 411>
LayerCount: 2
Back
Fore
SplineSet
248 61 m 2
 250 39 222 -8 166 -9 c 0
 121 -9 84 35 84 73 c 2
 84 282 l 1
 21 282 l 1
 21 323 l 1
 84 323 l 1
 84 411 l 1
 28 411 l 1
 28 437 l 1
 144 560 l 1
 165 546 l 1
 165 458 l 1
 246 458 l 1
 230 411 l 1
 165 411 l 1
 165 323 l 1
 240 323 l 1
 240 282 l 1
 165 282 l 1
 165 65 l 2
 165 48 184 35 201 36 c 0
 221 38 247 66 246 83 c 1
 248 61 l 2
EndSplineSet
EndChar

StartChar: Utilde
Encoding: 360 360 296
Width: 643
Flags: W
HStem: -13 22<349 376> 634 27<40 95 40 295 463 521 463 676>
VStem: 128 80<162 599> 551 37<207 600>
LayerCount: 2
Back
Fore
SplineSet
676 634 m 1
 623 634 l 2
 604 634 588 616 588 597 c 2
 588 220 l 2
 588 104 486 -14 374 -13 c 0
 228 -11 128 20 128 181 c 2
 128 597 l 2
 128 614 111 634 93 634 c 2
 40 634 l 1
 40 661 l 1
 296 661 l 1
 296 634 l 1
 243 634 l 2
 224 634 208 616 208 597 c 2
 208 132 l 2
 208 54 288 9 371 9 c 0
 469 9 551 107 551 209 c 2
 551 597 l 2
 551 615 534 634 515 634 c 2
 463 634 l 1
 463 661 l 1
 676 661 l 1
 676 634 l 1
282 709 m 1
 293 709 l 1
 306 730 322 740 346 740 c 0
 369 741 375 710 412 709 c 0
 444 708 465 745 463 777 c 1
 456 777 l 1
 444 760 432 752 410 750 c 0
 393 749 374 781 349 780 c 0
 316 779 283 747 282 709 c 1
EndSplineSet
EndChar

StartChar: utilde
Encoding: 361 361 297
Width: 544
Flags: W
HStem: -9 21G<209 269.5> 442 21<15 64 318 368>
VStem: 85 81<95 417> 388 81<98 463>
LayerCount: 2
Back
Fore
SplineSet
527 61 m 1
 388 -9 l 1
 388 65 l 1
 358 28 303 -9 236 -9 c 0
 182 -9 85 -23 85 116 c 2
 85 415 l 2
 85 427 73 442 60 442 c 2
 15 442 l 1
 15 463 l 1
 166 463 l 1
 166 111 l 2
 166 53 205 24 251 27 c 0
 306 30 360 67 388 99 c 1
 388 415 l 2
 388 427 376 442 363 442 c 2
 318 442 l 1
 318 463 l 1
 469 463 l 1
 469 97 l 1
 527 81 l 1
 527 61 l 1
188 576 m 1
 198 576 l 1
 211 595 226 605 249 605 c 0
 271 606 276 577 312 576 c 0
 342 575 363 610 360 640 c 1
 354 640 l 1
 342 624 330 617 310 615 c 0
 294 613 275 644 251 644 c 0
 220 643 189 611 188 576 c 1
EndSplineSet
EndChar

StartChar: Uring
Encoding: 366 366 302
Width: 643
Flags: W
HStem: -13 22<359 376> 634 27<40 95 40 296 463 521 463 676> 662 30<369 373> 762 26<374 376>
VStem: 128 80<162 599> 551 37<207 600>
LayerCount: 2
Back
Fore
SplineSet
676 634 m 1
 623 634 l 2
 604 634 588 616 588 597 c 2
 588 220 l 2
 588 104 486 -14 374 -13 c 0
 228 -11 128 20 128 181 c 2
 128 597 l 2
 128 614 111 634 93 634 c 2
 40 634 l 1
 40 661 l 1
 296 661 l 1
 296 634 l 1
 243 634 l 2
 224 634 208 616 208 597 c 2
 208 132 l 2
 208 54 288 9 371 9 c 0
 469 9 551 107 551 209 c 2
 551 597 l 2
 551 615 534 634 515 634 c 2
 463 634 l 1
 463 661 l 1
 676 661 l 1
 676 634 l 1
374 788 m 0
 291 789 288 660 372 662 c 0
 456 665 458 787 374 788 c 0
374 762 m 0
 420 762 420 691 373 692 c 0
 326 692 326 763 374 762 c 0
EndSplineSet
EndChar

StartChar: Uhungarumlaut
Encoding: 368 368 304
Width: 643
Flags: W
HStem: -13 22<359 376> 634 27<40 95 40 296 463 521 463 676>
VStem: 128 80<162 599> 551 37<207 600>
LayerCount: 2
Back
Fore
SplineSet
676 634 m 1
 623 634 l 2
 604 634 588 616 588 597 c 2
 588 220 l 2
 588 104 486 -14 374 -13 c 0
 228 -11 128 20 128 181 c 2
 128 597 l 2
 128 614 111 634 93 634 c 2
 40 634 l 1
 40 661 l 1
 296 661 l 1
 296 634 l 1
 243 634 l 2
 224 634 208 616 208 597 c 2
 208 132 l 2
 208 54 288 9 371 9 c 0
 469 9 551 107 551 209 c 2
 551 597 l 2
 551 615 534 634 515 634 c 2
 463 634 l 1
 463 661 l 1
 676 661 l 1
 676 634 l 1
402 784 m 1
 339 784 l 1
 277 704 l 1
 308 704 l 1
 402 784 l 1
494 784 m 1
 432 784 l 1
 370 704 l 1
 400 704 l 1
 494 784 l 1
EndSplineSet
EndChar

StartChar: uhungarumlaut
Encoding: 369 369 305
Width: 544
Flags: W
HStem: -9 21G<209 269.5> 442 21<15 64 318 368> 646 20G<226 311 338 423>
VStem: 85 81<95 417> 388 81<98 463>
LayerCount: 2
Back
Fore
SplineSet
527 61 m 1
 388 -9 l 1
 388 65 l 1
 358 28 303 -9 236 -9 c 0
 182 -9 85 -23 85 116 c 2
 85 415 l 2
 85 427 73 442 60 442 c 2
 15 442 l 1
 15 463 l 1
 166 463 l 1
 166 111 l 2
 166 53 205 24 251 27 c 0
 306 30 360 67 388 99 c 1
 388 415 l 2
 388 427 376 442 363 442 c 2
 318 442 l 1
 318 463 l 1
 469 463 l 1
 469 97 l 1
 527 81 l 1
 527 61 l 1
311 666 m 1
 226 666 l 1
 141 557 l 1
 183 557 l 1
 311 666 l 1
423 666 m 1
 338 666 l 1
 253 557 l 1
 295 557 l 1
 423 666 l 1
EndSplineSet
EndChar

StartChar: Wcircumflex
Encoding: 372 372 308
Width: 973
Flags: W
HStem: 0 21G<321 373 667 718> 633 28<41 58 41 257 386 410 386 599 817 844 817 1042>
DStem2: 196 584 109 586 0.340196 -0.940354<0 536.795> 378 79 373 0 0.329844 0.944036<0 363.374> 538 584 455 586 0.349077 -0.937094<0 122.246> 725 82 718 0 0.345537 0.938405<0 448.627>
LayerCount: 2
Back
Fore
SplineSet
1042 633 m 1
 1023 633 l 258
 962 633 927 567 908 516 c 2
 718 0 l 1
 667 0 l 1
 667 0 519 415 518 415 c 1
 373 0 l 1
 321 0 l 1
 109 586 l 1
 100 612 83 633 54 633 c 258
 41 633 l 1
 41 661 l 1
 257 661 l 1
 257 633 l 1
 212 633 l 258
 183 633 190 602 196 584 c 1
 378 79 l 1
 507 442 l 1
 455 586 l 2
 446 612 427 633 399 633 c 258
 386 633 l 1
 386 661 l 1
 599 661 l 1
 599 633 l 1
 561 633 l 258
 533 633 530 605 538 584 c 2
 725 82 l 1
 880 503 l 2
 894 542 907 633 842 633 c 258
 817 633 l 1
 817 661 l 1
 1042 661 l 1
 1042 633 l 1
391 682 m 1
 413 682 l 1
 478 747 l 1
 485 747 l 1
 551 682 l 1
 570 682 l 1
 488 788 l 1
 474 788 l 1
 391 682 l 1
EndSplineSet
EndChar

StartChar: wcircumflex
Encoding: 373 373 309
Width: 675
Flags: W
HStem: 442 21<5 38 5 189 229 256 229 404 518 550 518 693> 647 20G<302 319>
DStem2: 142 412 61 418 0.307205 -0.951643<0 340.926> 245 87 241 0 0.370758 0.92873<0 190.133> 359 412 286 418 0.315375 -0.948967<0 107.895> 470 78 462 0 0.339231 0.940703<0 295.701>
LayerCount: 2
Back
Fore
SplineSet
693 442 m 1
 666 442 l 258
 639 442 612 415 603 391 c 2
 462 0 l 1
 418 6 l 1
 418 6 342 254 342 253 c 1
 241 0 l 1
 194 6 l 1
 61 418 l 2
 57 430 44 442 30 442 c 258
 5 442 l 1
 5 463 l 1
 189 463 l 1
 189 442 l 1
 160 442 l 258
 144 442 138 426 142 412 c 1
 245 87 l 1
 328 288 l 1
 286 418 l 2
 283 428 265 442 254 442 c 258
 229 442 l 1
 229 463 l 1
 404 463 l 1
 404 442 l 1
 377 442 l 258
 361 442 354 426 359 412 c 1
 470 78 l 1
 568 357 l 1
 578 384 589 442 541 442 c 258
 518 442 l 1
 518 463 l 1
 693 463 l 1
 693 442 l 1
203 539 m 1
 229 539 l 1
 308 617 l 1
 315 617 l 1
 395 539 l 1
 418 539 l 1
 319 667 l 1
 302 667 l 1
 203 539 l 1
EndSplineSet
EndChar

StartChar: Ycircumflex
Encoding: 374 374 310
Width: 605
Flags: W
HStem: 0 27<183 439> 633 28<48 263 426 465 426 648>
VStem: 272 80<64 334>
DStem2: 209 584 123 588 0.505981 -0.862545<0 247.513> 341 357 352 337 0.588938 0.808178<0 179.463>
LayerCount: 2
Back
Fore
SplineSet
648 633 m 1
 613 633 l 2
 573 633 510 554 489 525 c 2
 352 337 l 1
 352 64 l 2
 352 46 367 27 386 27 c 2
 439 27 l 1
 439 0 l 1
 183 0 l 1
 183 27 l 1
 236 27 l 2
 254 27 272 46 272 64 c 2
 272 334 l 1
 123 588 l 2
 110 610 83 636 56 636 c 2
 48 636 l 1
 48 661 l 1
 263 661 l 1
 263 633 l 1
 234 633 l 2
 198 633 191 615 209 584 c 2
 341 357 l 1
 444 504 l 2
 462 529 530 633 452 633 c 2
 426 633 l 1
 426 661 l 1
 648 661 l 1
 648 633 l 1
254 682 m 1
 275 682 l 1
 337 744 l 1
 343 744 l 1
 405 682 l 1
 423 682 l 1
 346 783 l 1
 332 783 l 1
 254 682 l 1
EndSplineSet
EndChar

StartChar: ycircumflex
Encoding: 375 375 311
Width: 452
Flags: W
HStem: -94 26<99 105> -94 101<80 103> 442 21<6 37 6 190 294 327 294 467>
DStem2: 144 412 63 418 0.286235 -0.958159<0 303.627> 164 -23 181 -39 0.431905 0.901919<0 48.7544 161.012 420.472>
LayerCount: 2
Back
Fore
SplineSet
467 442 m 1xa0
 448 442 l 258
 423 442 395 407 385 387 c 2
 181 -39 l 2
 170 -62 134 -94 103 -94 c 0xa0
 19 -94 14 7 80 7 c 0x60
 125 7 131 -37 114 -57 c 0
 109 -63 106 -65 99 -68 c 1
 130 -68 151 -51 164 -23 c 2
 185 21 l 1
 181 23 l 1
 63 418 l 2
 60 429 43 442 31 442 c 258
 6 442 l 1
 6 463 l 1
 190 463 l 1
 190 442 l 1
 162 442 l 258
 145 442 140 426 144 412 c 1
 234 122 l 1
 344 357 l 2
 357 384 360 442 317 442 c 258
 294 442 l 1
 294 463 l 1
 467 463 l 1
 467 442 l 1xa0
134 521 m 1
 158 521 l 1
 232 595 l 1
 239 595 l 1
 314 521 l 1
 336 521 l 1
 243 642 l 1
 227 642 l 1
 134 521 l 1
EndSplineSet
EndChar

StartChar: Zacute
Encoding: 377 377 313
Width: 576
Flags: W
HStem: 0 28<155 507> 469 21G<69 94> 633 28<114 448>
DStem2: 49 21 155 28 0.546143 0.837692<63.755 730.579> 69 469 94 469 0.228191 0.973616<5.70478 53.4576>
LayerCount: 2
Back
Fore
SplineSet
566 206 m 1
 507 0 l 1
 49 0 l 1
 49 21 l 1
 448 633 l 1
 278 633 l 2
 212 633 126 581 107 515 c 2
 94 469 l 1
 69 469 l 1
 114 661 l 1
 546 661 l 1
 546 639 l 1
 155 28 l 1
 339 28 l 2
 415 28 490 90 522 157 c 2
 544 204 l 1
 566 206 l 1
401 784 m 1
 307 704 l 1
 276 704 l 1
 339 784 l 1
 401 784 l 1
EndSplineSet
EndChar

StartChar: zacute
Encoding: 378 378 314
Width: 409
Flags: W
HStem: -2 23<116 333> 442 21<70 282>
DStem2: 12 -2 116 21 0.519581 0.854421<73.6881 519.65>
LayerCount: 2
Back
Fore
SplineSet
389 463 m 1
 116 21 l 1
 228 21 l 2
 284 21 336 83 353 132 c 1
 371 125 l 1
 333 -2 l 1
 12 -2 l 1
 282 442 l 1
 161 442 l 2
 107 442 72 368 66 321 c 1
 47 331 l 1
 70 463 l 1
 389 463 l 1
316 623 m 1
 222 543 l 1
 192 543 l 1
 254 623 l 1
 316 623 l 1
EndSplineSet
EndChar

StartChar: longs
Encoding: 383 383 319
Width: 251
Flags: W
HStem: 0 21<13 234> 414 22<38 83> 667 21G<181 227.5>
VStem: 83 81<48 414 436 619> 202 75<615 628>
LayerCount: 2
Back
Fore
SplineSet
277 615 m 0
 278 567 202 569 202 628 c 0
 202 636 204 642 208 649 c 1
 186 658 164 644 164 619 c 2
 164 48 l 2
 164 35 175 21 189 21 c 2
 234 21 l 1
 234 0 l 1
 13 0 l 1
 13 21 l 1
 57 21 l 2
 70 21 83 35 83 48 c 2
 83 414 l 1
 38 414 l 1
 38 436 l 1
 83 436 l 1
 83 570 l 2
 83 624 154 667 208 667 c 0
 247 667 276 647 277 615 c 0
EndSplineSet
EndChar

StartChar: uni0180
Encoding: 384 384 320
Width: 519
Flags: W
HStem: 510 26<14 70 151 201>
VStem: 70 81<-9 344 -9 510 536 683> 398 95<230 264>
LayerCount: 2
Back
Fore
SplineSet
493 243 m 0
 496 109 372 -7 272 -9 c 0
 223 -10 164 3 131 32 c 0
 132 32 70 -9 70 -9 c 1
 70 510 l 1
 14 510 l 1
 14 536 l 1
 70 536 l 1
 70 595 l 1
 25 604 l 1
 25 619 l 1
 151 683 l 1
 151 536 l 1
 201 536 l 1
 201 510 l 1
 151 510 l 1
 151 428 l 1
 182 456 223 470 272 472 c 0
 394 476 490 411 493 243 c 0
398 239 m 0
 398 399 297 459 264 454 c 0
 174 441 151 386 151 322 c 2
 151 120 l 1
 160 58 190 6 272 8 c 0
 351 10 398 123 398 239 c 0
EndSplineSet
EndChar

StartChar: uni0181
Encoding: 385 385 321
Width: 553
Flags: W
HStem: 0 26<22 331> 0 32<217.747 308> 359 31<190 334> 629 32<22 340> 640 21<21 77>
VStem: 110 80<63 359 63 581> 437 73<535 545>
LayerCount: 2
Back
Fore
SplineSet
534 220 m 0x2e
 537 103 447 0 331 0 c 2
 22 0 l 1
 22 26 l 1
 75 26 l 2
 93 26 110 46 110 63 c 2
 110 603 l 2
 110 621 93 640 75 640 c 2
 17 640 l 2xae
 -5 640 -24 633 -20 609 c 1
 -13 611 -6 611 1 610 c 0
 55 596 35 524 -3 535 c 0
 -34 543 -51 576 -42 614 c 0
 -30 661 22 661 22 661 c 1x36
 365 661 l 2
 452 661 510 630 510 535 c 0
 510 462 477 412 426 382 c 1
 496 357 532 300 534 220 c 0x2e
437 535 m 0
 437 593 391 629 335 629 c 2
 227 629 l 2x36
 201 629 190 601 190 579 c 2
 190 390 l 1
 302 390 l 2
 380 390 437 456 437 535 c 0
457 206 m 0
 457 279 406 359 334 359 c 2
 190 359 l 1
 190 82 l 2
 190 58 198 32 227 32 c 2
 299 32 l 2x66
 392 32 457 135 457 206 c 0
EndSplineSet
EndChar

StartChar: uni0182
Encoding: 386 386 322
Width: 583
Flags: W
HStem: 0 26<41 281> 0 36<208 313> 333 25<208 313> 470 21G<556 571> 624 37<40 377> 635 26<40 97>
VStem: 129 79<61 333 358 585>
LayerCount: 2
Back
Fore
SplineSet
129 583 m 2xba
 129 606 121 635 93 635 c 2
 40 635 l 1xb6
 40 661 l 1x3a
 520 661 l 1x36
 571 470 l 1
 556 470 l 1
 533 550 454 624 368 624 c 2
 246 624 l 2
 220 624 208 597 208 574 c 2
 208 358 l 1
 327 358 l 2
 419 358 533 282 524 158 c 0
 514 24 389 0 281 0 c 2
 41 0 l 1
 41 26 l 1
 94 26 l 2
 112 26 129 46 129 63 c 0
 129 585 129 583 129 583 c 2xba
208 36 m 1x72
 308 36 l 2
 369 36 438 97 438 160 c 0
 439 260 389 333 307 333 c 2
 208 333 l 1
 208 36 l 1x72
EndSplineSet
EndChar

StartChar: uni0183
Encoding: 387 387 323
Width: 563
Flags: W
HStem: 0 36<154 268> 331 29<154 268> 470 21G<502 519> 624 37<75 332>
VStem: 75 79<0 331 360 576>
LayerCount: 2
Back
Fore
SplineSet
519 470 m 1
 502 470 l 1
 479 550 400 624 314 624 c 2
 192 624 l 2
 166 624 154 597 154 574 c 0
 154 356 154 360 154 360 c 1
 298 360 l 2
 390 360 479 282 470 158 c 0
 460 24 360 0 252 0 c 2
 75 0 l 1
 75 661 75 661 75 661 c 1
 468 661 l 1
 519 470 l 1
384 160 m 0
 385 260 335 331 253 331 c 2
 154 331 l 1
 154 36 l 1
 254 36 l 2
 315 36 384 97 384 160 c 0
EndSplineSet
EndChar

StartChar: uni0184
Encoding: 388 388 324
Width: 519
Flags: W
HStem: -9 19<257 284>
VStem: 70 81<-9 328 -9 683> 398 95<230 264>
LayerCount: 2
Back
Fore
SplineSet
493 243 m 0
 496 109 384 -7 284 -9 c 0
 235 -10 164 3 131 32 c 0
 132 32 70 -9 70 -9 c 1
 70 537 l 2
 70 552 15 589 -14 600 c 1
 18 612 151 683 151 683 c 1
 151 428 l 1
 182 456 235 470 284 472 c 0
 406 476 490 411 493 243 c 0
398 239 m 0
 398 399 297 457 264 452 c 0
 174 439 151 384 151 320 c 2
 151 120 l 1
 160 58 190 8 272 10 c 0
 351 12 398 123 398 239 c 0
EndSplineSet
EndChar

StartChar: uni0185
Encoding: 389 389 325
Width: 519
Flags: W
VStem: 70 81<64 328 64 683> 398 95<230 264>
LayerCount: 2
Back
Fore
SplineSet
493 243 m 0
 496 109 372 -7 272 -9 c 0
 190 -11 129 18 70 64 c 1
 70 596 l 1
 25 605 l 1
 25 619 l 1
 151 683 l 1
 151 428 l 1
 182 456 223 470 272 472 c 0
 394 476 490 411 493 243 c 0
398 239 m 0
 398 399 297 457 264 452 c 0
 174 439 151 384 151 320 c 2
 151 120 l 1
 160 58 190 8 272 10 c 0
 351 12 398 123 398 239 c 0
EndSplineSet
EndChar

StartChar: uni0186
Encoding: 390 390 326
Width: 582
Flags: W
HStem: -2 14<278 298> 636 24<138 309>
VStem: 494 89<333 383>
LayerCount: 2
Back
Fore
SplineSet
39 449 m 1
 83 673 l 1
 106 673 l 1
 104 654 119 635 138 636 c 0
 193 637 235 676 296 679 c 0
 524 688 583 510 583 354 c 0
 583 201 504 -4 285 -2 c 0
 183 -1 167 56 137 52 c 0
 115 49 100 24 89 8 c 1
 71 8 l 1
 60 231 l 1
 80 231 l 1
 105 137 178 12 288 12 c 0
 413 12 492 183 494 341 c 0
 496 485 444 660 309 660 c 0
 237 660 147 612 96 534 c 0
 76 503 66 484 56 449 c 1
 39 449 l 1
EndSplineSet
EndChar

StartChar: uni0187
Encoding: 391 391 327
Width: 582
Flags: W
HStem: 19 27<291 463> 663 16<302 323>
VStem: 18 88<301 338> 564 72<660 673>
LayerCount: 2
Back
Fore
SplineSet
636 660 m 0
 637 612 564 621 564 673 c 0
 564 681 566 687 570 694 c 1
 548 703 524 684 525 665 c 2
 536 446 l 1
 520 446 l 1
 516 461 513 470 507 484 c 0
 466 580 409 663 312 663 c 0
 187 663 108 494 106 336 c 0
 104 192 156 19 291 19 c 0
 363 19 453 65 504 143 c 0
 524 174 534 193 544 228 c 1
 560 228 l 1
 517 9 l 1
 495 9 l 1
 497 28 482 46 463 46 c 0
 408 45 365 0 304 -2 c 0
 88 -11 18 184 18 323 c 0
 18 465 107 681 315 679 c 0
 417 678 433 617 463 621 c 0
 474 623 480 629 488 636 c 0
 499 645 503 653 511 665 c 1
 511 665 516 710 570 710 c 0
 609 710 635 692 636 660 c 0
EndSplineSet
EndChar

StartChar: uni0188
Encoding: 392 392 328
Width: 424
Flags: W
HStem: -9 21G<138.5 248> 459 14<368 397>
VStem: 392 72<422 435>
LayerCount: 2
Back
Fore
SplineSet
464 422 m 0
 465 377 392 377 392 435 c 0
 392 443 395 451 399 458 c 1
 394 460 375 459 369 459 c 0
 356 459 335 444 326 434 c 1
 372 387 371 311 321 308 c 0
 270 305 264 360 273 399 c 0
 276 412 281 419 289 429 c 1
 268 450 259 450 230 451 c 0
 142 454 93 361 90 276 c 0
 86 169 115 58 224 53 c 0
 292 50 338 102 368 157 c 1
 368 108 l 1
 341 47 283 -9 213 -9 c 0
 64 -9 -3 108 -4 226 c 0
 -6 352 101 472 230 472 c 0
 268 472 296 460 318 442 c 1
 328 455 348 473 382 473 c 0
 421 473 463 454 464 422 c 0
EndSplineSet
EndChar

StartChar: uni0189
Encoding: 393 393 329
Width: 704
Flags: W
HStem: 0 27<23 304> 0 33<226 328> 300 43<31 111 191 269> 628 33<23 376> 634 27<23 78>
VStem: 111 80<64 300 343 580>
LayerCount: 2
Back
Fore
SplineSet
669 347 m 0x2c
 670 172 516 0 304 0 c 2
 23 0 l 1
 23 27 l 1
 76 27 l 2
 94 27 111 47 111 64 c 2
 111 300 l 1
 31 300 l 1
 31 343 l 1
 111 343 l 1
 111 597 l 2
 111 614 94 634 76 634 c 2
 23 634 l 1xac
 23 661 l 1x34
 404 661 l 2
 598 661 668 484 669 347 c 0x2c
582 359 m 0
 573 493 505 628 371 628 c 2
 228 628 l 2
 203 628 191 599 191 578 c 2
 191 343 l 1
 269 343 l 1
 269 300 l 1
 191 300 l 1
 191 83 l 2
 191 62 203 33 228 33 c 2
 322 33 l 2x74
 485 33 592 196 582 359 c 0
EndSplineSet
EndChar

StartChar: uni018A
Encoding: 394 394 330
Width: 704
Flags: W
HStem: 0 26<23 329> 0 32<226 342> 629 32<23 390> 640 21<22 78>
VStem: 111 80<63 581>
LayerCount: 2
Back
Fore
SplineSet
669 347 m 0x18
 670 172 525 0 329 0 c 2
 23 0 l 1
 23 26 l 1
 76 26 l 2
 94 26 111 46 111 63 c 2
 111 603 l 2
 111 621 94 640 76 640 c 2
 18 640 l 2x98
 -4 640 -23 633 -19 609 c 1
 -12 611 -5 611 2 610 c 0
 51 597 43 522 -2 535 c 0
 -33 543 -49 576 -40 614 c 0
 -28 661 23 661 23 661 c 1x28
 429 661 l 2
 609 661 668 484 669 347 c 0x18
582 359 m 0
 573 493 505 629 371 629 c 2
 228 629 l 2
 203 629 191 600 191 579 c 2
 191 82 l 2
 191 61 203 32 228 32 c 2
 322 32 l 2x68
 485 32 592 196 582 359 c 0
EndSplineSet
EndChar

StartChar: uni018B
Encoding: 395 395 331
Width: 583
Flags: W
HStem: 0 26<305 544> 0 36<270 378> 333 25<270 378> 470 21G<15 30> 624 37<206 546> 635 26<490 546>
VStem: 378 79<61 333 358 585>
LayerCount: 2
Back
Fore
SplineSet
457 583 m 2xb2
 457 606 465 635 493 635 c 2
 546 635 l 1xb6
 546 661 l 1x3a
 66 661 l 1x36
 15 470 l 1
 30 470 l 1
 53 550 132 624 218 624 c 2
 340 624 l 2
 366 624 378 597 378 574 c 2
 378 358 l 1
 259 358 l 2
 167 358 53 282 62 158 c 0
 72 24 197 0 305 0 c 2xba
 545 0 l 1x72
 545 26 l 1
 492 26 l 2
 474 26 457 46 457 63 c 0
 457 585 457 583 457 583 c 2xb2
378 36 m 1x72
 278 36 l 2
 217 36 148 97 148 160 c 0
 147 260 197 333 279 333 c 2
 378 333 l 1
 378 36 l 1x72
EndSplineSet
EndChar

StartChar: uni018C
Encoding: 396 396 332
Width: 487
Flags: W
HStem: 452 20<218.667 251> 634 27<131 331>
VStem: 10 97<228 248> 351 81<120 661>
LayerCount: 2
Back
Fore
SplineSet
455 45 m 1
 351 -9 l 1
 351 21 l 1
 318 1 275 -8 233 -9 c 0
 112 -13 14 89 10 228 c 0
 7 350 110 471 233 472 c 0
 280 473 320 459 351 432 c 1
 351 599 l 2
 351 615 343 634 324 634 c 2
 239 634 l 2
 179 634 123 583 107 527 c 1
 95 527 l 1
 131 661 l 1
 432 661 l 1
 432 78 l 1
 455 68 l 1
 455 45 l 1
351 121 m 1
 351 298 l 2
 351 425 330 452 233 452 c 0
 135 451 109 336 107 239 c 0
 104 135 132 1 235 10 c 0
 311 16 341 45 351 121 c 1
EndSplineSet
EndChar

StartChar: uni018D
Encoding: 397 397 333
Width: 482
Flags: W
HStem: -136 18<153 167> 455 17<242 255>
VStem: 231 22<-76 -9>
LayerCount: 2
Back
Fore
SplineSet
253 -9 m 1
 253 -67 l 2
 253 -101 207 -136 161 -136 c 0
 134 -136 93 -124 81 -77 c 0
 72 -39 88 -7 119 1 c 0
 157 12 172 -60 123 -73 c 0
 116 -74 110 -74 103 -72 c 1
 98 -104 137 -118 163 -118 c 0
 190 -118 231 -102 231 -66 c 2
 231 -9 l 1
 -53 6 -45 472 242 472 c 0
 534 472 538 5 253 -9 c 1
242 6 m 0
 417 6 417 455 242 455 c 0
 66 455 66 6 242 6 c 0
EndSplineSet
EndChar

StartChar: uni018E
Encoding: 398 398 334
Width: 584
Flags: W
HStem: 0 27<473 530> 0 33<185 530> 283 28<262 362> 465 21G<-6 17> 634 27<46 530>
VStem: 142 21<173 202 173 427> 362 80<79 597>
LayerCount: 2
Back
Fore
SplineSet
-6 465 m 1x7e
 46 661 l 1
 530 661 l 1
 530 634 l 1
 477 634 l 2
 459 634 442 614 442 597 c 2
 442 64 l 2
 442 47 459 27 477 27 c 2
 530 27 l 1
 530 0 l 1xbe
 38 0 l 1
 -6 200 l 1
 17 200 l 1
 30 170 l 2
 63 94 107 33 196 33 c 2
 324 33 l 2
 350 33 362 60 362 83 c 2
 362 283 l 1
 262 283 l 2
 214 283 163 241 163 191 c 2
 163 173 l 1
 142 173 l 1
 142 427 l 1
 163 427 l 1
 163 409 l 2
 163 359 213 311 262 311 c 2
 362 311 l 1
 362 578 l 2
 362 601 350 628 324 628 c 2
 196 628 l 2
 112 628 61 570 30 496 c 2
 17 465 l 1
 -6 465 l 1x7e
EndSplineSet
EndChar

StartChar: uni018F
Encoding: 399 399 335
Width: 579
Flags: W
HStem: -8 24<261 273> 222 30<28 468> 589 91<251 285>
VStem: 28 68<222 252> 483 83<311 329>
LayerCount: 2
Back
Fore
SplineSet
566 321 m 0
 566 151 441 -8 261 -8 c 0
 125 -8 28 118 28 252 c 1
 471 252 l 1
 473 272 483 294 483 315 c 0
 483 461 407 589 280 589 c 0
 172 589 83 552 34 457 c 1
 34 533 l 1
 81 629 164 680 270 680 c 0
 440 680 566 542 566 321 c 0
468 222 m 1
 96 222 l 1
 96 140 164 16 261 16 c 0
 365 16 446 116 468 222 c 1
EndSplineSet
EndChar

StartChar: uni0190
Encoding: 400 400 336
Width: 539
Flags: W
HStem: 2 44<249 278> 329 40<281 307> 626 38<231 261>
VStem: 15 97<172 195> 37 90<481 515> 168 139<350.042 352>
LayerCount: 2
Back
Fore
SplineSet
488 161 m 1xf4
 453 53 362 2 249 2 c 0
 117 2 15 81 15 189 c 0xf4
 15 270 55 328 152 346 c 2
 160 348 l 2
 165 348 168 350 168 352 c 0
 168 353 165 354 161 354 c 2
 154 356 l 2
 71 370 37 423 37 499 c 0
 37 599 114 664 231 664 c 0
 336 664 356 629 387 629 c 0
 401 629 410 641 413 665 c 1
 439 665 l 1
 440 596 446 528 452 460 c 1
 427 460 l 1
 394 576 342 626 259 626 c 0
 183 626 127 573 127 497 c 0xec
 127 415 185 369 281 369 c 2
 307 369 l 1
 308 329 l 1
 281 329 l 2
 233 329 200 323 175 309 c 0
 138 289 112 242 112 190 c 0
 112 105 182 46 278 46 c 0
 363 46 428 94 457 171 c 1
 488 161 l 1xf4
EndSplineSet
EndChar

StartChar: uni0191
Encoding: 401 401 337
Width: 556
Flags: W
HStem: 346 29<192 298> 470 21G<501 518> 625 36<24 362> 635 26<24 81>
VStem: -7 79<-99 -86> 113 79<-90 345 -90 585> 388 20<234 488>
LayerCount: 2
Back
Fore
SplineSet
518 470 m 1xde
 501 470 l 1
 494 502 l 2
 478 576 431 625 355 625 c 2
 230 625 l 2xee
 204 625 192 596 192 574 c 2
 192 375 l 1
 289 375 l 2
 338 375 388 420 388 470 c 2
 388 488 l 1
 408 488 l 1
 408 234 l 1
 388 234 l 1
 388 252 l 2
 388 301 340 346 289 346 c 2
 192 346 l 1
 192 -41 l 2
 192 -95 120 -136 66 -136 c 0
 27 -136 -6 -118 -7 -86 c 0
 -8 -36 72 -39 72 -99 c 0
 72 -107 70 -113 66 -120 c 1
 88 -129 113 -114 113 -90 c 2
 113 598 l 2
 113 616 95 635 77 635 c 2
 24 635 l 1xde
 24 661 l 1xee
 497 661 l 1
 518 470 l 1xde
EndSplineSet
EndChar

StartChar: florin
Encoding: 402 402 338
Width: 272
Flags: W
HStem: -155 21G<19.5 66> 414 21<38 83 164 217> 665 21G<181 227.5>
VStem: 83 81<-109 414 435 619> 202 80<615 628>
LayerCount: 2
Back
Fore
SplineSet
282 615 m 0
 283 569 202 563 202 628 c 0
 202 636 204 642 208 649 c 1
 186 658 164 644 164 619 c 2
 164 435 l 1
 217 435 l 1
 217 414 l 1
 164 414 l 1
 164 -60 l 2
 164 -114 93 -155 39 -155 c 0
 0 -155 -34 -137 -35 -105 c 0
 -36 -59 45 -54 45 -118 c 0
 45 -126 43 -132 39 -139 c 1
 61 -148 83 -134 83 -109 c 2
 83 414 l 1
 38 414 l 1
 38 435 l 1
 83 435 l 1
 83 570 l 2
 83 624 154 665 208 665 c 0
 247 665 281 647 282 615 c 0
EndSplineSet
EndChar

StartChar: uni0193
Encoding: 403 403 339
Width: 610
Flags: W
HStem: 339 20<397 432 397 616>
VStem: 15 81<313 347> 461 80<90 299> 564 74<660 673>
LayerCount: 2
Back
Fore
SplineSet
638 660 m 0
 639 612 564 615 564 673 c 0
 564 681 566 687 570 694 c 1
 548 703 524 684 525 665 c 2
 536 446 l 1
 520 446 l 1
 516 461 514 470 507 484 c 0
 460 578 394 651 291 643 c 0
 167 633 95 461 96 324 c 0
 98 180 167 11 320 15 c 0
 380 17 428 42 461 91 c 1
 461 295 l 2
 461 316 454 339 428 339 c 2
 397 339 l 1
 397 359 l 1
 616 359 l 1
 616 339 l 1
 571 339 l 2
 548 339 541 313 541 295 c 2
 541 68 l 1
 502 82 l 1
 455 24 378 -3 304 -6 c 0
 121 -13 14 165 15 332 c 0
 15 496 141 667 296 664 c 0
 346 663 380 655 422 629 c 0
 436 620 433 617 463 621 c 0
 483 624 501 650 511 665 c 1
 511 665 516 710 570 710 c 0
 609 710 637 692 638 660 c 0
EndSplineSet
EndChar

StartChar: uni0194
Encoding: 404 404 340
Width: 704
Flags: W
HStem: -147 21G<313.5 368.5> 634 27<41 58 41 253 447 474 447 666>
DStem2: 192 587 109 589 0.339839 -0.940484<0 508.343 544.738 602.566> 300 -71 322 -71 0.346374 0.938096<7.62023 44.3647 191.372 614.007>
LayerCount: 2
Back
Fore
SplineSet
666 634 m 1
 654 634 l 258
 601 634 550 559 534 514 c 2
 378 75 l 1
 419 -40 l 2
 436 -87 404 -147 333 -147 c 0
 294 -147 286 -110 300 -71 c 2
 324 -6 l 1
 109 589 l 1
 100 615 83 634 54 634 c 258
 41 634 l 1
 41 661 l 1
 253 661 l 1
 253 634 l 1
 208 634 l 258
 179 634 186 605 192 587 c 1
 365 109 l 1
 510 506 l 2
 531 563 561 634 472 634 c 258
 447 634 l 1
 447 661 l 1
 666 661 l 1
 666 634 l 1
347 -71 m 2
 336 -37 l 1
 322 -71 l 2
 316 -86 315 -114 330 -116 c 0
 350 -118 356 -99 347 -71 c 2
EndSplineSet
EndChar

StartChar: uni0195
Encoding: 405 405 341
Width: 746
Flags: W
HStem: -8 21G<500 624> 0 20<28 249>
VStem: 98 81<47 372 47 665> 387 81<161 377>
LayerCount: 2
Back
Fore
SplineSet
694 390 m 0x70
 738 300 708 -8 540 -8 c 0xb0
 460 -8 387 53 387 161 c 2
 387 366 l 2
 387 409 350 445 307 443 c 0
 258 441 205 402 179 372 c 1
 179 47 l 2
 179 34 190 20 204 20 c 2
 249 20 l 1
 249 0 l 1
 28 0 l 1
 28 20 l 1
 72 20 l 2
 85 20 98 34 98 47 c 2
 98 565 l 1
 43 581 l 1
 43 598 l 1
 179 665 l 1
 179 402 l 1
 210 435 266 469 321 472 c 0
 376 476 468 463 468 397 c 2
 468 161 l 2
 468 96 490 12 556 20 c 0
 644 31 682 208 677 300 c 0
 675 321 673 332 667 355 c 1
 648 354 613 370 602 397 c 0
 590 425 605 454 642 442 c 0
 669 434 679 420 694 390 c 0x70
EndSplineSet
EndChar

StartChar: uni0196
Encoding: 406 406 342
Width: 262
Flags: W
VStem: 102 80<-14 663> 222 74<-58 -45>
LayerCount: 2
Back
Fore
SplineSet
296 -45 m 0
 295 -77 267 -97 228 -97 c 0
 174 -97 102 -68 102 0 c 0
 102 21 102 563 102 563 c 1
 49 581 l 1
 49 596 l 1
 182 663 l 1
 182 -49 l 2
 182 -74 206 -88 228 -79 c 1
 224 -72 222 -66 222 -58 c 0
 222 0 297 0 296 -45 c 0
EndSplineSet
EndChar

StartChar: uni0197
Encoding: 407 407 343
Width: 297
Flags: W
HStem: 0 26<45 300> 313 49<50 133 213 294> 635 26<45 100 45 300>
VStem: 133 80<63 313 362 600>
LayerCount: 2
Back
Fore
SplineSet
300 0 m 1
 45 0 l 1
 45 26 l 1
 98 26 l 2
 116 26 133 46 133 63 c 2
 133 313 l 1
 50 313 l 1
 50 362 l 1
 133 362 l 1
 133 598 l 2
 133 615 116 635 98 635 c 2
 45 635 l 1
 45 661 l 1
 300 661 l 1
 300 635 l 1
 248 635 l 2
 229 635 213 617 213 598 c 2
 213 362 l 1
 294 362 l 1
 294 313 l 1
 213 313 l 1
 213 63 l 2
 213 44 229 26 248 26 c 2
 300 26 l 1
 300 0 l 1
EndSplineSet
EndChar

StartChar: uni0198
Encoding: 408 408 344
Width: 662
Flags: W
HStem: 0 26<39 294 449 669> 619 21<598 621> 635 26<39 93 39 294>
VStem: 127 80<63 277 63 600>
DStem2: 207 310 207 277 0.698772 0.715344<0 90.9205> 344 419 289 357 0.5547 -0.83205<21.0786 371.094>
LayerCount: 2
Back
Fore
SplineSet
680 593 m 0xd0
 689 555 672 522 641 514 c 0
 595 501 584 575 637 589 c 0
 644 590 651 590 658 588 c 1
 660 603 633 619 621 619 c 2
 593 619 l 2xd0
 511 619 344 419 344 419 c 1
 580 65 l 2
 588 53 616 27 632 27 c 258
 669 27 l 1
 669 0 l 1
 449 0 l 1
 449 27 l 1
 479 27 l 258
 504 27 493 55 485 67 c 2
 289 357 l 1
 207 277 l 1
 207 63 l 2
 207 45 222 26 241 26 c 2
 294 26 l 1
 294 0 l 1
 39 0 l 1
 39 26 l 1
 91 26 l 2
 110 26 127 45 127 63 c 2
 127 598 l 2
 127 616 110 635 91 635 c 2
 39 635 l 1
 39 661 l 1
 294 661 l 1
 294 635 l 1
 241 635 l 2xb0
 222 635 207 616 207 598 c 2
 207 310 l 1
 460 569 l 2
 484 593 534 640 616 640 c 1
 616 640 669 638 680 593 c 0xd0
EndSplineSet
EndChar

StartChar: uni0199
Encoding: 409 409 345
Width: 526
Flags: W
HStem: 0 21<28 249 316 546> 445 18<276 316 492.833 501> 666 21G<197 243.5>
VStem: 98 81<48 581> 99 80<570 619> 218 75<615 628>
DStem2: 179 219 179 204 0.726393 0.68728<0 64.0064> 298 309 234 254 0.533399 -0.845864<12.385 262.429>
LayerCount: 2
Back
Fore
SplineSet
546 0 m 1xf4
 316 0 l 1
 316 21 l 1
 361 21 l 258
 376 21 369 34 365 41 c 2
 234 254 l 1
 179 204 l 1
 179 48 l 2
 179 35 190 21 204 21 c 2
 249 21 l 1
 249 0 l 1
 28 0 l 1
 28 21 l 1
 72 21 l 2
 85 21 98 35 98 48 c 0xf4
 99 509 99 407 99 570 c 0
 99 624 170 666 224 666 c 0
 263 666 292 647 293 615 c 0
 294 569 218 569 218 628 c 0
 218 636 220 642 224 649 c 1
 202 658 179 644 179 619 c 2xec
 179 219 l 1
 309 342 l 2
 344 375 360 445 305 445 c 2
 276 445 l 1
 276 463 l 1
 501 463 l 1
 501 445 l 1
 452 439 417 420 382 387 c 2
 298 309 l 1
 467 41 l 1
 471 31 489 21 500 21 c 258
 546 21 l 1
 546 0 l 1xf4
EndSplineSet
EndChar

StartChar: uni019A
Encoding: 410 410 346
Width: 262
Flags: W
HStem: 0 20<31 252> 316 47<25 101 182 265>
VStem: 101 81<47 316 363 670>
LayerCount: 2
Back
Fore
SplineSet
265 316 m 1
 182 316 l 1
 182 47 l 2
 182 34 194 20 207 20 c 2
 252 20 l 1
 252 0 l 1
 31 0 l 1
 31 20 l 1
 76 20 l 2
 89 20 101 35 101 47 c 2
 101 316 l 1
 25 316 l 1
 25 363 l 1
 101 363 l 1
 101 570 l 1
 46 585 l 1
 46 603 l 1
 182 670 l 1
 182 363 l 1
 265 363 l 1
 265 316 l 1
EndSplineSet
EndChar

StartChar: uni019B
Encoding: 411 411 347
Width: 388
Flags: W
HStem: 0 18<13 234> 570 66<14 53>
DStem2: 49 428 73 404 0.707107 0.707107<0 137.179 171.12 281.428> 83 45 164 45 0.250662 0.968075<20.3036 339.492>
LayerCount: 2
Back
Fore
SplineSet
327 91 m 1
 324 141 310 169 297 216 c 0
 280 275 268 293 244 354 c 1
 164 45 l 1
 161 32 177 18 189 18 c 258
 234 18 l 1
 234 0 l 1
 13 0 l 1
 13 18 l 1
 57 18 l 258
 73 18 80 32 83 45 c 1
 170 381 l 1
 183 429 181 468 170 501 c 1
 73 404 l 1
 49 428 l 1
 154 533 l 1
 132 573 102 595 81 597 c 0
 57 600 47 571 14 570 c 0
 -12 570 -5 635 53 636 c 0
 94 637 133 601 170 549 c 1
 248 627 l 1
 272 603 l 1
 190 521 l 1
 229 459 263 385 285 323 c 0
 336 186 398 0 313 0 c 0
 281 0 290 48 314 77 c 0
 318 82 322 86 327 91 c 1
EndSplineSet
EndChar

StartChar: uni019C
Encoding: 412 412 348
Width: 845
Flags: W
HStem: 640 21<28 77 28 251 317 364 317 538 606 652 606 827>
VStem: 98 83<77 615> 387 81<96 615> 676 81<98 615>
LayerCount: 2
Back
Fore
SplineSet
827 640 m 1
 782 640 l 2
 768 640 757 626 757 613 c 2
 757 100 l 1
 811 85 l 1
 811 67 l 1
 676 0 l 1
 676 71 l 1
 644 39 589 6 534 2 c 0
 481 -1 392 10 387 70 c 1
 355 38 301 5 247 2 c 0
 192 -2 98 11 98 77 c 2
 98 613 l 2
 98 626 86 640 73 640 c 2
 28 640 l 1
 28 661 l 1
 251 661 l 1
 251 640 l 1
 207 640 l 2
 194 640 181 626 181 613 c 2
 181 108 l 2
 181 65 218 27 261 29 c 0
 308 31 359 68 387 97 c 1
 387 613 l 2
 387 625 375 640 362 640 c 2
 317 640 l 1
 317 661 l 1
 538 661 l 1
 538 640 l 1
 493 640 l 2
 480 640 468 626 468 613 c 2
 468 108 l 2
 468 65 505 27 548 29 c 0
 597 31 649 69 676 98 c 1
 676 613 l 2
 676 626 663 640 650 640 c 2
 606 640 l 1
 606 661 l 1
 827 661 l 1
 827 640 l 1
EndSplineSet
EndChar

StartChar: uni019D
Encoding: 413 413 349
Width: 730
Flags: W
HStem: 0 21G<573 618> 637 24<69 128 487 530 487 731>
VStem: 157 28<-31 598> 589 29<121 548>
DStem2: 231 661 185 598 0.544298 -0.838892<27.8125 647.86>
LayerCount: 2
Back
Fore
SplineSet
731 636 m 1
 683 636 l 2
 638 636 618 581 618 544 c 2
 618 0 l 1
 573 0 l 1
 185 598 l 1
 185 -26 l 1
 185 -26 178 -78 131 -90 c 0
 93 -99 59 -82 51 -51 c 0
 36 -1 111 14 127 -47 c 0
 128 -54 128 -61 126 -68 c 1
 154 -72 157 -55 157 -31 c 2
 157 600 l 2
 157 618 139 637 121 637 c 2
 69 637 l 1
 69 661 l 1
 231 661 l 1
 589 121 l 1
 589 544 l 2
 589 581 571 636 525 636 c 2
 487 636 l 1
 487 661 l 1
 731 661 l 1
 731 636 l 1
EndSplineSet
EndChar

StartChar: uni019E
Encoding: 414 414 350
Width: 510
Flags: W
HStem: -185 21<317 538> 0 21<28 249>
VStem: 98 81<48 373> 387 81<-137 377>
LayerCount: 2
Back
Fore
SplineSet
179 403 m 1
 211 435 266 469 321 472 c 0
 376 476 468 463 468 397 c 2
 468 -137 l 2
 468 -149 480 -164 493 -164 c 2
 538 -164 l 1
 538 -185 l 1
 317 -185 l 1
 317 -164 l 1
 362 -164 l 2
 375 -164 387 -150 387 -137 c 2
 387 364 l 2
 387 407 350 445 307 443 c 0
 258 441 206 403 179 374 c 1
 179 48 l 2
 179 35 192 21 205 21 c 2
 249 21 l 1
 249 0 l 1
 28 0 l 1
 28 21 l 1
 73 21 l 2
 87 21 98 35 98 48 c 2
 98 373 l 1
 44 388 l 1
 44 407 l 1
 179 474 l 1
 179 403 l 1
EndSplineSet
EndChar

StartChar: uni019F
Encoding: 415 415 351
Width: 671
Flags: W
HStem: -21 21<344 349> 304 53<229 447> 650 21<344 349>
VStem: 200 14<257 403> 460 14<257 287 257 403>
LayerCount: 2
Back
Fore
SplineSet
344 0 m 0
 616 0 614 650 344 650 c 0
 74 650 76 0 344 0 c 0
344 -21 m 0
 -55 -21 -55 671 344 671 c 0
 745 671 744 -21 344 -21 c 0
445 304 m 2
 453 304 460 292 460 285 c 2
 460 257 l 1
 474 257 l 1
 474 403 l 1
 460 403 l 1
 460 376 l 2
 460 368 454 357 445 357 c 2
 229 357 l 2
 220 357 214 368 214 376 c 2
 214 403 l 1
 200 403 l 1
 200 257 l 1
 214 257 l 1
 214 285 l 2
 214 292 221 304 229 304 c 2
 445 304 l 2
EndSplineSet
EndChar

StartChar: Ohorn
Encoding: 416 416 352
Width: 751
Flags: W
HStem: -21 21<359 377> 650 21<343 377>
LayerCount: 2
Back
Fore
SplineSet
359 -21 m 0
 -87 -21 -87 671 358 671 c 0
 802 671 803 -21 359 -21 c 0
359 0 m 2
 358 0 l 2
 679 0 677 650 359 650 c 0
 41 650 43 0 359 0 c 2
715 647 m 1
 733 672 728 718 679 721 c 0
 620 725 613 658 648 637 c 1
 652 631 650 626 649 619 c 0
 648 608 642 603 634 596 c 0
 627 590 621 586 612 584 c 1
 623 571 l 1
 636 574 648 576 659 582 c 0
 677 592 685 600 699 617 c 0
 707 627 710 635 715 647 c 1
EndSplineSet
EndChar

StartChar: ohorn
Encoding: 417 417 353
Width: 501
Flags: W
HStem: -9 15<250 254> 455 17<250 254>
LayerCount: 2
Back
Fore
SplineSet
250 -9 m 0
 -45 -9 -44 472 250 472 c 0
 547 472 547 -9 250 -9 c 0
250 6 m 0
 425 6 425 455 250 455 c 0
 74 455 74 6 250 6 c 0
418 542 m 1
 436 567 431 613 382 616 c 0
 323 620 316 554 351 532 c 1
 355 526 354 521 352 514 c 0
 351 503 346 498 337 491 c 0
 330 485 325 482 315 479 c 1
 326 466 l 1
 339 469 351 472 362 477 c 0
 380 487 389 495 402 512 c 0
 410 522 413 531 418 542 c 1
EndSplineSet
EndChar

StartChar: uni01A2
Encoding: 418 418 354
Width: 984
Flags: W
HStem: -191 26<696 952> -21 23<348 366> 648 23<348 366> 665 19<674 698>
VStem: 784 80<-128 466>
LayerCount: 2
Back
Fore
SplineSet
952 -191 m 1xd8
 696 -191 l 1
 696 -165 l 1
 749 -165 l 2
 767 -165 784 -145 784 -128 c 2
 784 509 l 2
 784 569 754 665 687 665 c 0xd8
 644 665 592 626 582 584 c 1
 769 421 718 -21 359 -21 c 0
 -79 -21 -80 671 358 671 c 0xe8
 433 671 505 650 552 612 c 1
 579 652 635 684 676 684 c 0
 781 684 841 614 858 516 c 0
 863 489 864 474 864 447 c 2
 864 -128 l 2
 864 -147 880 -165 899 -165 c 2
 952 -165 l 1
 952 -191 l 1xd8
358 2 m 0
 679 2 677 648 359 648 c 0xe8
 41 648 43 2 358 2 c 0
EndSplineSet
EndChar

StartChar: uni01A3
Encoding: 419 419 355
Width: 692
Flags: W
HStem: -183 26<451 707> -9 17<242 244> 453 19<242 244> 515 19<442 456>
VStem: 539 80<-120 330>
LayerCount: 2
Back
Fore
SplineSet
707 -183 m 1
 451 -183 l 1
 451 -157 l 1
 504 -157 l 2
 522 -157 539 -137 539 -120 c 2
 539 361 l 2
 539 421 521 515 454 515 c 0
 411 515 368 474 361 432 c 1
 499 349 505 -9 242 -9 c 0
 -53 -9 -53 472 242 472 c 0
 272 472 305 466 327 454 c 1
 349 498 399 534 443 534 c 0
 585 534 619 401 619 299 c 2
 619 -120 l 2
 619 -139 635 -157 654 -157 c 2
 707 -157 l 1
 707 -183 l 1
242 8 m 0
 417 8 417 453 242 453 c 0
 66 453 66 8 242 8 c 0
EndSplineSet
EndChar

StartChar: uni01A4
Encoding: 420 420 356
Width: 491
Flags: W
HStem: 0 27<30 285> 367 21<198 331> 636 25<30 315> 640 21<25 91>
VStem: 118 80<64 367 64 636>
LayerCount: 2
Back
Fore
SplineSet
493 537 m 0xd8
 502 413 423 367 331 367 c 2
 198 367 l 1
 198 64 l 2
 198 45 214 27 233 27 c 2
 285 27 l 1
 285 0 l 1
 30 0 l 1
 30 27 l 1
 83 27 l 2
 101 27 118 47 118 64 c 2
 118 603 l 2
 118 621 101 640 83 640 c 2
 25 640 l 2xd8
 3 640 -16 635 -12 611 c 1
 -5 613 2 613 9 612 c 0
 65 598 52 519 5 533 c 0
 -26 541 -44 578 -35 616 c 0
 -23 663 30 661 30 661 c 1xe8
 346 661 l 2
 421 661 486 636 493 537 c 0xd8
418 535 m 0
 418 598 359 636 298 636 c 2
 198 636 l 1xe8
 198 388 l 1
 297 388 l 2
 379 388 419 435 418 535 c 0
EndSplineSet
EndChar

StartChar: uni01A5
Encoding: 421 421 357
Width: 524
Flags: W
HStem: -147 20<34 255> -9 17<281.525 305>
VStem: 104 81<-100 28 -100 350> 431 95<220 254>
DStem2: 376 465 392 460 0.371391 0.928477<1.29987 51.9947>
LayerCount: 2
Back
Fore
SplineSet
540 503 m 0
 535 456 460 469 468 526 c 0
 470 534 472 540 477 546 c 1
 449 562 421 531 411 507 c 2
 392 460 l 1
 460 434 524 367 526 243 c 0
 529 109 405 -7 305 -9 c 0
 259 -10 217 2 185 28 c 1
 185 -100 l 2
 185 -113 197 -127 210 -127 c 2
 255 -127 l 1
 255 -147 l 1
 34 -147 l 1
 34 -127 l 1
 79 -127 l 2
 92 -127 104 -112 104 -100 c 2
 104 363 l 1
 61 386 l 1
 61 405 l 1
 185 465 l 1
 185 424 l 1
 215 453 258 470 305 472 c 0
 331 473 354 471 376 465 c 1
 381 477 388 494 396 515 c 0
 407 540 431 573 480 566 c 0
 518 561 544 535 540 503 c 0
431 239 m 0
 431 399 331 459 298 454 c 0
 212 442 185 391 185 331 c 2
 185 116 l 1
 195 55 225 6 305 8 c 0
 384 10 431 123 431 239 c 0
EndSplineSet
EndChar

StartChar: uni01A6
Encoding: 422 422 358
Width: 627
Flags: W
HStem: 0 18<627 642> 0 26<26 281> 365 27<194 301> 631 32<194 315> 737 27<26 81 26 281>
VStem: 114 80<63 365 63 631 63 705>
DStem2: 384 369 301 365 0.496139 -0.868243<0 317.033>
LayerCount: 2
Back
Fore
SplineSet
642 0 m 1xbc
 578 0 l 2
 535 0 497 22 477 57 c 2
 301 365 l 1
 194 365 l 1
 194 63 l 2
 194 44 210 26 229 26 c 2
 281 26 l 1
 281 0 l 1
 26 0 l 1
 26 26 l 1
 79 26 l 2x7c
 97 26 114 46 114 63 c 2
 114 700 l 2
 114 717 97 737 79 737 c 2
 26 737 l 1
 26 764 l 1
 281 764 l 1
 281 737 l 1
 229 737 l 2
 210 737 194 719 194 700 c 2
 194 663 l 1
 344 663 l 2
 419 663 509 636 516 537 c 0
 524 427 462 378 384 369 c 1
 557 72 l 2
 569 52 602 18 629 18 c 2
 642 18 l 1
 642 0 l 1xbc
430 535 m 0
 430 598 370 631 309 631 c 2
 194 631 l 1
 194 392 l 1
 308 392 l 2
 390 392 431 435 430 535 c 0
EndSplineSet
EndChar

StartChar: uni01A7
Encoding: 423 423 359
Width: 502
Flags: W
HStem: -10 24<200 234> 654 20<232 258>
VStem: 9 77<131 174> 381 85<490 525>
LayerCount: 2
Back
Fore
SplineSet
9 174 m 0
 9 97 78 -10 224 -10 c 0
 306 -10 326 35 381 40 c 0
 392 41 422 7 429 -2 c 1
 443 -2 l 1
 454 215 l 1
 437 215 l 1
 410 115 325 14 214 14 c 0
 142 14 86 51 86 131 c 0
 86 340 465 289 466 490 c 0
 467 594 361 674 256 674 c 0
 148 674 152 625 103 630 c 0
 89 631 63 661 55 673 c 1
 41 673 l 1
 28 452 l 1
 45 452 l 1
 70 546 139 654 247 654 c 0
 319 654 381 597 381 525 c 0
 381 357 9 381 9 174 c 0
EndSplineSet
EndChar

StartChar: uni01A8
Encoding: 424 424 360
Width: 385
Flags: W
VStem: 35 63<100 119>
LayerCount: 2
Back
Fore
SplineSet
35 119 m 0
 35 43 114 -2 188 -9 c 0
 230 -13 284 9 324 26 c 1
 324 136 l 1
 317 139 l 1
 309 77 250 0 181 12 c 0
 134 20 97 52 98 100 c 0
 100 193 335 176 337 347 c 0
 338 420 258 467 181 472 c 0
 140 475 93 457 55 440 c 1
 55 330 l 1
 61 327 l 1
 71 383 110 449 174 449 c 0
 221 449 269 429 272 383 c 0
 279 276 35 294 35 119 c 0
EndSplineSet
EndChar

StartChar: uni01A9
Encoding: 425 425 361
Width: 678
Flags: W
HStem: 0 22<62 95 62 399> 471 21G<573 591> 636 22<62 570>
DStem2: 238 585 140 585 0.514496 -0.857493<0 241.127> 149 73 205 73 0.520607 0.853796<29.154 267.884>
LayerCount: 2
Back
Fore
SplineSet
540 0 m 1
 594 197 l 1
 569 197 l 1
 556 165 l 2
 530 102 466 22 391 22 c 2
 243 22 l 258
 213 22 190 48 205 73 c 2
 380 360 l 1
 238 585 l 2
 222 611 249 636 275 636 c 258
 428 636 l 2
 503 636 550 571 566 502 c 2
 573 471 l 1
 591 471 l 1
 570 658 l 1
 62 658 l 1
 62 636 l 1
 85 636 l 258
 111 636 128 604 140 585 c 2
 290 335 l 1
 288 302 l 1
 149 73 l 2
 139 57 109 22 88 22 c 258
 62 22 l 1
 62 0 l 1
 540 0 l 1
EndSplineSet
EndChar

StartChar: uni01AA
Encoding: 426 426 362
Width: 283
Flags: W
HStem: 489 18<100.029 117> 655 18<100.029 117>
VStem: 20 19<581 594> 182 81<-89 583>
LayerCount: 2
Back
Fore
SplineSet
383 -125 m 0
 382 -157 346 -175 307 -175 c 0
 253 -175 182 -134 182 -80 c 2
 182 521 l 1
 165 501 140 489 112 489 c 0
 62 489 20 530 20 581 c 0
 20 632 62 673 112 673 c 0
 173 673 263 650 263 570 c 2
 263 -129 l 2
 263 -154 285 -168 307 -159 c 1
 303 -152 301 -146 301 -138 c 0
 301 -76 385 -70 383 -125 c 0
182 609 m 1
 171 636 143 655 112 655 c 0
 72 655 39 622 39 581 c 0
 39 540 72 507 112 507 c 0
 144 507 171 528 182 556 c 1
 182 609 l 1
EndSplineSet
EndChar

StartChar: uni01AB
Encoding: 427 427 363
Width: 265
Flags: W
HStem: -130 72<176 189> -9 21G<141.5 173.5> 413 43<165 230>
VStem: 84 81<61 413>
LayerCount: 2
Back
Fore
SplineSet
248 64 m 1
 249 53 242 34 227 18 c 1
 227 4 226 -25 226 -64 c 0
 226 -103 208 -129 176 -130 c 0
 128 -131 131 -58 189 -58 c 0
 197 -58 203 -60 210 -64 c 1
 217 -47 213 -12 212 6 c 1
 199 -3 183 -9 164 -9 c 0
 119 -9 84 35 84 73 c 2
 84 413 l 1
 28 413 l 1
 28 435 l 1
 147 560 l 1
 165 546 l 1
 165 456 l 1
 246 456 l 1
 230 413 l 1
 165 413 l 1
 165 65 l 2
 165 48 182 35 199 36 c 0
 219 38 247 66 246 83 c 1
 248 64 l 1
EndSplineSet
EndChar

StartChar: uni01AC
Encoding: 428 428 364
Width: 741
Flags: W
HStem: 0 26<251 507> 628 33<99 311 105 551>
VStem: 339 80<63 583>
LayerCount: 2
Back
Fore
SplineSet
737 490 m 1
 715 489 l 1
 694 571 617 628 536 628 c 2
 456 628 l 2
 431 628 419 599 419 578 c 2
 419 63 l 2
 419 44 435 26 454 26 c 2
 507 26 l 1
 507 0 l 1
 251 0 l 1
 251 26 l 1
 304 26 l 2
 322 26 339 46 339 63 c 2
 339 578 l 2
 339 601 328 628 302 628 c 2
 100 628 l 2
 77 628 59 623 63 597 c 1
 70 599 77 599 84 598 c 0
 138 584 131 507 80 522 c 0
 49 530 32 564 41 602 c 0
 53 649 98 661 105 661 c 2
 680 661 l 1
 737 490 l 1
EndSplineSet
EndChar

StartChar: uni01AD
Encoding: 429 429 365
Width: 265
Flags: W
HStem: 411 47<165 230>
VStem: 84 81<62 411 508 639> 206 76<635 648>
LayerCount: 2
Back
Fore
SplineSet
282 635 m 0
 283 593 206 589 206 648 c 0
 206 656 208 662 212 669 c 1
 190 678 165 663 165 639 c 2
 165 458 l 1
 246 458 l 1
 230 411 l 1
 165 411 l 1
 165 65 l 2
 165 48 182 35 199 36 c 0
 219 38 247 66 246 83 c 1
 248 64 l 1
 250 42 220 -8 164 -9 c 0
 119 -9 84 35 84 73 c 2
 84 411 l 1
 28 411 l 1
 28 435 l 1
 84 509 l 1
 84 592 l 2
 84 646 158 687 212 687 c 0
 251 687 281 667 282 635 c 0
EndSplineSet
EndChar

StartChar: uni01AE
Encoding: 430 430 366
Width: 741
Flags: W
HStem: 630 31<103 304 103 542>
VStem: 339 80<-32 590> 459 75<-76 -63>
LayerCount: 2
Back
Fore
SplineSet
738 490 m 1
 715 489 l 1
 694 571 617 630 536 630 c 2
 456 630 l 2
 431 630 419 601 419 580 c 0
 419 -36 420 85 419 -67 c 0
 419 -91 443 -106 465 -97 c 1
 461 -90 459 -84 459 -76 c 0
 459 -22 535 -16 534 -63 c 0
 533 -95 504 -115 465 -115 c 0
 396 -115 339 -77 339 -18 c 2
 339 580 l 2
 339 603 328 630 302 630 c 2
 261 630 l 2
 171 630 88 585 69 489 c 1
 45 490 l 1
 103 661 l 1
 681 661 l 1
 738 490 l 1
EndSplineSet
EndChar

StartChar: Uhorn
Encoding: 431 431 367
Width: 656
Flags: W
HStem: -13 22<359 376> 634 27<40 95 40 296 463 521 463 676>
VStem: 128 80<162 605> 551 37<207 605>
LayerCount: 2
Back
Fore
SplineSet
676 634 m 1
 623 634 l 2
 604 634 588 616 588 597 c 2
 588 220 l 2
 588 104 486 -14 374 -13 c 0
 228 -11 128 20 128 181 c 2
 128 597 l 2
 128 614 111 634 93 634 c 2
 40 634 l 1
 40 661 l 1
 296 661 l 1
 296 634 l 1
 243 634 l 2
 224 634 208 616 208 597 c 2
 208 132 l 2
 208 54 288 9 371 9 c 0
 469 9 551 107 551 209 c 2
 551 597 l 2
 551 615 534 634 515 634 c 2
 463 634 l 1
 463 661 l 1
 676 661 l 1
 676 634 l 1
788 678 m 1
 807 704 802 750 752 753 c 0
 693 757 686 690 721 669 c 1
 725 663 724 658 723 650 c 0
 721 640 716 634 708 627 c 0
 701 622 695 618 686 616 c 1
 697 603 l 1
 709 605 721 608 732 614 c 0
 751 623 759 632 772 649 c 0
 780 659 784 667 788 678 c 1
EndSplineSet
EndChar

StartChar: uhorn
Encoding: 432 432 368
Width: 524
Flags: W
HStem: -9 21G<209 269.5> 442 21<15 64 318 368>
VStem: 85 81<95 417> 388 81<98 463>
LayerCount: 2
Back
Fore
SplineSet
527 61 m 1
 388 -9 l 1
 388 65 l 1
 358 28 303 -9 236 -9 c 0
 182 -9 85 -23 85 116 c 2
 85 415 l 2
 85 427 73 442 60 442 c 2
 15 442 l 1
 15 463 l 1
 166 463 l 1
 166 111 l 2
 166 53 205 24 251 27 c 0
 306 30 360 67 388 99 c 1
 388 415 l 2
 388 427 376 442 363 442 c 2
 318 442 l 1
 318 463 l 1
 469 463 l 1
 469 97 l 1
 527 81 l 1
 527 61 l 1
460 542 m 1
 478 567 473 613 424 616 c 0
 365 620 358 554 393 532 c 1
 397 526 395 521 394 514 c 0
 393 503 387 498 379 491 c 0
 372 485 366 482 357 479 c 1
 368 466 l 1
 381 469 393 472 404 477 c 0
 422 487 430 495 444 512 c 0
 452 522 455 531 460 542 c 1
EndSplineSet
EndChar

StartChar: uni01B1
Encoding: 433 433 369
Width: 680
Flags: W
HStem: 0 24<319 353> 707 52<106 212 432 564>
VStem: 0 257<296 313.858 296 759> 212 45<687 759> 432 49<667 707>
LayerCount: 2
Back
Fore
SplineSet
69 655 m 1xd8
 106 759 l 1
 257 759 l 1
 257 669 l 2
 257 514 99 439 99 296 c 0
 99 157 206 21 345 24 c 0
 482 27 571 164 579 301 c 0
 588 444 432 517 432 669 c 2
 432 759 l 1
 582 759 l 1
 609 652 l 1
 575 644 l 1
 564 707 l 1
 481 707 l 1
 481 688 l 2
 481 521 677 463 678 296 c 0
 680 113 536 0 346 0 c 0
 164 0 -2 113 0 296 c 0xe8
 2 465 212 519 212 688 c 2
 212 707 l 1
 129 707 l 1
 105 650 l 1
 69 655 l 1xd8
EndSplineSet
EndChar

StartChar: uni01B2
Encoding: 434 434 370
Width: 671
Flags: W
HStem: -7 16<375 393> 634 27<40 95 40 296>
VStem: 128 80<168 603>
LayerCount: 2
Back
Fore
SplineSet
613 635 m 0
 648 545 699 -7 387 -7 c 0
 241 -7 128 20 128 181 c 2
 128 597 l 2
 128 614 111 634 93 634 c 2
 40 634 l 1
 40 661 l 1
 296 661 l 1
 296 634 l 1
 243 634 l 2
 224 634 208 616 208 597 c 2
 208 132 l 2
 208 54 301 9 384 9 c 0
 642 9 627 453 588 600 c 1
 568 599 534 615 525 642 c 0
 516 670 536 697 572 685 c 0
 597 676 601 665 613 635 c 0
EndSplineSet
EndChar

StartChar: uni01B3
Encoding: 435 435 371
Width: 653
Flags: W
HStem: 0 27<183 439> 633 28<426 460 426 646>
VStem: 272 80<64 334>
DStem2: 209 587 123 591 0.501567 -0.865119<0 250.474> 341 357 352 337 0.586897 0.809661<0 181.9>
LayerCount: 2
Back
Fore
SplineSet
646 633 m 1
 611 633 l 2
 571 633 510 555 489 526 c 2
 352 337 l 1
 352 64 l 2
 352 46 367 27 386 27 c 2
 439 27 l 1
 439 0 l 1
 183 0 l 1
 183 27 l 1
 236 27 l 2
 254 27 272 46 272 64 c 2
 272 334 l 1
 123 591 l 2
 119 598 101 618 93 625 c 0
 87 630 68 640 56 639 c 0
 33 638 1 644 6 611 c 1
 13 613 20 613 27 612 c 0
 85 597 66 522 23 535 c 0
 -8 543 -27 578 -18 616 c 0
 -6 663 61 661 84 661 c 0
 121 661 171 654 209 587 c 2
 341 357 l 1
 444 507 l 2
 461 532 530 633 452 633 c 2
 426 633 l 1
 426 661 l 1
 646 661 l 1
 646 633 l 1
EndSplineSet
EndChar

StartChar: uni01B4
Encoding: 436 436 372
Width: 479
Flags: W
HStem: 445 18<18 45 294 326 294 466>
DStem2: 161 -36 174 -53 0.429934 0.902861<0 93.9405>
LayerCount: 2
Back
Fore
SplineSet
466 443 m 1
 447 443 l 2
 422 443 394 408 384 388 c 2
 174 -53 l 2
 163 -76 146 -88 121 -91 c 0
 33 -102 33 3 105 3 c 0
 145 3 156 -37 139 -57 c 0
 134 -63 131 -65 124 -68 c 1
 145 -68 153 -53 161 -36 c 2
 201 49 l 1
 197 51 l 1
 63 421 l 2
 55 444 37 445 20 445 c 0
 -5 445 -21 440 -17 413 c 1
 -9 415 -3 415 5 414 c 0
 59 400 51 326 0 341 c 0
 -31 349 -49 380 -40 418 c 0
 -29 461 5 463 45 463 c 0
 79 463 132 455 144 415 c 2
 234 122 l 1
 234 123 344 358 344 358 c 1
 356 385 360 443 317 443 c 2
 294 443 l 1
 294 463 l 1
 466 463 l 1
 466 443 l 1
EndSplineSet
EndChar

StartChar: uni01B5
Encoding: 437 437 373
Width: 582
Flags: W
HStem: 0 27<155 507> 343 49<208 259 388 448> 469 21G<68 94> 634 27<113 448>
DStem2: 49 21 155 27 0.546268 0.837611<62.93 384.427 495.205 731.396> 68 469 94 469 0.228191 0.973616<5.93297 53.6858>
LayerCount: 2
Back
Fore
SplineSet
566 206 m 1
 507 0 l 1
 49 0 l 1
 49 21 l 1
 259 343 l 1
 208 343 l 1
 208 392 l 1
 289 392 l 1
 448 634 l 1
 278 634 l 2
 214 634 125 579 107 515 c 2
 94 469 l 1
 68 469 l 1
 113 661 l 1
 546 661 l 1
 546 639 l 1
 388 392 l 1
 448 392 l 1
 448 343 l 1
 359 343 l 1
 155 27 l 1
 339 27 l 2
 413 27 491 91 522 157 c 2
 544 204 l 1
 566 206 l 1
EndSplineSet
EndChar

StartChar: uni01B6
Encoding: 438 438 374
Width: 404
Flags: W
HStem: -2 22<116 332> 238 49<106 158 280 346> 443 20<71 282>
DStem2: 12 -2 116 20 0.519721 0.854336<72.8464 280.92 386.834 520.513>
LayerCount: 2
Back
Fore
SplineSet
389 463 m 1
 280 287 l 1
 346 287 l 1
 346 238 l 1
 252 238 l 1
 116 20 l 1
 228 20 l 2
 282 20 336 84 353 132 c 1
 370 125 l 1
 332 -2 l 1
 12 -2 l 1
 158 238 l 1
 106 238 l 1
 106 287 l 1
 185 287 l 1
 282 443 l 1
 161 443 l 2
 108 443 72 367 66 321 c 1
 48 331 l 1
 71 463 l 1
 389 463 l 1
EndSplineSet
EndChar

StartChar: uni01B7
Encoding: 439 439 375
Width: 490
Flags: W
HStem: 0 30<191 228> 652 20<119 366>
LayerCount: 2
Back
Fore
SplineSet
473 672 m 1
 283 425 l 1
 595 357 490 0 228 0 c 0
 138 0 77 43 81 104 c 0
 87 193 192 190 188 113 c 0
 187 82 166 65 135 70 c 1
 140 48 169 30 191 30 c 0
 243 30 391 70 391 196 c 0
 391 320 269 371 160 371 c 1
 160 400 l 1
 366 652 l 1
 210 652 l 2
 157 652 121 576 115 530 c 1
 96 540 l 1
 119 672 l 1
 473 672 l 1
EndSplineSet
EndChar

StartChar: uni01B8
Encoding: 440 440 376
Width: 465
Flags: W
HStem: 0 30<280 317> 652 20<142 389>
LayerCount: 2
Back
Fore
SplineSet
35 672 m 1
 225 425 l 1
 -87 357 18 0 280 0 c 0
 370 0 431 43 427 104 c 0
 421 193 317 190 320 113 c 0
 322 82 342 65 373 70 c 1
 368 48 339 30 317 30 c 0
 265 30 117 70 117 196 c 0
 117 320 239 371 348 371 c 1
 348 400 l 1
 142 652 l 1
 298 652 l 2
 351 652 387 576 393 530 c 1
 412 540 l 1
 389 672 l 1
 35 672 l 1
EndSplineSet
EndChar

StartChar: uni01B9
Encoding: 441 441 377
Width: 465
Flags: W
HStem: 444 20<95 334>
DStem2: 203 444 95 464 0.52145 -0.853282<0 214.553>
LayerCount: 2
Back
Fore
SplineSet
448 -116 m 0
 452 -177 391 -223 305 -220 c 0
 48 -212 1 144 243 217 c 1
 95 464 l 1
 413 464 l 1
 436 332 l 1
 418 322 l 1
 412 368 377 444 324 444 c 2
 203 444 l 1
 357 192 l 1
 357 163 l 1
 334 163 l 2
 245 163 172 57 177 -24 c 0
 184 -128 280 -192 342 -192 c 0
 364 -192 393 -172 398 -150 c 1
 367 -155 349 -138 347 -107 c 0
 344 -42 442 -29 448 -116 c 0
EndSplineSet
EndChar

StartChar: uni01BA
Encoding: 442 442 378
Width: 465
Flags: W
HStem: 444 20<124 334>
VStem: 93 92<-100 -90>
DStem2: 162 235 290 278 0.635448 0.772143<114.54 270.675>
LayerCount: 2
Back
Fore
SplineSet
442 464 m 1
 290 278 l 1
 375 260 441 230 441 147 c 0
 441 52 343 24 259 -16 c 0
 223 -33 185 -69 185 -95 c 0
 185 -131 222 -166 279 -169 c 0
 341 -173 381 -119 392 -64 c 1
 403 -64 l 1
 397 -145 337 -214 251 -211 c 0
 181 -209 93 -176 93 -92 c 0
 93 -48 122 0 184 19 c 0
 259 42 340 71 343 122 c 0
 347 191 274 206 185 206 c 2
 162 206 l 1
 162 235 l 1
 334 444 l 1
 213 444 l 2
 160 444 125 368 119 322 c 1
 101 332 l 1
 124 464 l 1
 442 464 l 1
EndSplineSet
EndChar

StartChar: uni01BB
Encoding: 443 443 379
Width: 409
Flags: W
HStem: 0 80<108 366> 256 49<115 180 299 359>
LayerCount: 2
Back
Fore
SplineSet
389 118 m 1
 366 0 l 1
 54 0 l 1
 54 40 l 2
 54 118 121 183 180 256 c 1
 115 256 l 1
 115 305 l 1
 214 305 l 1
 243 346 265 389 267 439 c 0
 269 492 233 534 176 537 c 0
 129 540 96 513 75 471 c 0
 68 457 66 449 63 434 c 1
 50 434 l 1
 51 448 53 457 57 471 c 0
 77 539 131 584 202 581 c 0
 272 579 371 547 372 462 c 0
 373 402 340 352 299 305 c 1
 359 305 l 1
 359 256 l 1
 254 256 l 1
 200 204 143 163 127 124 c 0
 113 90 115 97 108 80 c 1
 359 80 l 1
 369 118 l 1
 389 118 l 1
EndSplineSet
EndChar

StartChar: uni01BC
Encoding: 444 444 380
Width: 441
Flags: W
HStem: 404 87<167 186> 574 98<-5 390> 597 75<-5 348> 644 28<-5 50>
VStem: 84 34<382 597> 357 81<229 247>
LayerCount: 2
Back
Fore
SplineSet
438 239 m 0xac
 438 113 318 -21 184 -10 c 0
 113 -4 56 39 57 95 c 0
 57 140 90 163 123 159 c 0
 146 156 159 128 157 104 c 0
 154 77 131 62 106 62 c 1
 115 51 121 45 134 38 c 0
 150 29 162 26 181 24 c 0
 290 12 357 119 357 232 c 0
 357 325 258 404 167 404 c 0
 133 404 84 382 84 382 c 1
 84 607 l 2
 84 625 66 644 48 644 c 2
 -5 644 l 1x9c
 -5 672 l 1
 383 672 l 1
 390 574 l 1
 378 574 l 1xcc
 373 583 l 2
 366 596 342 597 330 597 c 2
 118 597 l 1
 118 468 l 1
 145 482 155 491 186 491 c 0
 360 491 438 371 438 239 c 0xac
EndSplineSet
EndChar

StartChar: uni01BD
Encoding: 445 445 381
Width: 355
Flags: W
HStem: 260 65<146 165> 385 78<22 298> 401 62<22 263> 443 20<22 65>
VStem: 84 24<245 401> 273 55<144 154>
LayerCount: 2
Back
Fore
SplineSet
328 152 m 0xac
 328 64 250 -25 154 -14 c 0
 111 -9 65 19 65 58 c 0
 65 98 88 106 111 103 c 0
 128 101 140 89 137 65 c 0
 136 46 117 35 100 35 c 1
 114 18 130 11 152 9 c 0
 218 1 273 67 273 146 c 0
 273 211 210 260 146 260 c 0
 115 260 84 245 84 245 c 1
 84 417 l 2
 84 430 72 443 59 443 c 2
 22 443 l 1x9c
 22 463 l 1
 293 463 l 1
 298 385 l 1
 290 385 l 1xcc
 286 391 l 1
 282 400 265 401 256 401 c 2
 108 401 l 1
 108 309 l 1
 127 318 143 325 165 325 c 0
 265 325 328 235 328 152 c 0xac
EndSplineSet
EndChar

StartChar: uni01BE
Encoding: 446 446 382
Width: 441
Flags: W
HStem: 495 43<22 83 156 225>
VStem: 83 73<433 495 538 680> 351 81<201 223>
LayerCount: 2
Back
Fore
SplineSet
432 210 m 0
 432 353 339 447 211 451 c 0
 180 452 156 433 156 433 c 1
 156 495 l 1
 225 495 l 1
 225 538 l 1
 156 538 l 1
 156 657 l 1
 83 680 l 1
 83 538 l 1
 22 538 l 1
 22 495 l 1
 83 495 l 1
 83 354 l 1
 113 371 133 376 167 376 c 0
 249 376 351 318 351 203 c 0
 351 108 272 6 181 15 c 0
 150 18 118 46 98 70 c 1
 123 70 151 85 153 112 c 0
 155 136 138 163 115 166 c 0
 82 170 47 148 46 103 c 0
 46 47 122 -12 184 -18 c 0
 301 -30 432 97 432 210 c 0
EndSplineSet
EndChar

StartChar: uni01BF
Encoding: 447 447 383
Width: 524
Flags: W
HStem: -147 20<34 255>
VStem: 104 81<-100 -75 -100 350> 431 95<236 254>
LayerCount: 2
Back
Fore
SplineSet
526 243 m 0
 526 113 350 0 185 -75 c 1
 185 -100 l 2
 185 -113 197 -127 210 -127 c 2
 255 -127 l 1
 255 -147 l 1
 34 -147 l 1
 34 -127 l 1
 79 -127 l 2
 92 -127 104 -112 104 -100 c 2
 104 364 l 1
 61 387 l 1
 61 405 l 1
 185 465 l 1
 185 424 l 1
 219 453 258 470 305 472 c 0
 427 476 526 412 526 243 c 0
431 239 m 0
 431 399 331 459 298 454 c 0
 212 442 185 391 185 331 c 2
 185 -46 l 1
 283 -1 431 73 431 239 c 0
EndSplineSet
EndChar

StartChar: uni01C0
Encoding: 448 448 384
Width: 155
Flags: W
HStem: -19 21G<47 112>
VStem: 47 65<-19 723>
LayerCount: 2
Back
Fore
SplineSet
112 -19 m 1
 47 -19 l 1
 47 723 l 1
 112 723 l 1
 112 -19 l 1
EndSplineSet
EndChar

StartChar: uni01C2
Encoding: 450 450 386
Width: 365
Flags: W
HStem: -19 21G<151 223> 279 41<33 151 223 337> 387 41<33 151 223 337>
VStem: 151 72<-19 279 320 387 428 723>
LayerCount: 2
Back
Fore
SplineSet
337 279 m 1
 223 279 l 1
 223 -19 l 1
 151 -19 l 1
 151 279 l 1
 33 279 l 1
 33 320 l 1
 151 320 l 1
 151 387 l 1
 33 387 l 1
 33 428 l 1
 151 428 l 1
 151 723 l 1
 223 723 l 1
 223 428 l 1
 337 428 l 1
 337 387 l 1
 223 387 l 1
 223 320 l 1
 337 320 l 1
 337 279 l 1
EndSplineSet
EndChar

StartChar: uni01C3
Encoding: 451 451 387
Width: 319
Flags: W
HStem: -5 159<99 122>
VStem: 102 75<213 244.223 213 555>
LayerCount: 2
Back
Fore
SplineSet
99 704 m 0
 105 716 118 717 124 704 c 0
 158 639 177 616 177 555 c 0
 177 420 122 348 122 213 c 0
 122 181 102 182 102 213 c 0
 102 348 47 420 47 555 c 0
 47 616 70 642 99 704 c 0
37 74 m 0
 37 118 68 154 109 154 c 0
 151 154 187 118 187 74 c 0
 187 31 153 -5 112 -5 c 0
 70 -5 37 31 37 74 c 0
EndSplineSet
EndChar

StartChar: uni01C4
Encoding: 452 452 388
Width: 1315
Flags: W
HStem: 0 27<23 304 865 1217> 0 33<226 328> 469 21G<779 804> 634 27<23 78 824 1158>
VStem: 111 80<64 581>
DStem2: 759 21 865 28 0.546143 0.837692<63.755 730.579> 779 469 804 469 0.228191 0.973616<5.70478 53.4576>
LayerCount: 2
Back
Fore
SplineSet
669 347 m 0xb8
 670 172 516 0 304 0 c 2
 23 0 l 1
 23 27 l 1
 76 27 l 2
 94 27 111 47 111 64 c 2
 111 597 l 2
 111 614 94 634 76 634 c 2
 23 634 l 1
 23 661 l 1
 404 661 l 2
 598 661 668 484 669 347 c 0xb8
582 359 m 0
 573 493 505 628 371 628 c 2
 228 628 l 2
 203 628 191 599 191 578 c 2
 191 83 l 2
 191 62 203 33 228 33 c 2
 322 33 l 2x78
 485 33 592 196 582 359 c 0
1276 206 m 1
 1217 0 l 1xb8
 759 0 l 1
 759 21 l 1
 1158 633 l 1
 988 633 l 2
 922 633 836 581 817 515 c 2
 804 469 l 1
 779 469 l 1
 824 661 l 1
 1256 661 l 1
 1256 639 l 1
 865 28 l 1
 1049 28 l 2
 1125 28 1200 90 1232 157 c 2
 1254 204 l 1
 1276 206 l 1
931 785 m 1
 956 785 l 1
 1032 728 l 1
 1039 728 l 1
 1116 785 l 1
 1138 785 l 1
 1043 692 l 1
 1027 692 l 1
 931 785 l 1
EndSplineSet
EndChar

StartChar: uni01C5
Encoding: 453 453 389
Width: 1123
Flags: W
HStem: -2 23<826 1043> 0 27<23 304> 0 33<226 328> 442 21<780 992> 628 33<23 376> 634 27<23 78>
VStem: 111 80<64 580>
DStem2: 722 -2 826 21 0.519581 0.854421<73.6881 519.65>
LayerCount: 2
Back
Fore
SplineSet
669 347 m 0x16
 670 172 516 0 304 0 c 2
 23 0 l 1
 23 27 l 1
 76 27 l 2
 94 27 111 47 111 64 c 2
 111 597 l 2
 111 614 94 634 76 634 c 2
 23 634 l 1x56
 23 661 l 1x1a
 404 661 l 2
 598 661 668 484 669 347 c 0x16
582 359 m 0
 573 493 505 628 371 628 c 2
 228 628 l 2
 203 628 191 599 191 578 c 2
 191 83 l 2
 191 62 203 33 228 33 c 2
 322 33 l 2x3a
 485 33 592 196 582 359 c 0
1099 463 m 1
 826 21 l 1
 938 21 l 2
 994 21 1046 83 1063 132 c 1
 1081 125 l 1
 1043 -2 l 1
 722 -2 l 1x92
 992 442 l 1
 871 442 l 2
 817 442 782 368 776 321 c 1
 757 331 l 1
 780 463 l 1
 1099 463 l 1
813 656 m 1
 838 656 l 1
 914 598 l 1
 921 598 l 1
 998 656 l 1
 1020 656 l 1
 925 562 l 1
 909 562 l 1
 813 656 l 1
EndSplineSet
EndChar

StartChar: uni01C6
Encoding: 454 454 390
Width: 903
Flags: W
HStem: -2 23<608 825> 442 21<562 774> 451 21<246.667 278>
VStem: 379 81<123 680>
DStem2: 504 -2 608 21 0.519581 0.854421<73.6881 519.65>
LayerCount: 2
Back
Fore
SplineSet
483 45 m 1xb0
 379 -9 l 1
 379 21 l 1
 346 1 303 -8 261 -9 c 0
 140 -13 41 70 37 228 c 0
 33 368 138 471 261 472 c 0
 308 473 348 459 379 432 c 1
 379 592 l 1
 331 602 l 1
 334 621 l 1
 460 680 l 1
 460 79 l 1
 483 69 l 1
 483 45 l 1xb0
379 124 m 1
 379 295 l 2
 379 422 358 451 261 451 c 0
 163 450 137 336 135 239 c 0
 132 135 160 2 263 11 c 0
 339 17 369 48 379 124 c 1
881 463 m 1xd0
 608 21 l 1
 720 21 l 2
 776 21 828 83 845 132 c 1
 863 125 l 1
 825 -2 l 1
 504 -2 l 1
 774 442 l 1
 653 442 l 2
 599 442 564 368 558 321 c 1
 539 331 l 1
 562 463 l 1
 881 463 l 1xd0
595 656 m 1
 620 656 l 1
 696 598 l 1
 703 598 l 1
 780 656 l 1
 802 656 l 1
 707 562 l 1
 691 562 l 1
 595 656 l 1
EndSplineSet
EndChar

StartChar: uni01C7
Encoding: 455 455 391
Width: 894
Flags: W
HStem: 0 27<28 511> 634 27<28 83 28 284 659 717 659 915>
VStem: 117 80<69 599> 575 96<-38 -28> 747 80<71 599>
LayerCount: 2
Back
Fore
SplineSet
915 634 m 1
 862 634 l 2
 843 634 827 616 827 597 c 2
 827 133 l 2
 827 29 788 -106 661 -106 c 0
 613 -106 575 -84 575 -36 c 0
 575 -12 598 18 623 18 c 0
 650 18 671 -12 671 -30 c 0
 671 -59 653 -72 630 -78 c 1
 637 -84 655 -91 672 -87 c 0
 729 -74 747 11 747 71 c 2
 747 597 l 2
 747 614 730 634 712 634 c 2
 659 634 l 1
 659 661 l 1
 915 661 l 1
 915 634 l 1
561 179 m 1
 511 0 l 1
 28 0 l 1
 28 27 l 1
 81 27 l 2
 109 27 117 56 117 79 c 2
 117 597 l 2
 117 615 99 634 81 634 c 2
 28 634 l 1
 28 661 l 1
 284 661 l 1
 284 634 l 1
 231 634 l 2
 212 634 197 615 197 597 c 2
 197 76 l 2
 197 53 209 26 235 26 c 2
 355 26 l 2
 438 26 520 101 543 179 c 1
 561 179 l 1
EndSplineSet
EndChar

StartChar: uni01C8
Encoding: 456 456 392
Width: 854
Flags: W
HStem: -148 16<621 638> 0 27<28 511> 634 27<28 83 28 284>
VStem: 117 80<74 605> 672 83<572.98 589> 684 81<-69 390>
LayerCount: 2
Back
Fore
SplineSet
561 179 m 1xf0
 511 0 l 1
 28 0 l 1
 28 27 l 1
 81 27 l 2
 109 27 117 56 117 79 c 2
 117 597 l 2
 117 615 99 634 81 634 c 2
 28 634 l 1
 28 661 l 1
 284 661 l 1
 284 634 l 1
 231 634 l 2
 212 634 197 615 197 597 c 2
 197 76 l 2
 197 53 209 26 235 26 c 2
 355 26 l 2
 438 26 520 101 543 179 c 1
 561 179 l 1xf0
755 583 m 0xf8
 755 528 672 528 672 583 c 0
 672 639 755 639 755 583 c 0xf8
765 -35 m 2xf4
 765 -106 693 -148 638 -148 c 0
 538 -148 561 -46 612 -45 c 0
 646 -44 668 -94 640 -117 c 0
 633 -123 629 -128 621 -132 c 1
 632 -132 644 -130 654 -125 c 0
 676 -113 684 -94 684 -69 c 2
 684 390 l 1
 644 403 l 1
 644 417 l 1
 765 474 l 1
 765 -35 l 2xf4
EndSplineSet
EndChar

StartChar: uni01C9
Encoding: 457 457 393
Width: 549
Flags: W
HStem: -148 16<316 333> 0 21<31 252>
VStem: 101 81<48 569> 367 83<572.98 589> 379 81<-69 390>
LayerCount: 2
Back
Fore
SplineSet
450 583 m 0xf0
 450 528 367 528 367 583 c 0
 367 639 450 639 450 583 c 0xf0
460 -35 m 2xe8
 460 -106 388 -148 333 -148 c 0
 233 -148 256 -46 307 -45 c 0
 341 -44 363 -94 335 -117 c 0
 328 -123 324 -128 316 -132 c 1
 327 -132 339 -130 349 -125 c 0
 371 -113 379 -94 379 -69 c 2
 379 390 l 1
 339 403 l 1
 339 417 l 1
 460 474 l 1
 460 -35 l 2xe8
252 0 m 1
 31 0 l 1
 31 21 l 1
 76 21 l 2
 89 21 101 36 101 48 c 2
 101 569 l 1
 46 584 l 1
 46 603 l 1
 182 670 l 1
 182 48 l 2
 182 35 194 21 207 21 c 2
 252 21 l 1
 252 0 l 1
EndSplineSet
EndChar

StartChar: uni01CA
Encoding: 458 458 394
Width: 1057
Flags: W
HStem: 0 28<40 279> 634 27<66 120 503 740 822 877 822 1078>
VStem: 154 22<106.371 597> 605 23<80 551> 738 96<-38 -28> 910 80<71 601>
DStem2: 222 661 176 598 0.544298 -0.838892<27.8125 695.862>
LayerCount: 2
Back
Fore
SplineSet
1078 634 m 1
 1025 634 l 2
 1006 634 990 616 990 597 c 2
 990 133 l 2
 990 29 951 -106 824 -106 c 0
 776 -106 738 -84 738 -36 c 0
 738 -12 761 18 786 18 c 0
 813 18 834 -12 834 -30 c 0
 834 -59 816 -72 793 -78 c 1
 800 -84 818 -91 835 -87 c 0
 892 -74 910 11 910 71 c 2
 910 597 l 2
 910 614 893 634 875 634 c 2
 822 634 l 1
 822 661 l 1
 1078 661 l 1
 1078 634 l 1
741 633 m 1
 693 633 l 2
 648 633 628 578 628 541 c 2
 628 0 l 1
 564 0 l 1
 176 598 l 1
 176 120 l 2
 176 85 198 28 241 28 c 2
 279 28 l 1
 279 0 l 1
 40 0 l 1
 40 28 l 1
 89 28 l 2
 131 28 154 85 154 120 c 2
 154 597 l 2
 154 615 136 634 118 634 c 2
 66 634 l 1
 66 661 l 1
 222 661 l 1
 605 80 l 1
 605 541 l 2
 605 578 586 633 541 633 c 2
 503 633 l 1
 503 661 l 1
 741 661 l 1
 741 633 l 1
EndSplineSet
EndChar

StartChar: uni01CB
Encoding: 459 459 395
Width: 1017
Flags: W
HStem: -148 16<784 801> 0 28<40 279> 634 27<66 120 503 741>
VStem: 154 22<120 597> 605 23<80 543> 835 83<572.98 589> 847 81<-69 390>
DStem2: 222 661 176 598 0.544298 -0.838892<27.8125 695.862>
LayerCount: 2
Back
Fore
SplineSet
741 633 m 1xf8
 693 633 l 2
 648 633 628 578 628 541 c 2
 628 0 l 1
 564 0 l 1
 176 598 l 1
 176 120 l 2
 176 85 198 28 241 28 c 2
 279 28 l 1
 279 0 l 1
 40 0 l 1
 40 28 l 1
 89 28 l 2
 131 28 154 85 154 120 c 2
 154 597 l 2
 154 615 136 634 118 634 c 2
 66 634 l 1
 66 661 l 1
 222 661 l 1
 605 80 l 1
 605 541 l 2
 605 578 586 633 541 633 c 2
 503 633 l 1
 503 661 l 1
 741 661 l 1
 741 633 l 1xf8
918 583 m 0xfc
 918 528 835 528 835 583 c 0
 835 639 918 639 918 583 c 0xfc
928 -35 m 2xfa
 928 -106 856 -148 801 -148 c 0
 701 -148 724 -46 775 -45 c 0
 809 -44 831 -94 803 -117 c 0
 796 -123 792 -128 784 -132 c 1
 795 -132 807 -130 817 -125 c 0
 839 -113 847 -94 847 -69 c 2
 847 390 l 1
 807 403 l 1
 807 417 l 1
 928 474 l 1
 928 -35 l 2xfa
EndSplineSet
EndChar

StartChar: uni01CC
Encoding: 460 460 396
Width: 797
Flags: W
HStem: -148 16<564 581> 0 21<28 249 317 538>
VStem: 98 81<48 373> 387 81<48 375> 615 83<572.98 589> 627 81<-69 390>
LayerCount: 2
Back
Fore
SplineSet
698 583 m 0xf8
 698 528 615 528 615 583 c 0
 615 639 698 639 698 583 c 0xf8
708 -35 m 2xf4
 708 -106 636 -148 581 -148 c 0
 481 -148 504 -46 555 -45 c 0
 589 -44 611 -94 583 -117 c 0
 576 -123 572 -128 564 -132 c 1
 575 -132 587 -130 597 -125 c 0
 619 -113 627 -94 627 -69 c 2
 627 390 l 1
 587 403 l 1
 587 417 l 1
 708 474 l 1
 708 -35 l 2xf4
538 0 m 1
 317 0 l 1
 317 21 l 1
 362 21 l 2
 375 21 387 35 387 48 c 2
 387 363 l 2
 387 406 350 444 307 442 c 0
 258 440 206 402 179 373 c 1
 179 48 l 2
 179 35 192 21 205 21 c 2
 249 21 l 1
 249 0 l 1
 28 0 l 1
 28 21 l 1
 73 21 l 2
 87 21 98 35 98 48 c 2
 98 373 l 1
 44 388 l 1
 44 407 l 1
 179 474 l 1
 179 403 l 1
 211 435 266 469 321 472 c 0
 376 476 468 463 468 397 c 2
 468 48 l 2
 468 36 480 21 493 21 c 2
 538 21 l 1
 538 0 l 1
EndSplineSet
EndChar

StartChar: uni01D5
Encoding: 469 469 405
Width: 643
Flags: W
HStem: -13 22<359 376> 634 27<40 95 40 296 463 521 463 676> 675 84<270 281 442 444> 770 49<250 465>
VStem: 128 80<162 599> 551 37<207 600>
LayerCount: 2
Back
Fore
SplineSet
676 634 m 1
 623 634 l 2
 604 634 588 616 588 597 c 2
 588 220 l 2
 588 104 486 -14 374 -13 c 0
 228 -11 128 20 128 181 c 2
 128 597 l 2
 128 614 111 634 93 634 c 2
 40 634 l 1
 40 661 l 1
 296 661 l 1
 296 634 l 1
 243 634 l 2
 224 634 208 616 208 597 c 2
 208 132 l 2
 208 54 288 9 371 9 c 0
 469 9 551 107 551 209 c 2
 551 597 l 2
 551 615 534 634 515 634 c 2
 463 634 l 1
 463 661 l 1
 676 661 l 1
 676 634 l 1
442 675 m 0
 387 675 387 759 442 759 c 0
 498 759 498 675 442 675 c 0
270 675 m 0
 215 675 215 759 270 759 c 0
 326 759 326 675 270 675 c 0
465 770 m 1
 250 770 l 1
 250 819 l 1
 465 819 l 1
 465 770 l 1
EndSplineSet
EndChar

StartChar: uni01D6
Encoding: 470 470 406
Width: 544
Flags: W
HStem: -9 21G<209 269.5> 442 21<15 64 318 368> 525 84<176 178 338.032 351> 642 49<153 368>
VStem: 85 81<95 417> 388 81<98 463>
LayerCount: 2
Back
Fore
SplineSet
368 642 m 1
 153 642 l 1
 153 691 l 1
 368 691 l 1
 368 642 l 1
527 61 m 1
 388 -9 l 1
 388 65 l 1
 358 28 303 -9 236 -9 c 0
 182 -9 85 -23 85 116 c 2
 85 415 l 2
 85 427 73 442 60 442 c 2
 15 442 l 1
 15 463 l 1
 166 463 l 1
 166 111 l 2
 166 53 205 24 251 27 c 0
 306 30 360 67 388 99 c 1
 388 415 l 2
 388 427 376 442 363 442 c 2
 318 442 l 1
 318 463 l 1
 469 463 l 1
 469 97 l 1
 527 81 l 1
 527 61 l 1
348 525 m 0
 293 525 293 609 348 609 c 0
 404 609 404 525 348 525 c 0
176 525 m 0
 121 525 121 609 176 609 c 0
 232 609 232 525 176 525 c 0
EndSplineSet
EndChar

StartChar: uni01D7
Encoding: 471 471 407
Width: 643
Flags: W
HStem: -13 22<359 376> 634 27<40 95 40 296 463 521 463 676> 675 84<291 298 462 473>
VStem: 128 80<162 599> 551 37<207 600>
LayerCount: 2
Back
Fore
SplineSet
676 634 m 1
 623 634 l 2
 604 634 588 616 588 597 c 2
 588 220 l 2
 588 104 486 -14 374 -13 c 0
 228 -11 128 20 128 181 c 2
 128 597 l 2
 128 614 111 634 93 634 c 2
 40 634 l 1
 40 661 l 1
 296 661 l 1
 296 634 l 1
 243 634 l 2
 224 634 208 616 208 597 c 2
 208 132 l 2
 208 54 288 9 371 9 c 0
 469 9 551 107 551 209 c 2
 551 597 l 2
 551 615 534 634 515 634 c 2
 463 634 l 1
 463 661 l 1
 676 661 l 1
 676 634 l 1
462 675 m 0
 407 675 407 759 462 759 c 0
 518 759 518 675 462 675 c 0
291 675 m 0
 236 675 236 759 291 759 c 0
 347 759 347 675 291 675 c 0
454 876 m 1
 326 767 l 1
 284 767 l 1
 369 876 l 1
 454 876 l 1
EndSplineSet
EndChar

StartChar: uni01D8
Encoding: 472 472 408
Width: 544
Flags: W
HStem: -9 21G<209 269.5> 442 21<15 64 318 368> 525 84<176 184 338.032 355>
VStem: 85 81<95 417> 388 81<98 463>
LayerCount: 2
Back
Fore
SplineSet
352 755 m 1
 224 646 l 1
 182 646 l 1
 267 755 l 1
 352 755 l 1
527 61 m 1
 388 -9 l 1
 388 65 l 1
 358 28 303 -9 236 -9 c 0
 182 -9 85 -23 85 116 c 2
 85 415 l 2
 85 427 73 442 60 442 c 2
 15 442 l 1
 15 463 l 1
 166 463 l 1
 166 111 l 2
 166 53 205 24 251 27 c 0
 306 30 360 67 388 99 c 1
 388 415 l 2
 388 427 376 442 363 442 c 2
 318 442 l 1
 318 463 l 1
 469 463 l 1
 469 97 l 1
 527 81 l 1
 527 61 l 1
348 525 m 0
 293 525 293 609 348 609 c 0
 404 609 404 525 348 525 c 0
176 525 m 0
 121 525 121 609 176 609 c 0
 232 609 232 525 176 525 c 0
EndSplineSet
EndChar

StartChar: uni01D9
Encoding: 473 473 409
Width: 643
Flags: W
HStem: -13 22<359 389> 634 27<40 95 40 296 463 521 463 676> 675 84<300 306 471 473>
VStem: 128 80<162 599> 551 37<207 600>
LayerCount: 2
Back
Fore
SplineSet
676 634 m 1
 623 634 l 2
 604 634 588 616 588 597 c 2
 588 220 l 2
 588 104 486 -14 374 -13 c 0
 228 -11 128 20 128 181 c 2
 128 597 l 2
 128 614 111 634 93 634 c 2
 40 634 l 1
 40 661 l 1
 296 661 l 1
 296 634 l 1
 243 634 l 2
 224 634 208 616 208 597 c 2
 208 132 l 2
 208 54 288 9 371 9 c 0
 469 9 551 107 551 209 c 2
 551 597 l 2
 551 615 534 634 515 634 c 2
 463 634 l 1
 463 661 l 1
 676 661 l 1
 676 634 l 1
471 675 m 0
 416 675 416 759 471 759 c 0
 527 759 527 675 471 675 c 0
300 675 m 0
 245 675 245 759 300 759 c 0
 356 759 356 675 300 675 c 0
279 839 m 1
 304 839 l 1
 380 781 l 1
 387 781 l 1
 464 839 l 1
 486 839 l 1
 391 745 l 1
 375 745 l 1
 279 839 l 1
EndSplineSet
EndChar

StartChar: uni01DA
Encoding: 474 474 410
Width: 544
Flags: W
HStem: -9 21G<209 269.5> 442 21<15 64 318 368> 525 84<176 178 338.032 351> 666 21G<264 272>
VStem: 85 81<95 417> 388 81<98 463>
LayerCount: 2
Back
Fore
SplineSet
527 61 m 1
 388 -9 l 1
 388 65 l 1
 358 28 303 -9 236 -9 c 0
 182 -9 85 -23 85 116 c 2
 85 415 l 2
 85 427 73 442 60 442 c 2
 15 442 l 1
 15 463 l 1
 166 463 l 1
 166 111 l 2
 166 53 205 24 251 27 c 0
 306 30 360 67 388 99 c 1
 388 415 l 2
 388 427 376 442 363 442 c 2
 318 442 l 1
 318 463 l 1
 469 463 l 1
 469 97 l 1
 527 81 l 1
 527 61 l 1
348 525 m 0
 293 525 293 609 348 609 c 0
 404 609 404 525 348 525 c 0
176 525 m 0
 121 525 121 609 176 609 c 0
 232 609 232 525 176 525 c 0
163 723 m 1
 189 723 l 1
 264 666 l 1
 272 666 l 1
 348 723 l 1
 371 723 l 1
 276 630 l 1
 259 630 l 1
 163 723 l 1
EndSplineSet
EndChar

StartChar: uni01DB
Encoding: 475 475 411
Width: 643
Flags: W
HStem: -13 22<359 378> 634 27<40 95 40 295 463 521 463 676> 675 84<294 298 465 473>
VStem: 128 80<162 599> 551 37<207 600>
LayerCount: 2
Back
Fore
SplineSet
676 634 m 1
 623 634 l 2
 604 634 588 616 588 597 c 2
 588 220 l 2
 588 104 486 -14 374 -13 c 0
 228 -11 128 20 128 181 c 2
 128 597 l 2
 128 614 111 634 93 634 c 2
 40 634 l 1
 40 661 l 1
 296 661 l 1
 296 634 l 1
 243 634 l 2
 224 634 208 616 208 597 c 2
 208 132 l 2
 208 54 288 9 371 9 c 0
 469 9 551 107 551 209 c 2
 551 597 l 2
 551 615 534 634 515 634 c 2
 463 634 l 1
 463 661 l 1
 676 661 l 1
 676 634 l 1
465 675 m 0
 410 675 410 759 465 759 c 0
 521 759 521 675 465 675 c 0
294 675 m 0
 239 675 239 759 294 759 c 0
 350 759 350 675 294 675 c 0
461 878 m 1
 333 769 l 1
 291 769 l 1
 376 878 l 1
 461 878 l 1
EndSplineSet
EndChar

StartChar: uni01DC
Encoding: 476 476 412
Width: 544
Flags: W
HStem: -9 21G<209 269.5> 442 21<15 64 318 368> 525 84<176 178 338.032 351>
VStem: 85 81<95 417> 388 81<98 463>
LayerCount: 2
Back
Fore
SplineSet
326 736 m 1
 198 627 l 1
 156 627 l 1
 241 736 l 1
 326 736 l 1
527 61 m 1
 388 -9 l 1
 388 65 l 1
 358 28 303 -9 236 -9 c 0
 182 -9 85 -23 85 116 c 2
 85 415 l 2
 85 427 73 442 60 442 c 2
 15 442 l 1
 15 463 l 1
 166 463 l 1
 166 111 l 2
 166 53 205 24 251 27 c 0
 306 30 360 67 388 99 c 1
 388 415 l 2
 388 427 376 442 363 442 c 2
 318 442 l 1
 318 463 l 1
 469 463 l 1
 469 97 l 1
 527 81 l 1
 527 61 l 1
348 525 m 0
 293 525 293 609 348 609 c 0
 404 609 404 525 348 525 c 0
176 525 m 0
 121 525 121 609 176 609 c 0
 232 609 232 525 176 525 c 0
EndSplineSet
EndChar

StartChar: uni01DD
Encoding: 477 477 413
Width: 448
Flags: W
HStem: -9 16<166.121 194> 145 28<4 305> 382 90<177 197>
VStem: 4 79<145 173>
LayerCount: 2
Back
Fore
SplineSet
4 173 m 1
 310 173 l 1
 312 187 318 202 318 217 c 0
 318 310 260 382 192 382 c 0
 113 382 46 353 8 282 c 1
 8 370 l 1
 39 432 118 472 185 472 c 0
 304 472 407 383 401 221 c 0
 397 102 305 -9 179 -9 c 0
 84 -9 4 62 4 173 c 1
83 145 m 1
 83 87 111 7 179 7 c 0
 252 7 289 71 305 145 c 1
 83 145 l 1
EndSplineSet
EndChar

StartChar: uni01DE
Encoding: 478 478 414
Width: 694
Flags: W
HStem: 0 28<37 270 494 721> 315 27<281 465> 675 83<298.98 312 469.98 486> 767 49<284 499>
DStem2: 138 86 281 342 0.387203 0.921995<291.401 543.397 38.8696 262.248> 419 686 465 315 0.336722 -0.941604<364.824 636.785>
LayerCount: 2
Back
Fore
SplineSet
721 0 m 1
 494 0 l 1
 494 28 l 1
 534 28 l 258
 549 28 559 44 554 58 c 2
 465 315 l 1
 270 315 l 1
 186 108 l 2
 173 75 196 28 233 28 c 258
 270 28 l 1
 270 0 l 1
 37 0 l 1
 37 28 l 1
 73 28 l 258
 102 28 128 62 138 86 c 2
 361 617 l 1
 351 647 l 1
 419 686 l 1
 640 68 l 2
 648 45 680 28 703 28 c 258
 721 28 l 1
 721 0 l 1
456 342 m 1
 377 575 l 1
 281 342 l 1
 456 342 l 1
480 675 m 0
 425 675 425 758 480 758 c 0
 536 758 536 675 480 675 c 0
309 675 m 0
 254 675 254 758 309 758 c 0
 365 758 365 675 309 675 c 0
499 767 m 1
 284 767 l 1
 284 816 l 1
 499 816 l 1
 499 767 l 1
EndSplineSet
EndChar

StartChar: uni01DF
Encoding: 479 479 415
Width: 497
Flags: W
HStem: -9 43<203 234> 438 34<246 301> 525 84<195 205 357.032 370> 642 49<174 389>
VStem: 313 81<116 391>
LayerCount: 2
Back
Fore
SplineSet
389 642 m 1
 174 642 l 1
 174 691 l 1
 389 691 l 1
 389 642 l 1
464 43 m 2
 464 13 428 -6 402 -9 c 0
 348 -14 316 18 313 72 c 1
 292 33 249 -9 203 -9 c 0
 129 -9 62 26 65 104 c 0
 70 236 235 223 313 280 c 1
 313 382 l 2
 313 418 279 438 246 438 c 0
 224 438 198 436 178 424 c 1
 181 406 178 397 174 379 c 0
 166 346 157 309 124 309 c 0
 50 309 111 475 301 472 c 0
 327 472 394 456 394 389 c 2
 394 73 l 2
 394 54 405 33 425 34 c 0
 442 35 458 61 464 76 c 1
 464 43 l 2
313 117 m 1
 313 250 l 1
 261 226 152 212 146 134 c 0
 139 39 177 34 234 34 c 0
 271 34 298 88 313 117 c 1
367 525 m 0
 312 525 312 609 367 609 c 0
 423 609 423 525 367 525 c 0
195 525 m 0
 140 525 140 609 195 609 c 0
 251 609 251 525 195 525 c 0
EndSplineSet
EndChar

StartChar: uni01E0
Encoding: 480 480 416
Width: 694
Flags: W
HStem: 0 28<37 270 494 721> 315 27<281 465> 786 49<275 490>
VStem: 338 75<727.44 740>
DStem2: 138 86 281 342 0.387203 0.921995<291.401 543.397 38.8696 262.248> 419 686 465 315 0.336722 -0.941604<364.824 636.785>
LayerCount: 2
Back
Fore
SplineSet
721 0 m 1
 494 0 l 1
 494 28 l 1
 534 28 l 258
 549 28 559 44 554 58 c 2
 465 315 l 1
 270 315 l 1
 186 108 l 2
 173 75 196 28 233 28 c 258
 270 28 l 1
 270 0 l 1
 37 0 l 1
 37 28 l 1
 73 28 l 258
 102 28 128 62 138 86 c 2
 361 617 l 1
 351 647 l 1
 419 686 l 1
 640 68 l 2
 648 45 680 28 703 28 c 258
 721 28 l 1
 721 0 l 1
456 342 m 1
 377 575 l 1
 281 342 l 1
 456 342 l 1
490 786 m 1
 275 786 l 1
 275 835 l 1
 490 835 l 1
 490 786 l 1
413 737 m 0
 413 787 338 787 338 737 c 0
 338 687 413 687 413 737 c 0
EndSplineSet
EndChar

StartChar: uni01E1
Encoding: 481 481 417
Width: 497
Flags: W
HStem: -9 43<203 234> 438 34<246 301> 637 49<176 391>
VStem: 240 74<554 556> 313 81<116 391>
LayerCount: 2
Back
Fore
SplineSet
464 43 m 2xe8
 464 13 428 -6 402 -9 c 0
 348 -14 316 18 313 72 c 1
 292 33 249 -9 203 -9 c 0
 129 -9 62 26 65 104 c 0
 70 236 235 223 313 280 c 1
 313 382 l 2
 313 418 279 438 246 438 c 0
 224 438 198 436 178 424 c 1
 181 406 178 397 174 379 c 0
 166 346 157 309 124 309 c 0
 50 309 111 475 301 472 c 0
 327 472 394 456 394 389 c 2
 394 73 l 2
 394 54 405 33 425 34 c 0
 442 35 458 61 464 76 c 1
 464 43 l 2xe8
313 117 m 1
 313 250 l 1
 261 226 152 212 146 134 c 0
 139 39 177 34 234 34 c 0
 271 34 298 88 313 117 c 1
391 637 m 1
 176 637 l 1
 176 686 l 1
 391 686 l 1
 391 637 l 1
314 554 m 0xf0
 314 605 240 605 240 554 c 0
 240 505 314 505 314 554 c 0xf0
EndSplineSet
EndChar

StartChar: uni01E4
Encoding: 484 484 420
Width: 596
Flags: W
HStem: 187 49<380 461 541 627> 336 21<397 430 397 616>
VStem: 14 82<313 347> 461 80<90 187 236 299>
LayerCount: 2
Back
Fore
SplineSet
627 187 m 1
 541 187 l 1
 541 68 l 1
 506 82 l 1
 459 24 378 -3 304 -6 c 0
 136 -12 13 165 14 332 c 0
 14 496 146 667 296 664 c 0
 368 663 408 645 459 598 c 1
 502 658 l 1
 527 658 l 1
 540 440 l 1
 524 440 l 1
 519 458 515 469 506 486 c 0
 459 579 394 651 291 643 c 0
 167 633 95 461 96 324 c 0
 98 180 167 11 320 15 c 0
 380 17 428 42 461 91 c 1
 461 187 l 1
 380 187 l 1
 380 236 l 1
 461 236 l 1
 461 292 l 2
 461 313 454 336 428 336 c 2
 397 336 l 1
 397 357 l 1
 616 357 l 1
 616 336 l 1
 571 336 l 2
 548 336 541 310 541 292 c 2
 541 236 l 1
 627 236 l 1
 627 187 l 1
EndSplineSet
EndChar

StartChar: uni01E5
Encoding: 485 485 421
Width: 458
Flags: W
HStem: -212 25<231 247> -112 45<295 375 444 527> 158 18<218 220> 453 13<218 220>
VStem: 22 57<-76 -67> 57 62<106 131> 338 8<417 430>
LayerCount: 2
Back
Fore
SplineSet
527 -112 m 1xf6
 432 -112 l 1
 391 -184 322 -212 231 -212 c 0
 112 -212 20 -172 22 -76 c 0xfa
 23 -33 83 12 127 32 c 1
 89 45 57 77 57 106 c 0
 57 151 108 167 155 172 c 1
 31 203 0 462 218 466 c 0
 265 467 314 445 338 417 c 1
 338 438 l 2
 338 443 338 448 339 454 c 0
 345 501 410 500 416 456 c 0
 419 430 400 405 371 411 c 1
 359 415 353 419 346 430 c 1
 346 405 l 1
 406 315 366 158 218 158 c 0
 212 158 206 158 200 159 c 1
 161 156 119 158 119 131 c 0
 119 72 445 95 445 -56 c 0
 445 -60 445 -63 445 -67 c 1
 527 -67 l 1
 527 -112 l 1xf6
218 176 m 0
 324 176 319 453 218 453 c 0
 114 453 110 176 218 176 c 0
378 -67 m 1
 355 -15 235 3 148 27 c 1
 107 -2 78 -27 79 -76 c 0
 80 -155 146 -187 231 -187 c 0
 300 -187 363 -169 375 -112 c 1
 295 -112 l 1
 295 -67 l 1
 378 -67 l 1
EndSplineSet
EndChar

StartChar: uni01EC
Encoding: 492 492 428
Width: 734
Flags: W
HStem: -35 20G<332 376> -21 21<358 378> 650 21<343 378> 734 49<259 474>
LayerCount: 2
Back
Fore
SplineSet
474 734 m 1x30
 259 734 l 1
 259 783 l 1
 474 783 l 1
 474 734 l 1x30
359 -21 m 0x70
 -87 -21 -87 671 358 671 c 0
 802 671 803 -21 359 -21 c 0x70
359 0 m 2
 358 0 l 2
 679 0 677 650 359 650 c 0
 41 650 43 0 359 0 c 2
332 -15 m 1xb0
 376 -15 l 1
 340 -21 322 -58 326 -95 c 0
 330 -124 359 -133 389 -138 c 0
 426 -144 452 -133 473 -104 c 1
 494 -130 l 1
 470 -169 439 -186 394 -185 c 0
 339 -184 284 -150 284 -95 c 0
 284 -59 300 -32 332 -15 c 1xb0
EndSplineSet
EndChar

StartChar: uni01ED
Encoding: 493 493 429
Width: 493
Flags: W
HStem: -23 20G<201 245> -9 15<250 265> 455 17<250 265> 546 49<136 351>
LayerCount: 2
Back
Fore
SplineSet
351 546 m 1x30
 136 546 l 1
 136 595 l 1
 351 595 l 1
 351 546 l 1x30
250 -9 m 0x70
 -45 -9 -44 472 250 472 c 0
 547 472 547 -9 250 -9 c 0x70
250 6 m 0
 425 6 425 455 250 455 c 0
 74 455 74 6 250 6 c 0
201 -3 m 1xb0
 245 -3 l 1
 209 -9 191 -46 195 -83 c 0
 199 -112 228 -121 258 -126 c 0
 295 -132 321 -121 342 -92 c 1
 363 -118 l 1
 339 -157 308 -174 263 -173 c 0
 208 -172 153 -138 153 -83 c 0
 153 -47 169 -20 201 -3 c 1xb0
EndSplineSet
EndChar

StartChar: uni01EE
Encoding: 494 494 430
Width: 490
Flags: W
HStem: 0 30<191 228> 652 20<119 366>
LayerCount: 2
Back
Fore
SplineSet
473 672 m 1
 283 425 l 1
 595 357 490 0 228 0 c 0
 138 0 77 43 81 104 c 0
 87 193 192 190 188 113 c 0
 187 82 166 65 135 70 c 1
 140 48 169 30 191 30 c 0
 243 30 391 70 391 196 c 0
 391 320 269 371 160 371 c 1
 160 400 l 1
 366 652 l 1
 210 652 l 2
 157 652 121 576 115 530 c 1
 96 540 l 1
 119 672 l 1
 473 672 l 1
162 788 m 1
 187 788 l 1
 263 730 l 1
 270 730 l 1
 347 788 l 1
 369 788 l 1
 274 694 l 1
 258 694 l 1
 162 788 l 1
EndSplineSet
EndChar

StartChar: uni01EF
Encoding: 495 495 431
Width: 465
Flags: W
HStem: 444 20<130 370>
DStem2: 108 192 222 217 0.52145 0.853282<80.7773 295.33>
LayerCount: 2
Back
Fore
SplineSet
17 -116 m 0
 13 -177 74 -223 160 -220 c 0
 417 -212 464 144 222 217 c 1
 370 464 l 1
 52 464 l 1
 29 332 l 1
 47 322 l 1
 53 368 88 444 141 444 c 2
 262 444 l 1
 108 192 l 1
 108 163 l 1
 131 163 l 2
 220 163 293 57 288 -24 c 0
 281 -128 185 -192 123 -192 c 0
 101 -192 72 -172 67 -150 c 1
 99 -156 117 -138 118 -107 c 0
 121 -42 23 -29 17 -116 c 0
122 618 m 1
 147 618 l 1
 223 560 l 1
 230 560 l 1
 307 618 l 1
 329 618 l 1
 234 524 l 1
 218 524 l 1
 122 618 l 1
EndSplineSet
EndChar

StartChar: uni01F0
Encoding: 496 496 432
Width: 254
Flags: W
VStem: 117 81<-69 397>
LayerCount: 2
Back
Fore
SplineSet
198 -35 m 2
 198 -94 139 -144 71 -146 c 0
 -9 -148 0 -58 51 -57 c 0
 85 -56 98 -92 76 -117 c 0
 70 -124 68 -128 60 -132 c 1
 71 -132 77 -130 87 -125 c 0
 109 -113 117 -94 117 -69 c 2
 117 397 l 1
 77 410 l 1
 77 417 l 1
 198 474 l 1
 198 -35 l 2
37 630 m 1
 62 630 l 1
 138 572 l 1
 146 572 l 1
 222 630 l 1
 245 630 l 1
 150 536 l 1
 133 536 l 1
 37 630 l 1
EndSplineSet
EndChar

StartChar: uni01F1
Encoding: 497 497 433
Width: 1315
Flags: W
HStem: 0 27<23 304 863 1215> 0 33<226 328> 469 21G<777 802> 634 27<23 78 822 1156>
VStem: 111 80<64 581>
DStem2: 757 21 863 28 0.546143 0.837692<63.755 730.579> 777 469 802 469 0.228191 0.973616<5.70478 53.4576>
LayerCount: 2
Back
Fore
SplineSet
669 347 m 0xb8
 670 172 516 0 304 0 c 2
 23 0 l 1
 23 27 l 1
 76 27 l 2
 94 27 111 47 111 64 c 2
 111 597 l 2
 111 614 94 634 76 634 c 2
 23 634 l 1
 23 661 l 1
 404 661 l 2
 598 661 668 484 669 347 c 0xb8
582 359 m 0
 573 493 505 628 371 628 c 2
 228 628 l 2
 203 628 191 599 191 578 c 2
 191 83 l 2
 191 62 203 33 228 33 c 2
 322 33 l 2x78
 485 33 592 196 582 359 c 0
1274 206 m 1
 1215 0 l 1xb8
 757 0 l 1
 757 21 l 1
 1156 633 l 1
 986 633 l 2
 920 633 833 581 815 515 c 2
 802 469 l 1
 777 469 l 1
 822 661 l 1
 1254 661 l 1
 1254 639 l 1
 863 28 l 1
 1047 28 l 2
 1122 28 1198 90 1230 157 c 2
 1252 204 l 1
 1274 206 l 1
EndSplineSet
EndChar

StartChar: uni01F2
Encoding: 498 498 434
Width: 1123
Flags: W
HStem: -2 23<827 1044> 0 27<23 304> 0 33<226 328> 442 21<781 993> 628 33<23 376> 634 27<23 78>
VStem: 111 80<64 580>
DStem2: 723 -2 827 21 0.519581 0.854421<73.6881 519.65>
LayerCount: 2
Back
Fore
SplineSet
669 347 m 0x16
 670 172 516 0 304 0 c 2
 23 0 l 1
 23 27 l 1
 76 27 l 2
 94 27 111 47 111 64 c 2
 111 597 l 2
 111 614 94 634 76 634 c 2
 23 634 l 1x56
 23 661 l 1x1a
 404 661 l 2
 598 661 668 484 669 347 c 0x16
582 359 m 0
 573 493 505 628 371 628 c 2
 228 628 l 2
 203 628 191 599 191 578 c 2
 191 83 l 2
 191 62 203 33 228 33 c 2
 322 33 l 2x3a
 485 33 592 196 582 359 c 0
1100 463 m 1
 827 21 l 1
 939 21 l 2
 995 21 1047 83 1064 132 c 1
 1082 125 l 1
 1044 -2 l 1
 723 -2 l 1x92
 993 442 l 1
 872 442 l 2
 818 442 783 368 777 321 c 1
 758 331 l 1
 781 463 l 1
 1100 463 l 1
EndSplineSet
EndChar

